{"glyphs":{"0":{"ha":704,"x_min":-31,"x_max":615,"o":"m 417 87 q 413 88 413 87 q 413 88 413 89 q 410 81 413 87 q 400 65 407 76 q 273 -66 341 -22 q 144 -96 206 -109 q 56 -44 98 -87 q -11 65 15 -2 q -19 98 -15 76 q -25 145 -22 120 q -30 195 -28 170 q -31 237 -31 220 q 21 515 -22 376 q 137 765 65 654 q 164 800 148 781 q 196 837 180 819 q 229 871 213 856 q 256 898 244 887 q 333 942 294 928 q 409 956 372 956 q 515 922 469 956 q 587 824 561 889 q 604 755 596 798 q 613 672 611 711 q 591 468 615 572 q 515 228 567 363 q 463 117 485 150 q 417 87 441 83 m 207 37 q 305 106 252 57 q 391 206 357 154 q 426 299 407 237 q 463 452 444 361 q 487 628 487 559 q 478 711 487 665 q 466 761 472 743 q 450 791 459 780 q 437 798 446 798 q 391 781 417 798 q 337 736 365 765 q 281 667 309 707 q 230 578 254 626 q 186 478 204 528 q 152 365 169 428 l 152 367 q 130 258 137 311 q 122 163 122 206 q 133 73 122 109 q 165 28 144 37 q 207 37 176 24 z "},"1":{"ha":470,"x_min":-11,"x_max":365,"o":"m 50 -104 q 19 -81 33 -96 q -2 -44 6 -65 q -11 17 -11 -24 q 0 119 -11 54 q 14 190 7 159 q 30 256 20 220 q 53 341 39 293 q 87 461 67 389 q 108 530 98 494 q 128 596 119 565 q 145 651 137 628 q 159 685 154 674 q 157 683 157 685 q 156 681 157 681 q 56 685 91 648 q 50 718 41 702 q 85 752 59 733 q 131 798 106 769 q 170 848 157 828 l 170 846 q 172 857 170 854 l 176 865 l 189 894 q 226 950 209 935 q 272 965 243 965 q 337 936 309 965 q 357 876 365 907 l 346 850 q 341 833 344 841 q 331 809 333 815 q 298 736 313 776 q 267 641 283 696 q 204 384 231 517 q 167 133 176 252 q 161 67 163 98 q 159 26 159 35 q 124 -89 154 -56 q 50 -104 94 -122 z "},"2":{"ha":854,"x_min":-17,"x_max":761,"o":"m 570 941 q 685 874 639 922 q 741 757 731 826 q 731 656 746 709 q 672 526 715 602 q 624 451 648 485 q 561 371 600 417 q 460 261 522 326 q 300 94 398 196 q 244 50 280 74 q 180 11 207 26 q 241 28 200 19 q 313 43 281 37 q 431 57 369 52 q 546 63 493 63 q 626 59 589 63 q 683 46 663 56 q 718 25 696 43 q 748 -6 739 7 q 752 -57 761 -31 l 754 -57 q 740 -81 750 -72 q 704 -96 730 -89 q 689 -101 694 -100 q 675 -102 683 -102 q 655 -99 667 -102 q 622 -93 643 -96 l 624 -93 q 456 -81 543 -81 q 373 -83 417 -81 q 274 -89 330 -85 q 100 -115 165 -98 q 54 -122 72 -124 q 19 -106 35 -120 q -6 -24 -17 -74 q 5 8 -2 -6 q 29 42 11 22 q 79 89 46 61 q 167 163 111 117 l 191 183 l 298 274 q 429 403 370 337 q 527 531 487 469 q 586 645 567 593 q 602 737 606 698 l 602 735 q 554 778 596 767 q 487 772 522 783 q 417 738 452 761 q 351 682 381 715 q 300 613 320 650 l 300 615 q 279 560 285 585 q 272 504 272 535 q 264 469 272 478 q 230 459 256 459 q 208 462 217 459 q 183 476 200 465 q 154 514 165 493 q 139 572 143 535 q 153 690 130 628 q 226 811 176 752 l 228 811 q 328 893 269 859 q 443 941 387 926 q 470 945 454 944 q 502 946 487 946 q 570 941 544 946 z "},"3":{"ha":820,"x_min":-20,"x_max":711,"o":"m 496 498 l 478 485 q 481 483 478 485 l 483 483 l 481 485 q 611 415 565 461 q 711 220 711 330 q 648 63 711 137 q 525 -27 604 11 q 357 -80 446 -65 q 320 -82 343 -81 q 272 -83 298 -83 q 219 -82 246 -83 q 178 -78 193 -81 q 39 -15 94 -63 q -8 53 4 17 q -17 135 -20 89 q -3 189 -13 172 q 33 196 7 206 q 69 144 56 191 l 67 146 q 85 110 72 131 q 107 80 98 89 q 134 64 117 70 q 167 54 152 57 q 238 54 196 48 q 323 71 280 59 q 408 102 367 83 q 480 143 450 120 q 534 200 520 172 q 544 259 548 228 q 511 328 541 298 q 419 381 481 357 q 356 400 387 394 q 285 406 326 406 q 244 407 259 406 q 213 413 228 409 q 184 447 189 424 q 196 493 180 470 q 241 521 209 506 q 300 544 272 537 q 416 585 372 561 q 496 656 459 609 q 522 685 515 676 q 535 713 530 694 l 535 711 q 524 772 554 759 q 502 777 517 776 q 470 778 487 778 q 402 770 430 778 q 343 751 370 761 q 296 726 315 741 q 249 684 272 711 q 219 635 226 657 q 214 623 215 626 q 215 617 213 620 l 215 619 q 191 565 244 565 q 166 570 174 565 q 148 591 157 576 l 148 589 q 133 711 117 637 q 180 802 146 759 q 258 876 213 844 q 358 925 304 907 q 472 943 413 943 q 574 923 528 943 q 652 872 620 904 q 697 798 683 841 q 702 709 711 756 q 644 610 693 659 q 496 500 596 561 l 496 498 z "},"4":{"ha":748,"x_min":-48,"x_max":706,"o":"m 572 270 q 567 276 567 272 q 563 218 563 261 q 559 135 563 174 q 558 112 559 126 q 557 87 557 98 l 557 39 q 533 -85 552 -69 l 533 -83 q 456 -107 506 -122 q 440 -98 450 -106 q 422 -83 430 -91 l 422 -85 q 392 -41 400 -67 q 385 28 383 -15 q 389 76 385 46 q 398 140 393 106 q 411 211 404 174 q 426 281 419 248 q 456 304 435 304 l 443 307 q 433 306 443 306 q 415 309 424 307 q 330 306 376 311 q 237 292 283 302 q 147 265 191 281 q 70 230 104 248 q -26 241 17 202 q -45 283 -43 256 q -33 331 -48 311 q 4 360 -24 346 q 80 391 31 374 l 131 411 l 152 435 l 150 433 q 226 542 183 474 q 330 728 269 609 q 378 825 363 791 q 404 887 393 859 l 402 887 q 423 934 411 919 q 461 956 435 950 q 515 950 487 963 q 557 911 543 937 q 571 871 567 896 q 572 824 576 846 q 541 737 567 791 q 478 628 515 683 q 446 582 465 607 q 407 532 428 557 q 367 484 387 507 q 331 446 346 461 l 419 454 l 474 456 q 476 469 476 459 q 503 563 489 520 q 522 615 517 606 l 522 613 q 561 646 535 639 q 607 635 587 654 q 623 617 619 626 q 629 592 628 607 q 625 552 630 576 q 611 489 620 528 l 611 491 q 606 460 607 476 q 600 435 604 444 l 600 431 q 669 393 643 419 q 702 335 696 367 q 685 280 706 300 q 624 259 665 259 q 597 261 607 259 q 572 270 587 263 z "},"5":{"ha":794,"x_min":-30,"x_max":681,"o":"m 302 806 q 280 800 291 802 q 269 800 269 798 q 267 784 269 794 q 261 765 265 774 q 256 750 259 759 q 250 730 254 741 l 252 731 l 228 624 l 244 631 q 324 656 283 646 q 400 665 365 665 q 583 598 506 665 q 641 527 620 567 q 670 433 661 487 q 674 404 674 419 q 674 374 674 389 q 665 296 674 335 q 635 215 656 257 q 563 99 606 154 q 463 2 520 44 q 344 -61 406 -39 q 228 -83 283 -83 q 194 -82 209 -83 q 165 -78 180 -81 l 167 -78 q 6 35 61 -50 q -19 87 -11 63 q -28 137 -28 111 q -22 181 -30 161 q -3 209 -15 200 q 24 217 9 219 q 52 196 39 215 l 69 146 q 84 98 76 115 q 111 65 93 81 q 176 31 137 43 q 218 29 194 28 q 261 35 241 30 q 315 60 281 41 q 372 94 348 80 q 410 129 391 107 q 448 174 430 150 q 481 224 467 198 q 506 272 496 250 q 526 391 526 328 q 524 419 526 406 q 520 443 522 431 l 522 441 q 504 471 515 461 q 478 491 493 481 q 457 497 465 496 q 426 498 450 498 q 369 491 393 498 q 314 470 343 481 q 259 441 285 459 q 206 411 219 417 q 178 406 193 406 q 115 428 148 406 q 81 464 93 444 q 70 515 70 483 q 74 556 70 535 q 83 600 78 578 q 101 649 93 622 q 115 696 109 676 l 137 776 l 139 776 l 144 798 l 143 798 q 130 815 133 807 q 122 835 126 822 l 122 837 q 123 859 119 852 q 137 876 128 867 q 156 894 146 889 q 193 904 167 900 q 234 910 207 906 q 293 919 261 915 q 357 928 324 924 q 419 935 391 931 q 472 940 439 939 q 531 941 506 941 l 606 941 l 628 926 l 626 928 q 661 897 648 915 q 678 862 674 880 q 675 828 681 844 q 652 800 669 811 q 629 794 639 794 q 593 798 619 793 l 548 806 q 533 807 541 807 q 496 812 522 811 q 439 813 470 813 q 360 811 400 813 q 302 806 320 809 m 267 800 q 259 798 265 798 l 267 798 l 267 800 z "},"6":{"ha":619,"x_min":-37,"x_max":585,"o":"m 417 772 q 353 689 385 731 q 287 598 320 646 q 257 556 272 578 q 231 524 243 535 q 278 532 256 530 q 331 535 300 535 q 426 521 385 535 q 504 476 467 507 q 568 382 550 437 q 576 263 585 328 q 556 194 572 237 q 520 124 541 152 l 522 124 q 481 60 502 89 q 430 6 459 31 q 341 -66 385 -37 q 257 -107 296 -94 q 194 -117 231 -115 q 131 -113 156 -119 l 133 -113 q -9 24 37 -87 q -22 58 -19 43 q -31 113 -26 74 q -37 191 -37 157 q -34 235 -37 213 q -26 283 -31 257 q 6 402 -17 337 q 60 533 30 467 q 129 667 91 600 q 207 793 167 733 q 239 835 220 813 q 275 877 257 857 q 308 912 293 896 q 333 933 324 928 q 382 949 357 946 q 428 939 407 952 q 456 913 444 930 q 470 874 469 896 q 471 854 472 863 q 465 833 470 844 q 447 807 459 822 q 417 770 435 793 l 417 772 m 274 369 q 154 302 187 307 l 143 302 l 139 283 q 117 139 117 206 q 131 48 117 87 q 147 23 137 33 q 167 9 157 13 l 167 11 q 198 8 180 7 q 231 13 217 9 q 302 46 265 22 q 376 113 339 70 l 374 113 q 453 230 428 174 q 470 331 478 285 q 467 359 469 352 q 461 374 465 367 l 461 372 q 409 407 443 394 q 274 369 348 419 z "},"7":{"ha":683,"x_min":-130,"x_max":565,"o":"m 513 744 q 464 672 491 713 q 411 589 437 631 q 363 506 385 546 q 324 431 341 465 q 298 369 313 404 q 268 294 283 333 q 237 215 252 256 q 209 137 222 174 q 164 16 181 59 q 131 -44 146 -28 q 89 -73 113 -67 q 43 -65 65 -80 q -2 33 -2 -39 q 9 109 0 70 q 38 194 19 148 q 87 297 57 241 q 161 426 117 354 q 245 562 206 498 q 316 676 285 626 q 366 759 346 726 q 391 802 385 793 l 365 798 l 367 798 q 117 743 209 757 q -22 735 24 728 q -115 793 -83 750 q -128 830 -126 811 q -119 870 -130 848 l -120 869 q -110 889 -117 883 q -93 902 -104 894 l -61 915 l -13 911 q 92 906 41 907 q 191 904 143 904 q 256 905 224 904 q 313 909 287 906 q 342 913 324 909 q 380 921 359 917 q 420 931 400 926 q 457 941 441 935 q 532 925 500 954 q 563 848 565 896 q 513 744 559 811 z "},"8":{"ha":746,"x_min":-30,"x_max":652,"o":"m 494 -54 q 408 -105 467 -85 q 285 -124 350 -124 q 257 -123 270 -124 q 231 -120 244 -122 q 140 -95 189 -115 q 59 -50 91 -76 q -7 41 15 -13 q -22 143 -30 94 q 9 218 -17 180 q 72 281 35 256 l 83 289 q 76 293 80 289 q 41 384 54 330 q 31 489 28 439 q 68 658 33 576 q 167 809 102 741 q 230 866 193 835 q 298 911 267 896 q 372 941 335 930 q 443 952 409 952 q 549 922 500 952 q 628 844 598 893 q 635 820 631 835 q 643 789 639 806 q 649 722 652 756 q 633 650 646 689 q 607 579 626 619 q 550 465 589 539 q 496 348 519 400 q 456 231 474 296 q 430 178 446 198 q 412 162 419 167 q 394 157 406 157 q 467 105 443 126 q 506 65 491 83 q 516 42 515 50 q 519 19 517 33 q 515 -19 519 -4 q 493 -54 511 -35 l 494 -54 m 148 407 q 193 297 154 344 q 328 194 231 250 q 319 302 307 226 q 325 335 320 320 q 336 367 330 350 q 354 405 343 383 q 381 459 365 426 q 422 540 406 506 q 450 601 439 574 q 467 651 461 628 q 478 700 472 674 q 484 749 483 726 q 481 785 485 772 q 407 787 469 804 q 290 719 348 772 q 194 602 231 667 q 148 407 141 498 m 122 109 q 184 62 137 80 q 291 44 231 44 q 352 50 319 44 q 391 46 383 54 q 350 76 381 56 q 283 119 319 96 q 237 145 256 133 q 203 167 219 157 q 174 186 187 176 q 146 209 161 196 l 135 219 l 124 189 q 114 144 115 165 q 122 107 113 122 l 122 109 m 141 237 l 139 230 q 144 235 141 233 q 148 241 146 237 l 120 235 l 135 219 q 139 230 135 222 q 141 237 141 233 m 393 44 q 394 43 393 43 l 393 44 z "},"9":{"ha":635,"x_min":-89,"x_max":543,"o":"m 89 70 q 181 187 137 124 q 263 311 226 250 q 176 300 220 300 q 79 315 126 300 q -6 361 31 330 q -72 567 -89 437 q -40 664 -65 613 q 21 762 -15 715 q 101 850 57 809 q 189 917 144 891 q 256 944 220 933 q 324 956 293 956 q 452 907 398 956 q 483 871 470 891 q 511 822 496 852 q 517 811 511 817 q 530 778 526 793 q 537 726 533 763 q 543 650 543 683 q 539 604 543 630 q 531 554 535 578 q 496 425 520 493 q 439 286 472 357 q 363 144 406 215 q 272 11 320 74 q 176 -89 220 -57 q 93 -109 131 -120 q 49 -76 69 -100 q 31 -28 30 -52 q 39 5 31 -9 q 78 56 46 19 l 91 70 l 89 70 m 276 317 q 265 313 269 313 q 278 317 270 313 l 276 317 m 131 728 q 57 619 83 674 q 31 520 31 565 q 46 459 31 480 l 46 461 q 87 431 63 437 q 124 428 102 428 q 161 431 146 428 l 159 431 q 233 470 191 441 q 298 514 270 498 q 346 535 326 530 q 354 535 346 533 q 365 539 361 537 q 366 543 365 541 q 367 546 367 544 l 365 546 q 372 578 369 559 q 380 616 376 596 q 385 654 383 635 q 387 683 387 672 q 383 750 391 717 q 367 800 376 783 l 367 798 q 326 828 350 826 q 233 808 283 835 q 131 728 183 781 z "},"\u0000":{"ha":0,"x_min":0,"x_max":0,"o":""},"\r":{"ha":454,"x_min":0,"x_max":0,"o":""}," ":{"ha":454,"x_min":0,"x_max":0,"o":""},"A":{"ha":1119,"x_min":-20,"x_max":1137,"o":"m 889 43 q 909 35 904 43 q 919 17 915 28 q 891 -41 919 -7 q 831 -103 857 -85 q 772 -120 804 -120 q 686 -81 720 -120 q 648 31 652 -41 q 668 184 644 93 q 739 393 691 276 l 750 417 q 693 414 728 417 q 623 408 657 411 q 564 402 589 406 q 537 396 539 398 q 503 344 524 378 q 457 269 481 309 q 409 188 433 230 q 367 115 385 146 q 294 -25 331 52 q 228 -163 257 -102 q 188 -256 202 -220 q 154 -293 174 -293 q 124 -261 130 -293 q 126 -239 124 -252 q 135 -207 128 -226 l 133 -207 q 181 -78 152 -148 q 247 69 209 -7 q 328 223 285 144 q 417 376 370 302 l 335 352 q 181 279 237 319 q 122 202 124 239 l 135 159 l 133 161 q 138 146 135 154 q 143 133 141 139 q 146 119 144 126 q 126 72 146 93 q 80 52 106 52 q 16 82 46 52 q -19 181 -15 113 l -20 224 l -7 259 q 86 366 19 320 q 256 439 154 411 q 328 454 281 446 q 415 469 374 461 q 464 477 444 474 q 483 469 483 480 q 500 498 485 476 q 536 548 515 520 q 580 606 557 576 q 620 659 602 635 q 870 932 763 841 q 1043 1024 978 1024 q 1110 992 1085 1024 q 1137 917 1135 959 q 1131 874 1137 902 q 1107 800 1124 846 q 1061 688 1091 754 q 987 530 1031 622 l 963 481 q 993 485 967 485 q 1044 483 1019 485 q 1076 459 1069 481 q 1074 437 1076 444 q 1059 426 1072 430 q 1020 421 1046 422 q 944 420 994 420 l 933 420 q 918 384 924 402 q 902 348 911 367 q 819 138 848 231 q 794 2 791 44 q 795 -11 794 -7 q 796 -19 796 -15 l 796 -22 q 807 -20 802 -22 q 822 -8 809 -19 q 848 13 835 2 q 874 33 859 24 q 889 43 881 39 m 781 498 l 811 563 q 865 675 839 620 q 911 772 891 730 q 944 842 931 815 q 957 870 957 869 q 894 819 931 854 q 811 738 856 785 q 720 635 767 691 q 630 522 674 580 l 613 500 l 606 493 l 713 498 l 781 498 m 593 491 q 588 490 589 491 q 585 489 587 489 q 591 478 591 487 q 606 493 591 476 q 599 492 602 493 q 593 491 596 491 z "},"B":{"ha":937,"x_min":-37,"x_max":939,"o":"m 396 -122 q 330 -130 372 -130 q 255 -113 287 -130 q 200 -69 222 -96 q 167 -5 178 -41 q 154 70 156 31 q 156 136 152 104 q 170 209 159 169 q 201 305 181 250 q 254 437 220 359 q 351 656 307 567 q 431 798 394 744 q 495 876 467 852 q 546 900 524 900 q 588 881 572 900 q 607 837 604 863 q 588 774 607 813 q 519 670 569 735 q 314 344 376 481 q 256 106 252 207 q 270 39 257 54 q 306 24 283 24 q 381 54 333 24 q 472 129 428 83 q 549 228 517 174 q 580 330 581 281 q 554 355 578 348 q 489 361 530 361 q 475 360 481 361 q 459 359 469 359 l 431 359 q 391 369 396 359 q 381 404 385 378 l 378 422 q 383 435 378 430 l 402 452 q 467 483 431 470 l 465 483 q 576 547 520 507 q 675 634 631 587 q 745 731 719 681 q 770 826 772 781 q 711 892 769 865 q 556 919 654 919 q 371 881 463 919 q 207 789 280 844 q 91 669 135 733 q 48 552 46 606 q 119 457 48 478 q 159 436 154 443 q 165 415 165 430 l 163 417 q 153 396 167 406 q 115 387 139 387 q 59 401 85 387 q 12 438 33 415 q -21 492 -9 461 q -35 554 -33 522 q -8 669 -37 611 q 69 783 20 728 q 185 887 119 839 q 326 971 252 935 q 479 1028 400 1007 q 630 1048 557 1048 q 847 986 763 1048 q 935 822 931 924 q 865 617 939 715 q 639 437 791 519 l 626 430 q 684 377 663 411 q 707 298 706 343 q 682 165 709 233 q 611 38 656 96 q 509 -64 567 -20 q 394 -122 452 -107 l 396 -122 z "},"C":{"ha":785,"x_min":11,"x_max":881,"o":"m 44 -6 q 30 33 35 15 q 21 72 24 52 q 17 117 19 93 q 13 172 15 141 q 39 355 11 256 q 116 554 67 454 q 229 748 165 654 q 363 915 293 843 q 505 1031 433 987 q 639 1074 576 1074 q 728 1044 691 1074 q 769 959 765 1013 q 756 909 769 941 q 728 847 744 878 q 694 794 711 817 q 665 772 676 772 q 640 782 650 772 q 633 809 630 793 l 633 807 q 639 831 633 813 q 656 870 644 850 l 656 869 q 674 908 665 889 q 683 937 683 928 l 683 952 q 633 931 663 948 q 567 885 604 913 q 421 728 491 824 q 300 524 352 631 q 219 310 248 417 q 191 124 189 204 q 225 -17 194 28 q 304 -61 256 -61 q 405 -31 346 -61 q 528 56 463 -2 q 658 194 593 113 q 781 378 724 274 q 819 445 807 430 q 850 461 830 461 q 869 452 859 461 q 881 430 878 443 q 873 406 878 420 q 863 380 869 391 q 731 162 807 263 q 573 -12 656 61 q 409 -127 491 -85 q 261 -169 328 -169 q 133 -123 191 -169 q 44 -6 76 -78 z "},"D":{"ha":1085,"x_min":-22,"x_max":972,"o":"m 554 683 q 444 474 487 561 q 377 320 400 387 q 346 203 354 254 q 343 104 339 152 q 346 80 343 89 q 354 63 350 70 q 361 41 361 50 q 283 -2 361 -2 q 262 1 274 -2 q 238 15 250 4 q 217 46 226 26 q 206 100 207 67 l 206 98 q 228 273 202 167 q 317 531 254 380 q 358 631 333 574 q 408 738 383 687 q 453 828 433 789 q 481 876 472 867 q 506 895 491 889 q 537 902 522 902 q 590 878 569 902 q 613 822 611 854 q 611 801 613 811 q 604 777 609 791 q 586 741 598 763 q 554 683 574 719 m 820 254 q 674 69 754 152 q 510 -71 594 -13 q 342 -161 426 -130 q 181 -193 257 -193 q 56 -154 98 -193 q 11 -72 15 -115 q 31 -13 11 -39 q 87 13 50 13 q 107 8 100 13 q 122 -2 115 4 q 134 -7 126 -6 q 157 -9 143 -9 q 316 28 233 -9 q 481 135 398 65 l 480 135 q 626 286 563 207 q 731 444 689 365 q 791 596 772 522 q 806 735 809 670 q 752 878 802 833 q 598 922 702 922 q 404 884 500 922 q 232 791 307 846 q 111 670 157 735 q 67 552 65 606 q 69 535 69 543 q 74 524 70 528 q 117 480 85 498 q 170 450 148 461 q 194 439 185 444 q 202 422 202 433 q 191 400 202 413 q 154 387 180 387 q 83 401 115 387 q 30 438 52 415 q -5 492 7 461 q -19 554 -17 522 q 6 662 -22 606 q 84 774 35 719 q 200 879 133 830 q 340 966 267 928 q 489 1026 413 1004 q 633 1048 565 1048 q 869 961 783 1048 q 969 715 956 874 q 935 483 972 600 q 820 252 898 367 l 820 254 z "},"E":{"ha":885,"x_min":-13,"x_max":883,"o":"m 352 524 l 359 530 q 251 611 283 563 q 215 720 219 659 q 249 831 213 774 q 345 937 285 889 q 484 1017 406 985 q 646 1048 563 1048 q 794 1007 739 1048 q 850 906 848 967 q 838 853 850 881 q 808 800 826 824 q 772 759 791 776 q 741 743 754 743 q 718 753 728 743 q 707 780 707 763 q 718 800 709 785 q 733 831 726 815 q 746 864 741 848 q 752 887 752 880 q 744 897 752 894 q 717 900 737 900 q 616 882 674 900 q 504 836 557 865 q 412 770 450 807 q 376 694 374 733 q 395 656 376 674 q 447 625 415 639 q 519 604 480 611 q 602 596 559 596 q 679 583 656 596 q 704 544 702 570 q 659 502 709 513 q 465 415 557 474 q 302 284 372 356 q 191 138 231 213 q 154 0 150 63 q 198 -94 156 -63 q 294 -126 241 -126 q 556 -9 428 -126 q 800 319 683 107 l 800 317 l 817 350 q 832 377 826 369 q 852 385 839 385 q 871 375 861 385 q 878 350 881 365 q 880 337 878 339 q 882 324 883 330 q 870 298 881 319 q 864 285 867 294 q 857 269 861 276 l 857 270 q 728 56 802 154 q 571 -110 654 -41 q 405 -219 489 -180 q 244 -257 320 -257 q 137 -235 183 -257 q 58 -176 91 -213 q 8 -92 26 -139 q -11 6 -9 -44 q 11 147 -13 74 q 82 290 35 220 q 197 419 130 359 q 350 524 265 480 l 352 524 z "},"F":{"ha":835,"x_min":-28,"x_max":1256,"o":"m 57 578 q -1 609 26 578 q -28 674 -28 641 q 79 823 -28 750 q 426 965 185 896 l 426 963 q 429 963 422 961 q 439 965 435 965 l 454 994 q 565 1091 504 1091 q 619 1063 602 1091 q 641 1015 635 1035 q 757 1036 685 1026 q 905 1053 830 1046 q 1047 1063 980 1059 q 1148 1067 1115 1067 q 1229 1038 1202 1067 q 1256 980 1256 1009 q 1228 921 1256 948 q 1133 894 1200 894 l 1094 894 q 1063 895 1080 894 q 1026 896 1046 896 q 885 894 961 896 q 756 887 809 891 q 700 881 730 885 q 644 874 670 878 q 601 868 619 870 q 581 863 583 865 q 574 845 583 863 q 550 796 565 828 l 496 693 q 457 620 470 646 q 437 580 444 594 q 458 585 446 583 q 487 589 470 587 q 587 600 533 594 q 674 606 641 606 q 748 586 722 606 q 776 526 774 567 q 757 474 776 500 q 706 448 739 448 q 674 456 694 448 l 676 454 q 631 463 659 457 q 554 469 602 469 q 469 466 513 469 q 387 459 424 463 l 380 459 q 365 430 370 444 q 350 402 359 415 l 350 404 q 231 118 270 241 q 191 -54 191 -6 q 189 -61 191 -61 q 212 -47 194 -59 q 248 -24 230 -35 q 284 2 269 -9 q 311 13 300 13 q 329 6 320 13 q 337 -15 337 -2 q 318 -58 337 -35 q 272 -102 298 -81 q 219 -136 246 -122 q 174 -150 191 -150 q 94 -103 124 -150 q 65 17 65 -56 q 84 169 61 87 q 161 376 107 252 l 161 374 l 181 431 l 174 431 q 143 449 159 431 q 126 481 126 467 q 128 494 126 487 q 139 507 130 500 q 168 524 148 515 q 224 544 187 533 l 224 543 q 226 543 220 541 q 235 546 231 544 l 307 700 l 357 807 l 367 828 q 131 748 217 793 q 46 667 44 704 q 53 652 46 659 q 67 637 59 644 q 78 625 72 633 q 87 611 83 617 q 80 592 87 602 q 63 578 72 581 l 57 578 z "},"G":{"ha":815,"x_min":-17,"x_max":861,"o":"m -11 343 q -12 345 -11 344 q -13 350 -13 346 l -13 357 q 11 514 -17 433 q 89 671 39 594 q 206 817 139 748 q 352 936 274 885 q 512 1018 430 987 q 674 1048 594 1048 q 801 1012 748 1048 q 859 909 854 976 q 851 860 861 887 q 825 809 841 833 q 793 769 809 785 q 765 752 776 752 q 739 761 750 752 q 728 785 728 770 q 731 800 728 789 q 741 826 735 811 q 756 856 748 841 q 765 881 763 872 q 719 911 763 911 q 686 909 704 911 q 654 904 669 907 q 456 798 548 867 q 294 647 363 730 q 190 481 226 565 q 159 330 154 396 q 179 265 163 281 q 239 248 194 248 q 369 288 302 248 q 502 396 437 328 q 517 417 509 407 q 531 436 524 426 q 548 456 539 446 q 581 501 563 478 q 618 544 600 524 q 650 578 635 565 q 674 591 665 591 q 714 572 698 591 q 731 524 730 554 q 727 452 733 498 q 700 333 720 406 l 700 335 q 617 80 667 198 q 505 -126 567 -39 q 371 -263 443 -213 q 226 -313 300 -313 q 143 -282 172 -313 q 107 -213 113 -252 q 127 -130 104 -174 q 187 -43 150 -85 q 269 36 224 0 q 354 94 313 72 q 427 122 394 115 q 474 131 459 130 l 476 131 q 503 166 487 137 q 536 235 519 194 q 571 320 554 276 q 600 402 589 365 q 478 272 533 326 q 372 185 422 219 q 278 137 322 152 q 189 122 233 122 q 111 140 146 122 q 50 187 76 157 q 8 256 24 217 q -11 341 -7 296 l -11 343 m 359 -54 q 393 -9 376 -33 q 420 33 409 15 q 361 -4 394 22 q 297 -60 328 -30 q 244 -122 267 -91 q 219 -178 222 -154 q 285 -133 244 -169 q 359 -54 326 -98 m 207 -181 q 218 -183 217 -181 q 219 -191 219 -185 q 218 -184 219 -187 q 219 -178 217 -181 l 207 -181 z "},"H":{"ha":1241,"x_min":46,"x_max":1267,"o":"m 69 -19 q 127 92 87 37 q 221 195 167 146 q 344 284 276 244 q 485 352 411 324 l 483 352 q 508 362 504 359 q 517 369 513 365 l 517 367 q 530 403 520 374 q 550 468 539 431 q 572 539 561 504 q 589 594 583 574 q 614 719 606 659 q 617 813 622 780 q 602 843 611 844 q 541 798 581 839 l 543 798 q 516 772 526 778 q 493 767 506 767 q 467 794 472 770 q 481 836 467 813 q 516 881 494 859 q 561 916 537 902 q 607 931 585 930 q 653 927 633 933 q 691 902 672 920 q 734 836 720 872 q 754 744 748 800 q 748 606 759 683 q 706 420 737 528 l 706 422 q 704 415 704 420 q 779 425 735 420 q 846 430 822 430 q 867 434 863 430 q 880 465 870 439 q 910 549 893 502 q 949 649 928 596 q 993 756 970 702 q 1035 857 1015 809 l 1083 965 q 1110 1020 1096 1002 q 1139 1046 1124 1039 q 1216 1044 1178 1065 q 1263 980 1254 1022 q 1263 934 1267 956 q 1244 883 1259 913 q 1191 770 1211 820 l 1159 691 l 1141 648 q 1113 581 1128 617 q 1086 513 1098 546 q 1064 454 1074 480 q 1050 415 1054 428 q 1069 411 1059 413 q 1087 404 1080 409 l 1085 404 q 1130 355 1139 376 q 1054 333 1120 333 q 1044 334 1050 333 q 1031 335 1039 335 l 1022 337 l 1011 300 l 1013 300 q 982 194 996 246 q 961 94 969 141 q 951 12 954 48 q 954 -46 948 -24 q 978 -32 963 -44 q 1009 0 993 -20 q 1047 36 1031 31 q 1078 28 1063 41 q 1081 -24 1093 7 q 1039 -93 1070 -56 l 1039 -91 q 1014 -119 1028 -106 q 991 -137 1000 -131 q 966 -147 974 -146 q 937 -148 957 -148 q 896 -141 909 -148 q 845 -99 869 -128 q 811 -39 822 -70 l 813 -39 q 801 11 804 -17 q 798 70 798 39 q 808 191 798 124 q 839 328 819 257 l 839 326 q 848 361 848 359 q 820 358 846 363 q 763 346 794 354 q 705 331 731 339 q 674 319 678 322 q 669 306 672 313 q 662 290 665 298 q 656 272 659 281 l 656 274 q 576 89 620 176 q 483 -69 531 2 q 386 -188 435 -139 q 293 -257 337 -237 q 165 -276 222 -289 q 111 -251 137 -269 q 70 -207 85 -233 q 58 -183 61 -193 q 52 -150 56 -174 q 51 -146 52 -148 q 50 -143 50 -144 q 49 -87 46 -111 q 69 -19 52 -63 m 957 -57 l 954 -48 q 957 -57 954 -50 m 406 213 q 300 141 348 181 q 219 56 252 100 q 167 -32 185 11 q 152 -113 148 -76 q 165 -137 157 -137 q 200 -122 181 -137 q 323 4 254 -93 q 457 235 393 100 l 465 248 q 438 231 454 241 q 406 213 422 222 z "},"I":{"ha":609,"x_min":33,"x_max":820,"o":"m 165 -2 q 196 -2 187 -2 q 209 -6 206 -2 q 206 4 206 2 q 194 31 196 17 q 194 39 194 35 q 193 46 193 43 q 188 100 189 76 q 193 156 187 124 l 193 154 q 204 219 198 189 q 221 292 209 250 q 252 392 233 333 q 300 539 270 450 l 298 539 q 322 613 309 576 q 345 681 335 650 q 364 736 356 713 q 376 769 372 759 l 374 769 q 395 841 387 807 q 407 894 404 874 q 345 888 381 891 q 300 885 309 885 q 256 899 274 885 q 235 930 237 913 q 242 960 231 954 q 294 972 252 967 l 381 987 q 429 997 419 996 q 439 996 439 998 q 471 1035 456 1024 q 506 1046 487 1046 q 556 1024 533 1046 l 559 1022 q 567 1023 563 1024 q 574 1024 570 1022 q 611 1027 583 1026 q 667 1028 639 1028 q 740 1021 711 1028 q 784 1004 769 1015 q 806 978 800 993 q 817 946 813 963 q 806 900 820 922 q 761 878 793 878 q 725 881 741 878 q 689 889 709 885 q 647 899 669 894 q 609 904 626 904 l 585 904 q 584 901 583 900 q 585 898 585 902 q 564 815 581 876 q 509 656 546 754 q 413 383 452 494 q 352 200 374 272 q 321 87 330 128 q 315 24 313 46 q 330 11 322 17 q 341 0 337 6 q 350 -11 346 -7 q 358 -13 354 -13 q 369 -15 363 -13 q 406 -26 385 -20 q 445 -39 426 -31 q 478 -56 465 -46 q 493 -74 491 -65 q 487 -96 493 -91 q 461 -102 481 -102 q 444 -101 452 -102 q 424 -98 435 -100 q 391 -94 409 -96 q 356 -93 372 -93 q 238 -106 291 -93 q 152 -130 185 -119 q 132 -136 137 -133 q 106 -139 128 -139 q 62 -122 80 -139 q 41 -80 44 -106 q 46 -41 33 -59 l 46 -39 q 52 -26 48 -31 q 67 -15 56 -20 q 100 -6 78 -9 q 165 -2 122 -4 m 315 24 l 309 28 q 315 24 313 28 m 317 19 q 316 21 317 20 q 315 24 315 22 q 317 19 317 22 z "},"J":{"ha":898,"x_min":-2,"x_max":854,"o":"m 44 239 q 7 335 17 285 q 19 475 -2 398 q 93 633 41 552 q 230 794 152 719 q 388 925 307 869 q 544 1014 469 981 q 674 1046 619 1046 q 852 881 826 1046 q 853 852 852 867 q 854 820 854 837 q 819 580 854 720 q 708 244 776 407 q 564 -48 641 80 q 407 -255 487 -176 q 259 -333 328 -333 q 179 -303 211 -333 q 141 -228 146 -272 q 164 -119 133 -178 q 243 -8 194 -59 q 350 80 291 43 q 461 122 409 117 l 467 122 q 484 155 476 137 q 502 189 493 172 q 608 406 559 298 q 691 609 657 515 q 742 778 724 704 q 756 894 759 852 q 685 963 744 963 q 538 921 620 963 q 367 798 456 880 q 262 682 306 743 q 192 566 219 622 q 154 459 165 509 q 148 370 143 409 q 193 300 157 317 l 191 302 q 285 262 257 281 q 319 202 313 243 q 292 155 322 174 q 226 135 261 135 q 125 163 180 135 q 43 239 70 191 l 44 239 m 257 -181 q 286 -150 269 -170 q 325 -102 304 -130 q 369 -41 346 -74 q 411 28 391 -7 q 363 -10 389 15 q 315 -64 337 -35 q 276 -124 293 -93 q 257 -181 259 -156 m 413 31 q 411 28 411 28 q 448 41 433 41 l 431 52 q 426 55 428 59 q 420 43 424 50 l 413 31 m 244 -189 q 257 -194 252 -189 q 256 -189 257 -193 q 257 -181 256 -185 l 244 -189 z "},"K":{"ha":963,"x_min":41,"x_max":1037,"o":"m 137 -133 q 78 -78 100 -119 q 46 24 56 -37 q 42 62 43 41 q 41 104 41 83 q 42 142 41 122 q 44 181 43 161 q 53 235 46 202 q 67 296 59 269 q 76 337 72 319 q 81 365 80 356 q 63 377 72 369 q 52 406 54 385 q 62 440 50 419 q 96 474 74 461 l 109 481 l 126 535 l 126 533 q 187 756 159 667 q 237 905 215 846 q 278 993 259 963 q 311 1036 296 1022 q 337 1051 326 1050 q 357 1052 348 1052 q 406 1028 381 1052 q 437 972 431 1004 q 437 931 439 952 q 426 879 435 909 q 400 805 417 848 q 357 698 383 761 q 331 636 344 670 q 304 569 317 602 q 281 511 291 537 q 269 476 270 485 q 272 481 269 481 q 345 505 300 481 q 442 563 391 528 q 544 640 493 598 q 633 720 594 681 q 756 859 704 787 q 846 989 809 931 l 846 987 q 902 1070 880 1039 q 948 1102 924 1102 q 1006 1079 981 1102 q 1035 1019 1030 1056 q 1007 922 1037 980 q 921 799 978 865 q 784 662 865 733 q 604 524 704 591 q 502 463 556 493 q 411 417 448 433 q 571 308 489 372 q 721 181 654 244 q 833 62 789 117 q 881 -19 878 7 l 881 -17 q 868 -84 889 -59 q 807 -109 846 -109 q 768 -94 787 -109 q 717 -41 748 -80 q 530 160 631 70 q 306 330 428 250 l 270 357 l 244 350 q 211 314 222 346 q 185 217 200 281 q 164 124 170 163 q 157 54 157 85 q 158 30 157 43 q 161 4 159 17 q 170 -48 167 -46 l 220 -11 q 249 13 235 2 q 272 24 263 24 q 290 15 280 24 q 304 -4 300 6 q 291 -41 304 -19 q 258 -84 278 -63 q 216 -121 239 -106 q 169 -137 193 -137 q 153 -137 159 -137 q 137 -133 146 -137 m 267 474 l 267 470 l 267 474 m 85 363 l 83 363 l 85 363 z "},"L":{"ha":893,"x_min":-33,"x_max":743,"o":"m 11 -98 q -21 -42 -9 -72 q -33 57 -33 -11 q 6 301 -33 163 q 104 578 44 439 q 177 727 133 644 q 266 881 220 809 q 352 1003 311 954 q 415 1052 393 1052 q 465 1030 446 1052 q 483 976 483 1007 q 475 922 485 950 q 433 841 465 894 l 391 757 q 220 416 291 561 q 120 167 150 270 l 120 169 q 103 88 109 124 q 96 26 96 52 q 120 -28 96 -28 q 136 -26 126 -28 q 161 -20 146 -24 q 189 -12 174 -17 q 225 1 204 -7 q 279 22 246 9 q 363 56 311 35 q 518 112 457 94 q 620 130 578 130 q 708 100 676 130 q 743 28 741 70 q 720 -19 741 -4 q 663 -33 700 -33 q 645 -32 654 -33 q 628 -30 637 -31 q 602 -27 615 -28 q 574 -26 589 -26 q 515 -30 544 -26 q 451 -42 485 -33 q 375 -63 417 -50 q 281 -94 333 -76 l 250 -106 q 162 -134 191 -126 q 102 -143 133 -143 q 53 -131 72 -143 q 13 -100 33 -120 l 11 -98 z "},"M":{"ha":924,"x_min":-31,"x_max":980,"o":"m -4 24 q -15 25 -9 24 q -22 33 -20 26 q -31 59 -28 39 l -31 70 q -24 117 -31 83 q -3 195 -17 150 q 28 294 11 241 q 64 402 44 348 q 102 506 83 456 q 137 593 120 556 q 181 688 156 635 q 229 787 206 741 q 269 867 252 833 q 293 906 287 900 q 344 926 317 926 q 404 898 378 926 q 430 824 430 870 q 427 787 430 809 q 416 728 424 765 q 394 636 407 691 q 363 502 381 581 l 374 519 q 526 739 446 635 q 680 919 606 843 q 816 1039 754 994 q 917 1083 878 1083 q 961 1062 944 1083 q 978 1002 978 1041 q 944 850 980 952 q 826 569 909 748 q 676 206 726 344 q 626 -2 626 67 q 626 -29 626 -22 q 630 -35 626 -35 q 664 -23 648 -35 q 707 20 680 -11 l 707 19 q 744 46 726 46 q 766 40 765 46 q 761 17 767 33 q 756 2 759 11 q 748 -17 754 -7 l 750 -15 q 680 -98 719 -69 q 598 -128 641 -128 q 508 -77 539 -128 q 478 50 478 -26 q 498 204 476 117 q 562 394 520 291 q 664 618 604 498 q 800 869 724 737 l 854 965 q 721 844 793 920 q 577 670 650 769 q 432 456 504 572 q 300 213 361 339 q 281 177 289 191 q 265 156 272 163 q 248 145 257 148 q 224 143 239 143 q 169 174 189 143 q 148 283 150 206 q 170 461 146 337 q 165 448 167 454 q 161 437 163 443 q 115 313 139 383 q 69 181 91 243 q 27 69 44 113 q -4 24 9 24 m 213 628 q 211 634 213 637 q 213 622 209 631 l 213 628 z "},"N":{"ha":822,"x_min":-22,"x_max":1000,"o":"m 31 17 q 25 10 28 13 q 19 6 22 7 q 13 2 15 2 q -10 10 0 2 q -22 37 -20 19 q -15 91 -22 52 q 6 183 -7 130 q 38 301 20 237 q 74 431 56 365 q 127 620 102 531 q 163 757 152 709 q 185 849 176 815 q 206 902 194 883 q 231 925 217 920 q 269 930 246 930 q 308 924 291 930 q 341 894 326 919 q 368 819 356 869 q 391 680 380 769 q 416 507 402 593 q 444 351 430 422 q 469 228 457 280 q 485 156 480 176 q 489 189 483 167 q 589 540 537 381 q 694 811 641 698 q 804 986 748 924 q 915 1048 859 1048 q 972 1022 950 1048 q 996 952 994 996 q 990 919 1000 931 q 965 907 980 907 q 942 918 946 907 q 933 946 937 928 q 928 965 930 965 q 913 953 924 965 q 891 922 902 941 q 806 756 846 852 q 734 553 767 661 q 677 327 702 444 q 635 96 652 209 q 612 -25 624 20 q 586 -95 600 -70 q 556 -129 572 -120 q 520 -137 539 -137 q 488 -130 498 -137 q 469 -111 478 -122 l 446 -91 l 448 -93 q 401 -43 422 -78 q 360 58 380 -7 q 322 228 341 124 q 283 483 304 331 q 269 572 276 530 q 256 649 263 615 q 246 705 250 683 q 241 728 243 726 l 239 733 q 234 691 241 726 q 216 606 228 656 q 187 494 204 556 q 152 372 170 433 q 103 214 122 278 q 69 109 83 150 q 48 48 56 69 q 35 20 41 28 l 31 17 z "},"O":{"ha":952,"x_min":-28,"x_max":896,"o":"m 894 759 l 894 756 q 895 752 894 754 q 896 748 896 750 l 896 741 q 858 534 893 648 q 763 302 824 420 q 652 128 711 207 q 531 -11 593 48 q 410 -104 470 -70 q 298 -137 350 -137 q 160 -69 207 -137 q 117 122 113 0 q 139 259 119 183 q 191 412 159 335 q 263 562 222 489 q 346 692 304 635 q 432 782 389 748 q 513 817 476 817 q 562 796 544 817 q 580 752 580 776 q 559 706 580 735 q 504 643 539 678 q 391 506 441 578 q 305 367 341 435 q 248 234 269 298 q 226 119 228 170 q 233 33 222 65 q 269 2 244 2 q 357 43 307 2 q 458 151 407 83 q 559 304 509 219 q 648 478 609 389 q 712 650 687 567 q 739 798 737 733 q 712 915 743 881 q 611 948 681 948 q 435 911 530 948 q 257 817 341 874 q 116 690 174 759 q 48 556 57 620 q 71 504 50 528 q 126 474 93 480 q 148 467 141 470 q 159 448 156 463 q 145 427 156 439 q 98 415 135 415 q 7 456 41 415 q -28 561 -26 498 q 12 669 -22 613 q 98 780 46 726 q 218 882 150 833 q 359 969 285 931 q 509 1027 433 1006 q 656 1048 585 1048 q 832 973 769 1048 q 896 765 896 898 l 894 759 z "},"P":{"ha":1022,"x_min":-7,"x_max":1011,"o":"m 694 1039 q 929 967 846 1039 q 1006 774 1011 894 q 953 594 1002 689 q 822 414 904 498 q 634 269 741 330 q 411 191 528 207 l 413 191 q 377 147 394 187 q 344 56 359 107 q 320 -44 330 6 q 309 -119 311 -94 q 306 -152 309 -141 q 302 -168 304 -163 q 301 -173 300 -172 q 307 -174 302 -174 q 319 -169 311 -172 q 335 -161 326 -167 q 355 -153 344 -157 q 369 -148 365 -148 q 387 -156 385 -148 q 393 -176 389 -163 q 381 -206 393 -191 q 354 -232 370 -220 q 318 -252 337 -244 q 281 -259 298 -259 q 211 -219 239 -259 q 187 -94 183 -178 q 202 1 189 -54 q 232 114 215 56 q 269 231 250 172 q 307 343 289 291 q 399 568 359 472 q 471 725 439 663 q 532 817 504 787 q 593 846 561 846 q 642 826 622 846 q 657 759 661 806 q 655 731 657 744 q 645 700 652 719 q 625 653 639 681 q 589 580 611 624 q 537 481 563 530 q 491 391 511 431 q 458 324 470 350 q 446 294 446 298 l 474 306 q 601 399 537 339 q 717 529 665 459 q 802 667 769 598 q 837 781 835 735 q 822 835 839 811 q 778 875 806 859 q 713 899 750 891 q 635 907 676 907 q 519 894 581 907 q 396 856 457 880 q 279 798 335 831 q 179 727 222 765 q 108 646 135 689 q 80 563 81 604 q 88 527 78 543 q 113 500 98 511 q 145 481 128 489 q 178 469 163 474 q 208 457 196 461 q 220 435 220 454 q 206 409 220 419 q 167 400 191 400 q 99 414 131 400 q 44 452 67 428 q 6 507 20 476 q -6 572 -7 539 q 64 739 -2 656 q 231 889 130 822 q 454 997 331 956 q 694 1039 576 1039 z "},"Q":{"ha":961,"x_min":-37,"x_max":893,"o":"m 772 13 q 869 -38 846 -19 q 891 -81 891 -57 q 859 -144 893 -122 q 787 -167 826 -167 q 690 -125 746 -167 q 569 -6 633 -83 l 565 -11 q 442 -105 502 -72 q 326 -137 381 -137 q 185 -69 237 -137 q 133 128 133 0 q 150 267 133 191 q 194 420 167 343 q 256 571 220 498 q 332 702 293 644 q 413 794 372 759 q 493 828 454 828 q 544 808 524 828 q 563 763 563 789 q 548 721 563 743 q 494 654 533 700 q 303 374 367 515 q 241 124 239 233 q 255 38 243 69 q 291 7 267 7 q 321 18 302 7 q 363 46 341 28 q 408 88 385 65 q 454 137 431 111 q 456 141 456 139 q 461 146 457 143 l 450 169 q 433 204 437 189 q 428 228 430 219 q 441 259 428 248 q 465 270 454 270 q 492 257 478 270 q 519 231 506 244 l 526 220 q 554 281 539 250 q 580 339 567 307 q 606 400 593 370 q 693 616 663 517 q 720 796 722 715 q 687 924 719 887 q 580 961 656 961 q 402 924 496 961 q 227 830 307 887 q 93 702 146 772 q 41 565 39 631 q 63 508 41 530 q 122 483 85 487 q 157 457 157 478 q 156 448 157 454 q 150 437 156 443 q 131 427 144 431 q 96 422 119 422 q 2 462 39 422 q -37 567 -35 502 q -6 688 -37 628 q 76 804 24 748 q 195 906 128 859 q 336 987 263 952 q 482 1042 409 1022 q 620 1061 556 1061 q 812 978 748 1061 q 880 754 876 894 q 867 616 881 693 q 824 456 852 539 q 756 291 796 374 q 669 131 717 207 q 651 104 659 117 q 643 93 643 91 q 656 79 643 89 q 691 56 670 69 q 733 32 711 44 q 772 13 756 20 z "},"R":{"ha":1076,"x_min":-9,"x_max":1081,"o":"m 74 454 q 13 517 35 480 q -9 598 -9 554 q 26 716 -9 657 q 120 825 61 774 q 255 919 180 876 q 411 994 330 963 q 573 1044 493 1026 q 722 1061 654 1061 q 854 1044 794 1061 q 956 994 913 1026 q 1020 919 998 963 q 1043 824 1043 876 q 1001 691 1043 759 q 888 556 959 622 q 722 426 817 489 q 520 311 628 363 l 483 294 q 478 290 480 291 q 472 287 476 289 q 467 285 469 285 l 459 283 q 493 288 476 283 q 500 300 509 293 q 620 239 556 274 q 750 164 685 204 q 875 81 815 124 q 981 0 935 39 q 1055 -73 1028 -39 q 1081 -131 1081 -107 q 1062 -186 1081 -165 q 1017 -207 1043 -207 q 973 -194 996 -207 q 915 -148 950 -181 q 653 72 793 -26 q 383 226 513 170 l 357 237 l 341 231 q 326 230 331 231 l 289 222 l 265 220 q 256 201 259 209 q 248 183 254 193 q 205 74 220 119 q 189 2 189 30 q 183 -24 189 -22 q 209 -12 193 -22 q 244 11 226 -2 q 275 33 261 24 q 302 43 289 43 q 325 31 317 43 q 333 7 333 19 q 312 -39 333 -15 q 264 -83 291 -63 q 209 -117 237 -104 q 169 -130 181 -130 q 90 -94 122 -130 q 59 7 57 -57 q 111 207 59 80 l 128 248 q 112 263 119 254 q 106 283 106 272 q 156 356 104 324 l 176 363 l 235 481 q 305 638 274 570 q 359 755 335 706 q 403 836 383 804 q 439 887 422 869 q 297 830 365 865 q 179 755 230 794 q 97 671 128 715 q 67 587 67 628 q 69 561 67 569 q 74 544 70 554 q 93 520 78 535 q 122 491 107 506 q 138 473 131 480 q 144 459 144 467 q 117 435 144 435 q 74 454 98 435 m 656 922 q 537 911 594 922 q 564 884 554 902 q 576 846 574 867 q 572 810 576 826 q 557 769 569 794 q 526 706 546 744 q 470 607 506 669 q 424 526 448 565 q 379 456 400 487 q 343 407 357 426 q 322 387 328 389 q 326 386 324 387 q 330 385 328 385 q 425 406 369 385 q 543 463 481 428 q 664 544 604 498 q 772 637 724 589 q 850 733 820 685 q 880 822 880 781 q 863 862 880 844 q 816 894 846 880 q 744 915 785 907 q 656 922 704 922 m 333 383 q 330 385 331 383 q 333 383 330 383 z "},"S":{"ha":772,"x_min":-24,"x_max":961,"o":"m 85 770 q 225 881 141 828 q 402 977 309 935 q 588 1043 494 1019 q 757 1067 681 1067 q 911 1027 861 1067 q 946 922 961 987 q 931 882 943 904 q 904 842 919 861 q 873 809 889 822 q 846 796 857 796 q 817 830 817 796 q 823 846 817 835 q 839 870 830 857 l 837 870 q 854 897 846 885 q 861 913 861 909 q 809 948 867 948 q 708 931 770 948 q 578 888 646 915 q 439 826 509 861 q 310 752 369 791 q 213 673 252 713 q 169 600 174 633 q 168 559 163 580 q 197 513 172 539 q 274 454 222 487 q 415 374 326 420 q 513 317 472 343 q 578 264 554 291 q 610 207 602 237 q 611 141 619 178 q 557 39 600 91 q 452 -56 515 -13 q 313 -125 389 -98 q 163 -152 237 -152 q 35 -112 80 -152 q 2 0 -9 -72 q 19 45 6 19 q 52 96 33 72 q 90 138 70 120 q 122 156 109 156 q 157 128 163 156 q 148 104 154 113 q 137 85 143 94 q 119 57 128 74 q 106 26 109 41 q 123 0 106 11 q 178 -11 141 -11 q 281 5 226 -11 q 385 45 337 20 q 469 101 433 70 q 513 161 504 131 q 459 228 513 193 q 287 304 406 263 q 56 426 135 356 q -7 606 -24 496 q 23 689 2 650 q 85 770 44 728 z "},"T":{"ha":778,"x_min":-20,"x_max":1541,"o":"m 730 643 q 506 200 580 365 q 430 -48 433 35 q 467 -31 443 -46 q 517 11 491 -15 q 548 26 531 26 q 568 17 557 26 q 578 -7 578 7 q 558 -51 578 -28 q 512 -95 539 -74 q 456 -131 485 -117 q 404 -144 426 -144 q 335 -116 361 -144 q 306 -9 309 -87 q 315 90 306 39 q 351 217 324 141 q 429 405 378 293 q 563 689 480 517 q 606 776 589 743 q 632 829 622 809 q 646 856 643 848 q 650 867 650 863 q 606 858 631 863 q 551 847 580 854 q 496 835 522 841 q 452 824 470 830 q 176 721 272 776 q 78 609 80 667 q 193 496 78 544 q 237 450 243 478 q 193 415 235 415 q 111 435 150 415 q 43 486 72 456 q -4 554 13 517 q -19 624 -20 591 q 13 727 -17 681 q 102 819 43 772 q 317 925 198 881 q 568 996 435 969 q 843 1036 700 1024 q 1130 1048 985 1048 q 1328 1044 1248 1048 q 1455 1030 1407 1041 q 1521 998 1502 1019 q 1541 943 1541 978 q 1517 890 1539 911 q 1431 869 1494 869 q 1327 871 1370 869 q 1241 878 1283 874 q 1148 885 1198 881 q 1028 889 1098 889 l 1000 889 q 891 888 922 889 q 852 880 859 887 q 840 845 850 863 q 800 772 830 828 l 730 643 l 730 643 z "},"U":{"ha":1159,"x_min":-39,"x_max":1124,"o":"m 546 531 q 474 296 496 385 q 456 143 452 207 l 456 131 q 518 153 481 131 q 593 207 554 174 q 671 283 631 241 q 746 370 711 326 q 786 424 770 402 q 813 465 802 446 q 831 500 824 483 q 844 537 839 517 q 856 581 848 554 q 885 656 865 607 l 885 654 q 935 789 915 737 q 972 870 956 841 q 1006 911 989 900 q 1044 922 1022 922 q 1095 902 1070 922 q 1122 837 1120 881 q 1111 760 1124 807 q 1067 635 1098 713 q 989 421 1024 528 q 927 221 954 315 q 886 54 900 128 q 874 -65 872 -20 q 878 -94 876 -87 q 887 -102 880 -102 q 917 -91 902 -102 q 946 -70 931 -80 q 969 -53 959 -61 q 993 -44 980 -44 q 1024 -74 1019 -44 q 1005 -122 1024 -96 q 957 -169 985 -148 q 903 -203 930 -189 q 863 -217 876 -217 q 770 -165 806 -217 q 730 -20 735 -113 q 759 257 724 104 q 570 51 654 119 q 433 -17 487 -17 q 331 36 369 -17 q 287 172 293 89 q 290 265 285 219 q 310 370 294 311 q 353 506 326 430 q 422 691 380 583 l 422 689 q 481 856 463 804 q 498 930 500 909 q 452 959 498 959 q 364 944 411 959 q 270 901 317 928 q 181 839 224 874 q 106 765 139 804 q 56 687 74 726 q 39 613 37 648 q 50 574 43 589 q 80 539 57 559 q 123 508 87 530 q 189 469 159 487 q 219 451 206 459 q 235 433 233 443 q 236 409 241 413 q 202 406 231 406 q 122 423 163 406 q 47 469 81 441 q -10 535 13 498 q -35 611 -33 572 q 9 755 -39 678 q 131 898 57 831 q 295 1009 206 965 q 469 1054 385 1054 q 589 1010 548 1054 q 633 887 630 967 q 630 829 633 859 q 617 756 626 798 q 590 660 607 715 q 546 531 572 606 z "},"V":{"ha":717,"x_min":-19,"x_max":748,"o":"m 246 806 q 241 763 248 791 q 209 667 233 735 q 156 488 172 567 q 139 341 139 409 q 144 270 139 306 l 144 269 q 208 124 156 185 q 330 41 261 63 l 324 67 q 322 98 322 81 q 322 137 322 115 q 347 345 322 222 q 431 637 372 469 q 514 862 481 781 q 570 981 546 943 q 615 1029 594 1020 q 661 1037 635 1037 q 719 1013 698 1037 q 744 956 739 989 q 747 930 746 941 q 744 903 748 919 q 728 863 739 887 q 696 798 717 839 q 642 684 667 739 q 595 577 617 630 q 555 470 574 524 q 519 356 535 417 q 464 149 480 226 q 452 30 448 72 l 457 30 q 521 21 502 30 q 541 2 541 13 q 521 -15 541 -6 q 472 -31 502 -24 q 410 -44 443 -39 q 354 -50 378 -50 q 101 61 198 -30 q -13 296 4 152 q -19 387 -19 337 q -2 562 -19 472 q 41 726 15 652 q 95 847 67 800 q 150 894 124 894 q 212 869 181 894 q 246 806 243 843 z "},"W":{"ha":1085,"x_min":0,"x_max":1098,"o":"m 430 763 q 466 823 446 804 q 513 843 485 843 q 569 819 550 843 q 593 761 587 796 q 592 698 596 731 q 570 602 587 665 q 531 437 544 506 q 517 311 517 369 q 518 270 517 293 q 522 228 519 248 q 580 94 531 152 q 693 11 628 37 l 693 17 q 690 46 691 30 q 689 81 689 63 q 736 374 689 185 q 869 813 783 563 q 918 937 896 891 q 956 1006 939 983 q 990 1036 974 1030 q 1020 1043 1006 1043 q 1066 1024 1043 1043 q 1094 969 1089 1006 q 1094 915 1098 946 q 1079 857 1091 898 q 1033 726 1067 817 q 899 308 946 489 q 839 -4 852 128 q 843 -13 843 -7 q 834 -62 844 -44 q 809 -86 824 -80 q 776 -94 794 -93 q 744 -93 757 -94 q 739 -92 741 -93 q 733 -91 737 -91 q 606 -60 667 -91 q 498 21 546 -30 q 418 139 450 72 q 374 278 385 206 l 370 302 q 251 126 306 178 q 150 74 196 74 q 56 122 93 74 q 6 244 19 170 q 1 281 2 261 q 0 322 0 302 q 17 485 0 402 q 59 636 33 569 q 115 746 85 704 q 170 789 144 789 q 223 769 196 789 q 254 722 250 748 q 251 675 256 704 q 235 611 246 646 q 185 426 204 511 q 167 278 167 341 q 168 250 167 263 q 170 222 169 237 q 167 211 172 211 q 199 228 178 211 q 248 270 220 244 q 313 357 287 309 q 356 456 339 406 q 385 556 374 507 q 404 648 396 606 q 415 710 409 680 q 430 763 420 741 m 828 4 q 833 2 831 4 q 839 -2 835 0 q 828 4 835 4 z "},"X":{"ha":833,"x_min":-20,"x_max":1063,"o":"m 487 806 q 481 763 489 791 q 450 667 474 735 q 443 645 446 656 q 435 624 439 635 q 589 744 511 689 q 738 842 667 800 q 869 906 809 883 q 969 930 930 930 q 989 927 978 930 q 1009 920 1000 924 q 1043 892 1028 911 q 1059 850 1057 872 q 1038 773 1063 807 q 978 739 1013 739 q 956 744 967 739 l 946 744 q 880 723 924 744 q 781 669 835 702 q 671 596 728 635 q 570 522 615 557 q 519 479 546 502 q 466 432 491 456 q 419 389 441 409 q 383 356 396 369 l 380 352 l 380 341 q 385 270 380 306 l 385 269 q 411 187 393 226 q 456 118 430 148 q 517 66 483 87 q 587 37 550 44 q 594 36 591 37 q 600 35 596 35 l 681 30 l 698 30 q 762 21 743 30 q 781 2 781 13 q 762 -15 781 -6 q 713 -31 743 -24 q 651 -44 683 -39 q 594 -50 619 -50 q 378 32 467 -31 q 248 202 289 96 l 209 152 q 138 19 161 81 q 119 -78 115 -43 q 150 -133 122 -119 q 202 -157 178 -148 q 242 -174 226 -167 q 259 -202 257 -181 q 243 -238 263 -226 q 194 -250 222 -250 q 65 -199 119 -250 q -2 -56 11 -148 q 213 413 -20 141 l 220 420 q 243 586 224 502 q 286 739 261 670 q 339 851 311 807 q 391 894 367 894 q 453 869 422 894 q 487 806 483 843 z "},"Y":{"ha":578,"x_min":-91,"x_max":796,"o":"m 122 -219 q 102 -141 107 -187 q 98 -108 98 -126 q 98 -74 98 -91 q 106 34 98 -22 q 135 150 115 91 l 135 148 l 146 191 l 139 198 q 117 270 122 226 q 112 320 113 291 q 107 383 111 350 q 100 472 104 426 q 93 561 96 519 q 45 767 72 689 q -2 848 19 844 q -5 842 0 846 q -13 833 -9 837 q -30 812 -20 822 q -54 802 -39 802 q -73 809 -63 802 q -87 831 -83 817 q -83 869 -91 850 q -63 903 -76 887 q -33 929 -50 919 q 0 939 -17 939 q 76 905 39 939 q 146 809 113 870 q 206 662 180 748 q 250 472 233 576 l 252 456 q 354 648 294 546 q 471 839 413 750 q 580 993 530 928 q 656 1072 630 1057 q 702 1081 674 1081 q 763 1057 737 1081 q 793 1006 789 1033 q 794 1000 793 1002 q 794 994 794 998 l 794 998 q 796 982 796 989 q 791 966 796 976 q 772 938 785 956 q 735 889 759 920 l 711 857 q 506 561 602 715 q 342 265 411 407 q 236 2 272 122 q 207 -193 200 -119 q 222 -221 209 -209 q 256 -233 235 -233 q 269 -231 263 -233 q 276 -231 272 -231 q 283 -230 280 -230 q 309 -239 300 -230 q 319 -257 319 -248 l 319 -254 q 304 -288 322 -269 q 243 -307 285 -307 q 171 -284 202 -307 q 122 -219 141 -261 z "},"Z":{"ha":774,"x_min":-30,"x_max":980,"o":"m 39 241 q 110 316 67 272 q 231 430 154 359 l 274 469 l 259 469 q 221 465 239 467 q 198 463 204 463 q 167 474 174 463 q 159 494 159 485 q 330 554 159 539 l 344 554 q 363 556 356 554 q 379 562 370 557 q 398 577 387 567 q 430 606 409 587 l 470 644 q 567 736 520 691 q 649 818 613 781 q 706 877 685 854 q 728 904 728 900 q 714 907 728 906 q 677 910 700 909 q 625 912 654 911 q 569 913 596 913 q 383 893 470 913 q 232 841 296 872 q 131 771 169 809 q 93 696 93 733 q 97 680 93 691 q 109 656 102 669 q 123 634 117 644 q 135 619 130 624 l 137 615 q 141 596 144 607 q 130 580 137 581 q 115 578 122 578 q 84 590 102 578 q 50 622 67 602 q 21 669 33 643 q 9 724 9 696 q 61 837 15 780 q 192 942 107 894 q 395 1019 276 989 q 665 1048 515 1048 q 820 1018 774 1048 q 867 909 867 987 q 854 852 867 881 q 812 784 841 822 q 736 699 783 746 q 620 589 689 652 l 600 570 l 602 570 l 585 554 q 645 523 628 544 q 661 476 663 502 q 619 424 659 424 q 591 435 606 424 q 562 448 581 441 q 491 461 543 456 q 481 463 483 461 l 441 426 q 367 356 407 394 q 290 281 326 317 q 227 217 254 244 q 191 178 200 189 q 247 175 215 178 q 314 167 280 172 q 381 151 348 161 q 439 128 413 141 q 471 106 454 119 q 512 79 489 94 q 566 41 535 63 q 639 -13 596 19 q 765 -93 717 -67 q 859 -119 813 -119 l 893 -119 q 902 -110 896 -115 q 913 -102 907 -106 q 937 -87 924 -93 q 954 -81 950 -81 q 974 -92 970 -81 q 980 -124 978 -102 q 966 -167 980 -146 q 930 -202 952 -187 q 878 -225 907 -217 q 819 -233 848 -233 q 720 -221 767 -233 q 626 -186 674 -209 q 526 -128 578 -163 q 413 -44 474 -93 q 321 20 357 -4 q 261 56 285 44 q 219 71 237 69 q 181 74 202 74 l 157 74 q 126 62 144 74 q 94 41 107 50 q 61 19 80 30 q 24 7 43 7 q -9 33 9 7 q -30 96 -28 59 q -11 163 -28 122 q 39 241 6 204 z "},"a":{"ha":676,"x_min":-20,"x_max":746,"o":"m 428 -85 q 411 -83 415 -85 q 339 -35 370 -74 q 300 63 307 4 q 296 91 296 74 q 296 124 296 107 l 296 148 q 192 36 243 74 q 106 -2 141 -2 q 27 34 61 -2 q -17 135 -7 70 q -19 164 -19 150 q -20 193 -20 178 q 10 357 -20 278 q 86 498 41 437 q 183 595 131 559 q 276 631 235 631 q 348 613 313 631 q 412 562 383 594 q 460 486 441 530 q 487 393 480 443 q 481 329 491 352 q 443 293 472 306 l 437 257 q 426 169 430 209 q 426 96 422 128 q 437 37 435 37 q 503 74 461 37 q 587 167 544 111 q 615 215 600 187 q 643 265 630 243 q 685 335 663 304 q 722 367 707 367 q 746 343 739 367 q 739 307 746 333 q 711 243 731 281 q 552 -6 624 74 q 428 -85 480 -85 m 315 313 l 326 330 l 341 348 q 338 356 339 350 q 337 363 337 361 l 328 385 l 330 381 q 305 437 315 413 q 287 461 294 461 q 224 419 257 461 q 162 318 191 376 q 114 199 133 259 q 94 102 94 139 q 100 93 98 93 q 168 142 117 93 q 278 263 219 191 l 315 313 z "},"b":{"ha":648,"x_min":-70,"x_max":707,"o":"m 706 335 q 697 307 707 326 q 671 268 687 289 q 636 226 656 246 q 600 193 617 206 q 548 159 576 174 q 496 135 520 144 l 494 135 q 483 131 487 133 q 472 130 480 130 q 458 111 467 120 q 443 93 450 102 q 341 -7 389 24 q 244 -39 293 -39 q 168 -19 206 -39 q 107 37 130 2 q 81 -39 93 0 q 59 -115 69 -78 q 29 -198 44 -163 q -7 -233 13 -233 q -67 -143 -52 -233 q -69 -114 -69 -130 q -70 -81 -70 -98 q -43 149 -69 24 q 28 406 -17 274 q 133 671 72 537 q 269 928 194 806 q 311 998 294 972 q 342 1037 328 1024 q 368 1054 356 1050 q 396 1057 380 1057 q 456 1037 433 1057 q 487 981 480 1017 q 489 959 489 969 q 484 937 489 950 q 468 906 480 924 q 437 859 456 889 l 426 839 l 426 841 q 293 607 346 713 q 194 393 239 502 q 336 570 267 507 q 461 633 406 633 q 544 599 506 633 q 591 500 581 565 q 546 265 602 406 l 557 270 l 556 270 q 606 305 581 283 q 644 341 630 326 q 659 355 650 348 q 672 361 669 361 q 692 354 681 361 q 706 335 702 346 m 298 120 q 296 119 296 120 q 294 119 296 119 q 268 120 289 119 q 222 123 246 122 q 179 126 198 124 q 157 128 159 128 l 139 109 q 161 77 146 91 q 195 60 176 63 q 241 69 215 57 q 296 113 267 80 q 294 119 302 119 l 298 120 m 341 230 q 379 299 361 261 q 408 373 396 337 q 428 443 420 409 q 433 498 435 476 q 324 411 387 487 q 204 230 261 335 l 198 222 q 204 221 202 222 q 207 220 206 220 q 258 212 233 215 q 302 207 283 209 l 313 207 q 325 210 322 207 q 341 231 328 213 l 341 230 m 443 500 q 433 502 435 500 l 433 498 q 439 499 437 498 q 443 500 441 500 m 433 507 l 433 502 l 433 507 z "},"c":{"ha":446,"x_min":-20,"x_max":517,"o":"m 209 356 q 216 393 207 369 q 237 443 224 417 q 247 472 243 457 q 256 496 252 487 q 182 450 217 489 q 124 360 148 411 q 87 256 100 309 q 78 165 74 202 q 104 100 83 122 q 150 78 124 78 q 208 96 174 78 q 281 146 243 115 q 361 222 320 178 q 441 319 402 267 q 471 354 461 343 q 493 365 481 365 q 517 341 507 365 q 509 317 517 331 q 465 250 502 302 q 292 64 370 122 q 141 6 213 6 q 43 56 83 6 q -9 181 2 107 q 3 334 -20 256 q 69 477 26 413 q 169 582 113 541 q 281 624 226 624 q 369 591 333 624 q 415 507 406 557 q 408 432 420 470 q 375 364 396 394 q 329 314 354 333 q 283 294 304 294 q 235 310 256 294 q 209 354 215 326 l 209 356 z "},"d":{"ha":689,"x_min":-43,"x_max":841,"o":"m 320 187 q 85 -28 161 -28 q 1 9 31 -28 q -39 100 -30 46 q -33 190 -43 137 q -5 300 -24 243 q 44 414 15 357 q 111 516 74 470 q 192 590 148 561 q 283 619 235 619 q 331 609 309 619 q 370 586 352 600 q 403 556 389 572 q 426 528 417 541 q 506 709 461 613 q 598 885 552 806 q 686 1018 644 965 q 756 1070 728 1070 q 810 1049 785 1070 q 839 996 835 1028 q 839 975 841 985 q 831 947 837 965 q 809 904 824 930 q 770 837 794 878 q 648 601 706 726 q 545 362 591 476 q 471 155 500 248 q 437 11 443 61 q 470 38 452 20 q 507 76 489 56 q 584 171 550 126 q 646 257 619 217 q 706 338 680 306 q 748 367 733 370 q 763 350 763 363 q 757 335 763 348 q 744 303 752 322 q 723 262 735 283 q 698 224 711 241 l 700 226 q 526 -20 606 61 q 409 -102 446 -102 q 344 -71 369 -102 q 309 7 319 -41 q 320 185 302 78 l 320 187 m 341 344 q 354 407 354 383 q 334 444 354 439 q 296 448 315 448 l 287 448 q 272 437 287 443 l 274 439 q 206 370 239 415 q 147 276 172 326 q 108 176 122 226 q 98 89 94 126 l 98 85 q 149 105 122 85 q 205 157 176 124 q 265 235 233 191 q 330 330 296 280 l 341 344 m 344 350 l 341 344 l 344 350 z "},"e":{"ha":469,"x_min":-13,"x_max":498,"o":"m 30 391 q 91 494 54 446 q 169 574 128 541 q 248 626 209 607 q 315 644 287 644 q 389 617 356 644 q 428 541 422 589 q 412 443 433 498 q 355 336 391 387 q 271 250 319 285 q 174 215 224 215 q 126 220 143 215 q 85 244 109 226 q 81 248 81 246 q 80 252 81 250 l 78 254 q 72 223 76 254 q 76 144 69 193 q 98 94 81 107 q 133 81 115 81 q 241 130 176 81 q 304 180 265 146 q 381 246 343 213 q 445 305 419 280 q 472 330 472 330 l 498 344 q 476 291 498 324 q 386 165 433 220 q 294 69 339 109 q 208 6 250 28 q 135 -15 167 -15 q 38 31 76 -15 q -9 141 0 76 q -12 167 -11 154 q -13 194 -13 180 q -2 295 -13 243 q 30 391 9 348 m 159 346 q 189 365 169 346 q 231 410 209 383 q 269 468 252 437 q 289 522 285 498 q 211 469 254 511 q 141 376 169 428 l 141 378 l 133 365 l 141 357 q 159 346 154 346 m 294 524 q 297 525 296 524 q 300 526 298 526 q 289 530 291 526 l 289 522 q 293 523 291 522 q 298 524 294 524 l 294 524 m 289 535 l 289 531 l 289 535 z "},"f":{"ha":444,"x_min":-98,"x_max":687,"o":"m 465 344 q 439 319 465 330 q 376 299 413 307 q 297 286 339 291 q 222 281 256 281 l 193 135 q 169 -11 178 70 q 150 -181 159 -93 q 128 -314 144 -269 q 70 -359 111 -359 q 11 -327 33 -359 q -20 -237 -11 -294 q -8 -69 -28 -183 q 61 213 11 44 l 83 281 l 83 285 q 85 289 83 287 l 59 289 q -55 309 -19 293 q -94 361 -91 326 q -76 411 -98 387 q 13 435 -54 435 q 72 426 44 435 q 124 394 100 417 q 234 655 178 537 q 348 856 291 772 q 464 985 406 939 q 578 1031 522 1031 q 651 1004 620 1031 q 685 939 681 976 q 682 899 687 920 q 669 860 678 878 q 651 831 661 843 q 631 819 641 819 q 611 827 617 819 q 602 846 606 835 q 602 862 602 852 q 604 881 602 872 q 604 917 607 906 q 596 933 600 933 q 513 884 557 933 q 423 755 469 835 q 333 571 378 674 q 250 363 289 469 q 263 365 256 365 q 344 370 302 365 q 381 373 359 372 q 402 376 404 374 q 453 366 441 376 q 465 344 465 356 m 20 369 l 19 370 q 14 371 15 372 q 11 370 13 370 q -12 355 -19 365 q 16 335 -6 344 q 61 319 37 326 q 91 313 85 313 q 97 329 98 322 q 93 337 96 335 q 62 353 87 341 q 24 369 37 365 l 20 369 z "},"g":{"ha":620,"x_min":-113,"x_max":700,"o":"m 385 19 q 290 -163 341 -80 q 186 -307 239 -246 q 82 -404 133 -369 q -13 -439 31 -439 q -81 -410 -63 -439 q -106 -339 -100 -381 q -84 -235 -113 -291 q -8 -131 -56 -180 q 95 -47 39 -81 q 202 -7 152 -13 l 211 -6 l 243 54 l 254 72 l 256 74 l 278 124 q 180 43 222 70 q 100 15 137 15 q 25 46 57 15 q -20 159 -7 78 q -8 299 -30 222 q 58 444 13 376 q 169 557 104 511 q 311 604 233 604 q 440 554 389 604 q 502 420 491 504 q 501 352 507 381 q 483 301 494 322 q 458 268 472 280 q 433 256 444 256 l 431 243 q 422 204 430 233 q 407 143 415 174 q 400 128 404 133 q 393 113 396 122 q 396 117 393 113 q 553 234 489 170 q 641 361 617 298 l 639 361 q 672 391 646 391 q 689 382 678 391 q 700 363 700 374 l 700 352 q 657 266 689 311 q 583 177 626 220 q 494 96 541 133 q 407 33 446 59 l 385 19 m 111 122 q 179 148 133 122 q 263 211 224 174 q 285 237 270 222 l 283 237 l 322 278 l 361 322 l 359 315 q 367 348 365 331 q 369 380 369 365 q 354 440 369 422 q 335 457 339 457 q 256 422 298 457 q 179 336 213 387 q 124 230 144 285 q 109 133 104 174 l 109 135 q 110 130 109 131 q 111 126 111 128 l 111 122 m 7 -293 q 72 -219 30 -274 q 157 -93 115 -163 q 110 -129 135 -106 q 63 -180 85 -152 q 25 -238 41 -207 q 7 -293 9 -269 z "},"h":{"ha":631,"x_min":-94,"x_max":706,"o":"m 620 309 q 681 370 654 370 q 694 363 685 370 q 706 350 702 356 q 696 315 706 337 q 671 267 687 293 q 635 213 656 241 q 594 161 615 185 l 594 163 q 478 50 531 87 q 387 13 424 13 q 316 44 346 13 q 276 130 285 74 q 275 197 272 163 q 287 270 278 231 q 314 356 296 309 q 356 461 331 402 q 364 480 359 470 q 372 496 369 489 q 243 336 324 463 q 65 9 161 209 q 11 -84 33 -56 q -28 -113 -11 -113 q -68 -98 -50 -113 q -89 -56 -85 -83 q -77 57 -94 -19 q -22 257 -59 133 q 86 574 28 424 q 201 838 144 724 q 306 1019 257 952 q 383 1085 354 1085 q 438 1062 411 1085 q 472 1007 465 1039 q 465 959 476 985 q 426 885 454 933 q 278 613 341 743 q 156 343 215 483 q 235 460 194 406 q 313 555 276 515 q 383 617 350 594 q 443 639 417 639 q 507 610 481 639 q 541 535 533 581 q 531 451 544 502 q 483 311 519 400 q 443 200 457 246 q 424 130 428 154 q 473 156 446 137 q 527 199 500 174 q 579 253 554 224 q 622 309 604 281 l 620 309 z "},"i":{"ha":370,"x_min":-80,"x_max":433,"o":"m 196 348 q 106 148 133 220 q 74 50 78 76 q 315 256 144 63 q 380 326 359 307 q 417 341 400 344 q 431 326 431 337 q 414 284 433 317 q 364 210 394 252 q 294 123 333 169 q 220 41 256 78 q 120 -48 159 -24 q 39 -72 81 -72 q -31 -38 -6 -72 q -67 48 -57 -4 q 48 433 -80 170 q 98 534 78 496 q 133 593 119 572 q 161 620 148 613 q 191 628 174 628 q 244 608 222 628 q 270 557 265 589 q 265 500 272 530 q 247 454 261 483 q 196 348 233 424 m 391 789 q 391 769 393 778 q 369 731 387 748 q 326 696 352 715 q 299 673 307 683 q 287 656 291 663 q 276 640 281 644 q 252 635 270 635 q 219 657 233 635 q 202 704 206 680 q 207 758 198 731 q 233 806 217 785 q 271 840 250 828 q 313 852 293 852 q 366 831 344 852 q 391 789 387 811 z "},"j":{"ha":265,"x_min":-604,"x_max":350,"o":"m 74 635 q 42 656 54 635 q 26 702 30 678 q 32 757 22 730 q 59 806 43 785 q 96 839 76 826 q 135 852 117 852 q 188 831 167 852 q 213 787 209 809 q 203 743 217 763 q 150 696 189 722 q 125 676 131 685 q 113 657 119 667 q 80 635 100 635 l 74 635 m 26 -56 q -94 -344 -41 -226 q -198 -536 -148 -463 q -300 -643 -248 -609 q -419 -676 -352 -676 q -536 -627 -489 -676 q -594 -507 -583 -578 q -581 -380 -604 -444 q -498 -248 -557 -315 q -339 -113 -439 -181 q -94 26 -239 -44 q -83 33 -91 30 q -70 41 -76 37 l -54 93 q 6 413 6 291 q 6 436 6 424 q 4 459 6 448 l 0 459 q -20 452 -9 456 q -39 448 -31 448 q -79 461 -61 448 q -100 504 -96 474 q -94 541 -104 520 q -65 580 -83 561 q -21 610 -46 598 q 31 622 4 622 q 112 587 78 622 q 156 496 146 552 q 156 428 159 465 q 144 344 154 391 q 135 299 141 324 q 122 246 130 274 q 107 193 115 219 q 94 144 100 167 q 196 234 152 187 q 269 324 241 281 q 296 364 289 359 q 320 369 304 369 q 339 367 331 369 q 348 350 346 365 q 330 293 350 328 q 273 216 309 257 q 189 129 237 174 q 87 44 141 83 q 75 36 89 46 q 56 19 61 26 l 26 -54 l 26 -56 m -385 -498 q -289 -413 -341 -472 q -194 -267 -237 -354 q -174 -227 -185 -250 q -151 -179 -163 -204 q -129 -130 -139 -154 q -111 -89 -119 -106 q -276 -203 -211 -148 q -378 -306 -341 -257 q -427 -401 -415 -356 q -433 -489 -439 -446 q -420 -509 -431 -509 q -385 -498 -411 -509 z "},"k":{"ha":498,"x_min":-87,"x_max":559,"o":"m 444 96 q 313 2 383 11 q 236 33 270 2 q 194 128 202 65 q 194 176 191 144 q 200 237 196 207 q 203 261 202 246 q 204 280 204 276 q 179 287 196 283 q 146 291 161 291 q 143 292 144 291 q 139 293 141 293 q 131 289 135 294 q 111 248 126 283 q 46 79 69 154 q 13 -41 24 4 q -6 -102 4 -80 q -37 -124 -17 -124 q -64 -112 -46 -124 q -83 -80 -81 -100 q -86 -52 -85 -65 q -87 -24 -87 -39 q -56 169 -87 65 q 13 374 -24 274 q 106 610 54 487 q 213 836 159 733 q 314 1006 267 939 q 393 1072 361 1072 q 450 1055 422 1072 q 485 1000 478 1037 q 477 950 487 980 q 430 867 467 920 q 395 810 420 850 q 340 719 370 770 q 277 613 309 669 q 218 511 244 557 q 174 434 191 465 q 159 404 157 404 q 174 408 161 404 q 205 419 187 413 q 241 435 222 426 q 272 452 259 444 q 450 607 407 520 q 466 631 459 624 q 487 637 472 637 q 509 628 500 637 q 522 606 519 619 q 496 541 526 581 q 419 459 467 500 l 420 459 q 394 440 411 452 q 356 414 378 428 q 313 386 335 400 q 272 361 291 372 q 343 259 331 331 q 343 215 346 244 q 335 154 339 185 q 330 106 330 120 q 367 127 346 109 q 408 170 387 144 q 448 228 430 196 q 481 293 467 259 q 537 374 513 374 q 553 369 546 374 q 559 350 559 363 q 549 306 559 337 q 522 237 539 274 q 484 161 506 200 q 444 96 463 122 z "},"l":{"ha":348,"x_min":-35,"x_max":476,"o":"m 119 180 q 100 98 107 137 q 89 29 93 59 q 83 -20 85 -2 q 80 -41 81 -39 q 119 -7 93 -39 q 178 68 146 24 q 244 162 209 111 q 311 256 280 213 q 367 329 343 300 q 402 357 391 357 q 411 346 411 357 q 401 306 411 331 q 370 239 391 281 q 299 102 339 170 q 218 -21 259 33 q 138 -110 176 -76 q 70 -144 100 -144 q 29 -133 41 -144 q -2 -98 17 -122 q -19 -59 -13 -81 q -30 -16 -26 -37 q -34 23 -33 6 q -35 48 -35 41 q -11 253 -35 135 q 56 499 13 370 q 161 756 100 628 q 296 994 222 885 q 344 1054 326 1039 q 393 1069 363 1069 q 450 1041 424 1069 q 476 980 476 1013 q 465 943 476 963 q 422 874 454 922 l 424 874 q 318 683 363 772 q 236 511 272 594 q 172 346 200 428 q 119 178 144 265 l 119 180 z "},"m":{"ha":841,"x_min":-69,"x_max":911,"o":"m 389 583 q 441 559 417 583 q 470 504 465 535 q 462 444 474 483 q 424 335 450 406 q 521 435 472 396 q 604 474 570 474 q 661 451 637 474 q 694 380 685 428 q 693 320 698 354 q 667 230 687 287 l 669 230 q 636 122 644 157 q 628 72 628 87 q 671 92 646 72 q 724 144 696 111 q 780 217 752 176 q 830 302 807 257 l 830 300 q 852 344 843 330 q 868 367 861 359 q 880 374 874 374 q 889 372 885 374 q 911 350 911 369 q 895 306 911 337 q 854 233 880 274 q 795 149 828 193 q 731 69 763 106 q 667 8 698 31 q 613 -15 635 -15 q 546 17 572 -15 q 511 102 520 48 q 514 194 506 141 q 543 324 522 246 q 548 350 548 350 q 518 326 533 341 q 487 298 502 311 q 417 216 446 259 q 365 135 387 172 l 367 135 q 322 73 341 98 q 283 48 304 48 q 241 69 261 48 q 215 128 220 91 q 211 156 211 141 q 211 181 211 170 q 223 261 211 224 q 265 361 235 298 l 267 367 q 209 288 239 333 q 155 195 180 243 q 108 103 130 148 q 76 24 87 57 q 49 -30 61 -17 q 17 -43 37 -43 q -32 -15 -9 -43 q -63 56 -56 13 q -53 160 -69 94 q -6 303 -37 226 q 66 460 24 380 q 154 607 107 541 q 194 646 174 635 q 233 657 213 657 q 285 638 265 657 q 309 591 306 619 q 306 556 313 574 q 276 500 300 539 q 376 583 343 578 l 389 583 z "},"n":{"ha":580,"x_min":-67,"x_max":652,"o":"m 457 156 q 507 206 480 172 q 552 259 535 239 q 561 271 556 265 q 576 298 567 278 q 589 326 585 311 q 598 352 593 341 q 612 368 604 363 q 639 367 620 372 q 652 352 652 363 q 644 326 652 346 q 621 279 635 306 q 590 223 607 252 q 557 170 572 194 q 458 64 511 106 q 363 22 406 22 q 290 52 315 22 q 256 130 265 81 q 254 183 252 156 q 265 244 256 211 q 292 322 274 278 q 337 426 309 367 q 342 436 341 433 q 344 443 343 439 q 346 451 344 444 q 350 461 348 457 q 299 421 328 450 q 240 355 270 393 q 178 270 209 317 q 120 176 146 224 q 84 107 94 135 q 69 59 74 80 q 51 18 59 30 q 13 6 43 6 q -34 30 -13 6 q -59 83 -56 54 q -43 202 -67 131 q 35 400 -19 272 q 124 585 89 522 q 196 648 159 648 q 248 629 228 648 q 272 578 269 609 q 274 557 274 567 q 270 536 274 548 q 257 506 267 524 q 231 457 248 487 q 228 450 228 450 q 280 498 252 474 q 332 541 307 522 q 379 571 357 559 q 415 585 400 583 q 475 563 446 585 q 511 496 504 541 q 499 410 515 461 q 443 270 483 359 q 394 159 407 193 q 383 113 381 126 q 418 129 396 117 q 457 156 439 141 z "},"o":{"ha":435,"x_min":-76,"x_max":491,"o":"m 165 46 q 114 23 143 31 q 59 15 85 15 q -39 65 -2 15 q -76 178 -76 115 q -71 229 -76 194 q -57 298 -67 263 q -35 359 -48 333 q -7 383 -22 385 q 18 465 -7 419 q 81 552 43 511 q 166 620 119 593 q 259 648 213 648 q 361 600 324 648 q 398 481 398 552 q 391 409 398 448 q 367 326 383 370 l 369 328 q 360 309 365 317 q 356 298 356 302 q 388 317 370 306 q 420 339 406 328 q 457 365 439 352 q 482 355 474 365 q 491 337 491 344 q 473 308 489 326 q 434 274 457 291 q 385 242 411 257 q 339 219 359 226 q 304 191 324 213 q 260 143 283 169 q 213 90 237 117 q 165 46 189 63 m 74 430 q 61 376 61 396 q 65 361 61 367 l 72 331 q 108 288 81 309 q 163 267 135 267 q 170 285 163 276 q 202 354 187 319 q 228 421 217 389 q 245 481 239 454 q 252 526 252 509 q 228 556 252 556 q 138 519 183 556 q 74 431 93 481 l 74 430 m 26 124 l 28 124 q 30 122 28 122 q 51 132 35 122 q 84 156 67 143 q 115 185 102 170 q 128 209 128 200 q 81 223 107 213 q 35 254 56 233 q 15 180 15 222 q 16 169 15 174 q 17 161 17 165 l 17 163 l 26 128 l 26 124 z "},"p":{"ha":576,"x_min":-237,"x_max":650,"o":"m 124 478 q 135 465 131 470 q 139 450 139 459 l 135 435 q 261 583 198 524 q 367 643 324 643 q 444 604 411 643 q 487 506 478 565 q 433 265 500 406 l 433 267 l 431 259 q 477 275 452 265 q 524 297 502 285 q 565 323 546 309 q 589 350 583 337 q 615 372 596 372 q 643 350 639 372 q 596 257 650 302 q 456 189 543 213 l 456 191 q 430 181 437 183 q 417 180 422 180 q 394 172 404 176 q 370 150 385 169 q 152 4 272 4 q 75 19 107 4 q 19 65 43 35 q 5 1 13 50 q -14 -117 -4 -48 q -34 -269 -24 -185 q -54 -435 -44 -352 q -80 -569 -63 -520 q -144 -619 -96 -619 q -204 -586 -181 -619 q -233 -502 -226 -554 q -235 -443 -237 -476 q -219 -337 -233 -409 q -175 -160 -202 -254 q -117 25 -148 -67 q -51 201 -85 117 q 13 350 -17 285 q 65 453 43 415 q 96 491 87 491 q 110 487 106 491 q 122 480 115 483 l 124 478 m 165 343 q 119 279 143 309 q 100 244 96 248 l 106 244 q 147 241 122 243 q 198 239 172 239 l 228 239 q 239 257 233 248 q 250 274 244 267 l 250 272 q 287 342 270 306 q 315 412 304 378 q 332 476 326 446 q 341 524 339 506 q 303 505 324 520 q 258 464 281 489 q 211 407 235 439 q 165 343 187 376 m 344 526 q 341 528 341 528 l 341 524 q 343 525 343 524 q 344 526 343 526 m 220 176 q 219 175 219 176 q 217 174 219 174 q 190 176 211 174 q 144 179 169 178 q 101 181 120 180 q 80 183 81 183 l 61 165 q 83 132 69 146 q 118 116 98 119 q 163 124 137 113 q 219 169 189 135 q 217 174 224 174 l 220 176 z "},"q":{"ha":635,"x_min":-35,"x_max":711,"o":"m 643 343 q 657 365 646 357 q 680 372 669 372 q 697 366 687 372 q 707 344 707 359 l 707 350 q 700 310 711 335 q 659 233 689 285 q 504 22 583 109 q 346 -102 424 -65 q 339 -106 343 -106 q 361 -157 356 -135 q 372 -222 367 -180 q 375 -250 374 -235 q 376 -280 376 -265 q 358 -420 376 -348 q 312 -551 341 -493 q 247 -647 283 -609 q 174 -685 211 -685 q 96 -655 128 -685 q 52 -537 65 -624 q 81 -297 39 -443 q 224 59 122 -152 q 153 11 187 28 q 93 -6 119 -6 q 16 31 48 -6 q -26 130 -17 67 q -10 281 -35 198 q 63 437 15 365 q 176 558 111 509 q 313 607 241 607 q 442 549 391 607 q 507 404 493 491 l 507 406 q 498 298 517 352 q 479 265 489 272 q 456 252 469 257 q 440 244 446 248 q 426 219 433 239 q 402 161 417 194 q 370 93 387 128 q 342 32 356 61 q 320 -7 328 4 q 402 44 352 2 q 501 140 452 85 q 590 250 550 194 q 644 343 630 306 l 643 343 m 135 106 q 165 123 150 113 q 197 150 180 133 q 238 191 215 167 q 294 252 261 215 l 354 317 l 346 365 q 333 432 339 413 q 319 452 328 452 q 236 415 280 452 q 158 325 193 378 q 104 212 124 272 q 89 107 83 152 l 89 109 q 96 94 91 94 q 135 106 109 94 m 285 -274 q 288 -241 289 -259 q 283 -204 287 -222 q 278 -148 278 -170 l 270 -174 q 231 -335 246 -252 q 209 -472 215 -419 q 259 -372 243 -424 q 285 -274 276 -320 m 193 -498 l 178 -519 l 209 -530 l 209 -509 l 209 -472 l 193 -498 m 283 -139 q 283 -131 285 -133 q 280 -130 281 -130 q 278 -148 278 -130 q 283 -139 280 -143 z "},"r":{"ha":663,"x_min":-46,"x_max":689,"o":"m 667 624 q 687 604 683 617 q 662 558 689 587 q 598 502 635 530 q 521 455 561 474 q 457 435 481 435 q 411 444 431 435 q 376 463 391 452 q 350 487 361 474 q 331 509 339 500 q 330 513 330 511 q 292 461 319 507 q 232 350 265 415 q 169 210 200 285 q 120 74 139 135 q 102 25 111 43 q 84 0 93 7 q 67 -8 76 -7 q 50 -9 57 -9 q 29 -6 41 -9 q 5 6 17 -4 q -19 37 -7 17 q -37 94 -31 57 q -11 271 -46 165 q 96 515 24 378 l 96 513 q 137 590 120 561 q 167 632 154 619 q 191 650 180 646 q 215 654 202 654 q 258 637 239 654 q 281 594 278 620 l 281 585 q 272 559 280 576 q 252 519 265 543 q 264 536 257 528 q 278 554 270 544 q 285 564 281 557 q 291 574 289 570 q 339 631 322 622 q 367 637 356 641 q 412 619 389 635 q 456 570 435 604 l 454 570 q 478 538 470 544 q 498 531 485 531 q 562 552 526 531 q 630 607 598 572 l 635 613 q 659 626 648 626 l 661 626 l 667 624 z "},"s":{"ha":539,"x_min":-19,"x_max":593,"o":"m 591 350 q 579 309 593 335 q 540 251 565 283 q 481 183 515 219 q 413 117 448 148 l 407 111 q 448 31 443 70 q 437 -24 452 0 q 394 -66 422 -48 q 325 -93 365 -83 q 241 -102 285 -102 q 172 -94 207 -102 q 108 -69 137 -85 q 60 -34 80 -54 q 39 7 41 -15 q 52 56 37 30 q 94 74 65 67 q 157 89 124 81 q 192 96 178 93 q 219 100 206 100 q 106 160 148 133 q 40 213 65 187 q 5 266 15 239 q -11 326 -6 293 q 16 443 -19 381 q 112 554 50 504 q 256 636 174 604 q 426 669 339 669 q 503 650 480 669 q 530 591 526 631 q 519 539 533 565 q 470 513 506 513 q 433 524 456 513 l 435 522 q 414 527 426 524 q 406 531 402 530 q 311 506 361 530 q 219 453 261 483 q 152 392 178 422 q 130 344 126 361 q 256 230 131 313 l 315 187 q 340 172 330 178 q 346 165 350 167 q 403 194 367 167 q 474 255 439 222 q 535 314 509 287 q 561 341 561 341 l 591 350 m 298 -13 q 357 15 356 6 q 342 34 354 19 q 324 50 330 50 q 294 44 322 50 q 236 26 265 37 q 192 2 207 15 q 202 -22 176 -11 q 220 -19 209 -19 q 241 -19 231 -19 q 300 -13 274 -19 l 298 -13 m 196 -28 l 202 -22 q 196 -28 196 -26 z "},"t":{"ha":320,"x_min":-35,"x_max":487,"o":"m 46 -11 q -26 93 -15 7 q -5 290 -35 159 q 91 607 26 420 l 94 624 q 103 656 107 654 q 102 654 98 657 q 44 659 74 654 q 9 685 13 665 q 19 716 6 709 q 83 722 31 722 l 93 722 q 130 726 120 722 q 143 739 139 730 q 202 867 174 817 q 272 917 230 917 q 323 898 298 917 q 352 850 348 880 q 347 804 354 830 q 322 735 341 778 q 319 728 319 728 q 343 729 330 728 q 370 730 356 730 l 407 730 q 464 716 444 730 q 487 685 483 702 q 472 654 487 670 q 426 637 457 637 q 405 638 420 637 q 369 641 389 639 q 331 644 350 643 q 302 644 313 644 l 280 646 l 259 602 q 80 87 80 193 q 83 70 83 72 l 83 67 q 141 94 104 67 q 219 167 178 122 l 217 167 q 257 219 239 193 q 291 270 276 246 l 289 270 q 333 335 313 307 q 369 363 354 363 q 381 360 378 363 q 387 354 383 357 q 393 343 393 348 q 378 296 393 330 q 309 183 350 239 q 226 83 269 128 q 143 12 183 39 q 72 -15 102 -15 q 58 -14 67 -15 q 46 -9 50 -13 l 46 -11 z "},"u":{"ha":720,"x_min":-74,"x_max":770,"o":"m 770 339 q 752 309 769 333 q 713 257 735 285 q 669 202 691 230 q 633 161 646 174 q 517 54 563 85 q 433 22 470 22 q 357 56 389 22 q 317 152 326 91 q 314 176 315 163 q 313 200 313 189 q 287 167 302 185 q 254 126 272 148 q 186 46 213 78 q 141 -5 159 15 q 110 -34 122 -24 q 87 -50 98 -44 l 87 -48 q 37 -63 65 -63 q -34 -31 -6 -63 q -70 48 -63 2 q -68 123 -74 81 q -39 222 -61 165 q 15 346 -20 274 q 91 482 50 419 q 172 592 131 546 q 243 637 213 637 q 301 614 274 637 q 331 557 328 591 l 331 546 q 316 514 331 539 q 276 452 300 489 l 278 452 q 214 347 248 404 q 157 248 180 291 l 157 250 q 144 220 152 239 q 129 181 137 202 q 112 142 120 161 q 100 107 104 122 q 167 171 122 124 q 274 283 211 219 q 344 362 317 328 q 385 420 370 396 q 422 466 407 452 q 463 480 437 480 q 530 417 519 480 q 531 396 531 406 q 526 372 530 387 q 513 333 522 357 q 487 267 504 309 q 458 186 467 217 q 452 131 450 156 q 522 165 480 137 q 583 206 546 178 q 655 261 620 233 q 713 309 689 289 q 737 330 737 330 l 770 339 z "},"v":{"ha":735,"x_min":-30,"x_max":726,"o":"m 220 394 q 176 297 194 339 q 147 222 157 256 q 134 163 137 189 q 135 113 131 137 l 141 80 q 159 112 146 89 q 187 159 172 135 l 187 157 q 243 264 213 211 q 298 359 272 317 q 338 427 324 400 q 356 461 352 454 q 391 560 363 511 q 457 649 419 609 q 541 713 496 689 q 628 737 585 737 q 690 717 665 737 q 722 676 715 696 q 719 629 726 644 q 669 591 711 613 q 596 539 637 574 q 519 466 556 504 q 459 398 483 428 q 435 363 435 369 q 468 302 441 331 q 531 272 494 272 q 600 285 567 272 q 659 328 633 298 q 700 352 680 352 q 714 342 707 348 q 720 326 720 335 q 699 282 722 304 q 644 243 676 261 q 579 213 611 224 q 530 202 546 202 q 445 229 483 202 q 378 304 407 256 q 344 251 367 287 q 299 175 322 215 q 255 97 276 135 q 222 39 233 59 q 179 -33 194 -15 q 128 -52 163 -52 q 80 -35 104 -52 q 35 7 56 -19 q 0 68 15 33 q -20 135 -15 102 q -12 273 -30 202 q 56 444 6 344 q 125 558 100 528 q 180 589 150 589 q 235 569 213 589 q 261 517 257 548 q 261 502 261 509 q 257 481 261 494 q 245 447 254 469 q 220 393 237 426 l 220 394 z "},"w":{"ha":983,"x_min":-52,"x_max":965,"o":"m 533 -44 q 514 -92 522 -74 q 496 -119 506 -109 q 477 -132 487 -130 q 450 -135 467 -135 q 398 -117 422 -135 q 354 -67 374 -98 q 319 6 333 -35 q 298 94 304 48 q 296 131 296 109 q 298 174 296 154 q 301 218 300 198 q 304 244 302 237 q 287 222 300 241 q 258 180 274 204 q 226 131 243 156 q 200 94 209 107 q 177 58 189 78 q 154 22 165 39 l 154 24 q 104 -45 122 -26 q 56 -65 85 -65 q -12 -31 15 -65 q -48 56 -39 2 q -45 139 -52 89 q -24 244 -39 189 q 13 355 -9 300 q 60 453 35 409 q 113 523 85 496 q 169 550 141 550 q 223 530 200 550 q 252 478 246 509 q 249 444 256 461 q 222 385 243 426 q 167 275 191 331 q 128 167 143 219 q 203 247 170 213 q 261 307 235 281 q 303 355 287 337 q 322 380 319 372 q 369 494 343 454 q 426 535 394 535 q 478 519 452 535 q 509 469 504 502 q 506 432 511 454 q 487 370 500 411 l 481 350 l 483 350 q 445 214 457 267 q 433 117 433 161 q 439 54 433 83 q 443 30 441 43 q 446 5 444 17 q 449 -16 448 -7 q 450 -24 450 -24 q 468 6 454 -24 q 499 83 481 37 q 537 184 517 130 q 574 286 557 239 q 603 366 591 333 q 615 402 615 398 q 631 476 619 444 q 669 548 643 507 l 667 548 q 709 604 683 576 q 764 655 735 631 q 819 692 793 678 q 861 706 844 706 q 912 688 891 706 q 937 644 933 670 q 938 622 939 631 q 931 602 937 613 q 914 575 926 591 q 881 535 902 559 q 798 431 835 480 q 730 330 761 383 l 728 328 l 715 304 l 715 300 q 717 298 715 298 l 717 300 q 743 274 726 281 q 781 267 759 267 q 896 326 841 267 q 937 357 919 357 q 963 337 959 357 q 951 305 965 328 q 911 257 937 281 q 851 215 885 233 q 776 196 817 196 q 710 208 733 196 q 674 231 687 220 q 665 239 665 235 q 644 205 659 235 q 610 131 630 174 q 570 42 591 89 q 533 -44 550 -6 z "},"x":{"ha":669,"x_min":-7,"x_max":730,"o":"m 167 191 q 183 219 180 211 q 187 224 187 226 q 170 276 187 226 q 141 369 156 317 q 119 459 126 420 l 91 402 l 91 404 q 48 319 63 343 q 22 294 33 296 q -4 313 0 281 q -3 333 -7 320 q 7 363 2 346 l 24 406 l 24 404 q 50 471 35 433 q 79 543 65 509 q 104 600 93 576 q 117 626 115 624 q 161 637 135 637 q 189 634 174 637 q 220 612 204 631 q 256 550 237 593 q 294 428 274 507 q 297 416 296 422 q 300 406 298 409 q 302 396 302 400 q 310 391 307 391 q 324 406 313 391 q 446 535 391 491 q 522 580 502 580 q 582 555 556 580 q 613 504 609 530 q 599 458 617 472 q 546 424 581 444 q 463 374 513 406 q 348 278 413 343 l 343 274 l 356 244 q 408 157 383 185 q 454 128 433 130 q 547 177 494 130 q 644 304 600 224 q 702 361 678 361 q 717 356 707 361 q 728 341 726 350 q 715 300 730 331 q 683 239 700 269 q 550 68 607 122 q 433 13 493 13 q 327 50 380 13 q 231 144 274 87 l 215 119 q 187 81 202 100 q 158 45 172 61 q 134 19 144 30 q 120 9 124 9 q 99 19 109 9 q 89 41 89 28 q 106 89 87 54 q 169 193 124 124 l 167 191 z "},"y":{"ha":622,"x_min":-239,"x_max":691,"o":"m 324 -94 q 210 -360 263 -254 q 109 -530 157 -467 q 15 -619 61 -593 q -80 -644 -31 -644 q -183 -605 -141 -644 q -235 -504 -226 -565 q -234 -438 -239 -474 q -215 -361 -230 -402 q -81 -170 -176 -254 q 183 -7 13 -87 l 233 19 l 241 35 q 266 100 250 59 q 296 180 281 141 q 323 248 311 219 q 335 281 335 278 q 296 228 333 278 q 202 113 259 178 q 140 43 163 69 q 103 5 117 17 q 79 -11 89 -7 q 57 -15 69 -15 q -6 12 20 -15 q -39 87 -31 39 q -33 168 -43 117 q -7 278 -24 219 q 32 399 9 337 q 81 511 56 461 q 131 593 106 561 q 181 624 157 624 q 233 600 209 624 q 261 552 257 576 q 255 516 261 539 q 230 454 248 493 q 151 268 183 354 q 109 135 119 181 q 138 159 122 144 q 169 189 154 174 q 204 221 183 200 q 246 267 224 243 q 292 312 269 289 q 334 353 315 335 q 369 382 354 370 q 389 394 383 394 q 444 339 435 394 q 434 246 448 309 q 393 100 420 183 q 420 121 404 109 q 454 144 437 133 q 502 188 478 163 q 548 239 526 213 q 589 289 570 265 q 620 331 607 313 q 645 364 635 350 q 665 378 656 378 q 678 370 670 378 q 687 354 685 363 q 669 278 691 322 q 605 185 646 233 q 506 88 563 137 q 383 -2 450 39 l 352 -20 l 324 -94 m -74 -470 q 4 -389 -41 -446 q 91 -259 48 -331 q 121 -211 104 -237 q 155 -162 139 -185 q 180 -123 170 -139 q 189 -107 189 -107 q 162 -123 180 -113 q 126 -144 144 -133 q 90 -166 107 -156 q 61 -183 72 -176 q -80 -327 -33 -244 q -115 -476 -126 -409 q -113 -484 -113 -480 q -113 -491 -113 -489 q -74 -470 -94 -491 z "},"z":{"ha":483,"x_min":-346,"x_max":556,"o":"m 254 -169 q 206 -339 244 -254 q 110 -493 167 -424 q -14 -605 54 -561 q -148 -648 -81 -648 q -219 -635 -187 -648 q -277 -600 -252 -622 q -318 -548 -302 -578 q -339 -485 -333 -519 q -323 -374 -346 -433 q -248 -253 -300 -315 q -116 -129 -196 -191 q 72 -11 -35 -67 q 120 11 119 13 q 74 62 117 39 q -28 85 31 85 q -44 84 -37 85 q -59 83 -52 83 l -76 83 q -116 96 -102 83 q -133 128 -130 109 q -131 151 -135 141 q -111 177 -128 161 q -62 218 -94 193 q 26 285 -30 243 q 170 397 109 344 q 246 470 231 450 q 205 465 231 469 q 148 457 178 461 q 93 447 120 452 q 48 443 65 443 q -8 463 13 443 q -33 511 -30 483 q -19 557 -37 539 q 31 589 -2 576 q 110 607 65 602 q 209 613 156 613 q 326 584 283 613 q 378 511 369 556 q 369 461 380 487 q 325 401 357 435 q 236 320 293 367 q 91 209 180 274 q 50 180 67 193 q 24 159 33 167 q 125 124 78 150 q 198 61 172 98 l 198 56 l 313 124 q 376 172 341 143 q 437 230 411 202 q 467 275 452 246 q 493 324 481 304 q 510 357 502 344 q 528 370 519 370 q 548 364 544 370 q 552 348 552 357 q 536 279 556 320 q 479 189 517 237 q 386 93 441 141 q 265 6 331 44 q 235 -9 246 -9 q 244 -43 241 -24 q 252 -76 248 -61 q 256 -122 256 -100 q 254 -169 256 -144 m -135 -498 q -41 -427 -89 -480 q 47 -308 7 -374 q 111 -175 87 -243 q 131 -57 135 -107 q 77 -94 115 -69 q 11 -137 39 -120 q -81 -207 -39 -169 q -155 -289 -124 -246 q -200 -376 -185 -331 q -209 -461 -215 -420 q -172 -506 -204 -506 q -155 -504 -163 -506 q -135 -498 -146 -502 z "},"=":{"ha":765,"x_min":24,"x_max":741,"o":"m 137 480 q 131 479 133 480 q 124 478 128 478 q 86 474 96 474 q 63 480 76 474 q 32 508 41 489 q 33 544 24 528 q 144 591 50 574 q 233 606 193 600 q 314 617 274 613 q 396 622 354 620 q 491 624 439 624 q 553 624 530 624 q 589 623 576 624 q 610 620 602 622 q 628 617 619 619 q 696 572 674 604 q 704 517 711 546 q 643 476 691 487 q 606 473 628 472 q 550 478 585 474 q 544 479 546 478 q 541 480 543 480 q 440 484 500 483 q 317 485 380 485 q 213 484 261 485 q 139 480 165 483 l 137 480 m 574 241 q 480 246 537 244 q 363 248 422 248 q 252 246 304 248 q 172 241 200 244 q 167 240 169 241 q 161 239 165 239 q 120 236 131 235 q 96 243 109 237 q 66 273 74 252 q 72 311 57 294 l 70 309 q 104 333 80 324 q 178 354 128 343 q 269 369 228 363 q 348 378 309 374 q 430 383 387 381 q 526 385 472 385 q 587 385 565 385 q 623 384 609 385 q 644 381 637 383 q 661 378 652 380 q 728 333 707 365 l 728 335 q 740 306 739 319 q 737 280 741 294 q 716 251 730 259 q 676 239 702 243 q 641 236 659 235 q 574 241 622 237 z "},"?":{"ha":606,"x_min":20,"x_max":587,"o":"m 126 91 q 182 111 150 117 q 237 70 215 106 q 256 4 256 43 q 241 -57 256 -35 q 217 -76 231 -69 q 189 -83 202 -83 q 157 -76 170 -83 q 116 -33 130 -61 q 102 26 102 -6 q 124 91 102 65 l 126 91 m 524 594 q 478 544 507 570 q 398 483 448 519 q 325 427 354 452 q 277 376 296 402 q 245 320 257 350 q 224 252 233 291 q 215 209 215 219 q 214 198 215 204 q 207 183 213 193 q 180 174 198 174 q 148 181 161 174 q 127 227 133 191 q 124 306 120 263 q 138 380 128 346 q 168 444 148 413 q 217 507 187 476 q 289 576 246 539 q 376 658 348 622 q 419 737 404 694 l 417 737 q 423 758 422 752 q 420 778 424 765 q 417 799 419 793 q 407 815 415 806 q 320 854 381 854 q 256 843 285 854 q 206 807 226 831 q 174 733 178 780 q 144 659 167 681 q 85 648 120 637 q 45 680 63 657 q 24 735 28 702 q 20 765 20 757 q 24 781 20 772 q 89 891 46 837 q 198 977 137 948 q 322 1006 259 1006 q 502 935 422 1006 q 587 759 587 859 q 524 594 587 678 z "},"!":{"ha":343,"x_min":20,"x_max":324,"o":"m 44 93 q 103 117 69 122 q 159 74 137 111 l 157 74 q 175 7 174 46 q 161 -54 176 -31 q 136 -73 152 -65 q 109 -81 120 -81 q 67 -69 96 -81 q 33 -30 46 -56 q 20 28 20 -4 q 27 63 20 44 q 46 93 33 81 l 44 93 m 285 794 q 244 676 261 730 q 213 567 228 622 q 185 447 198 511 q 156 294 172 383 q 143 234 148 257 q 131 199 137 211 q 119 182 126 187 q 104 176 113 178 q 72 187 85 176 q 53 222 59 200 q 43 289 46 244 q 40 328 41 307 q 39 369 39 348 q 56 569 39 454 q 77 682 63 620 q 106 802 91 744 q 136 905 120 859 q 163 967 152 950 q 210 1004 180 993 q 267 1004 241 1015 q 307 967 291 994 q 322 907 324 939 q 311 868 320 898 q 285 793 302 837 l 285 794 z "},"":{"ha":657,"x_min":19,"x_max":639,"o":"m 183 -19 q 168 -69 176 -44 q 154 -102 159 -93 q 121 -132 143 -124 q 80 -133 100 -141 q 33 -93 48 -122 q 19 -22 19 -63 q 22 21 19 0 q 31 65 26 43 q 52 111 39 83 q 85 181 65 139 q 137 282 106 222 q 213 430 169 343 q 311 618 270 537 q 381 758 352 698 q 430 861 411 819 q 461 937 448 904 q 480 986 470 969 q 507 1013 489 1004 q 544 1021 520 1020 q 578 1017 567 1022 q 610 992 596 1007 q 631 959 624 976 q 637 916 639 937 q 626 863 635 894 q 609 825 619 844 q 585 779 600 806 q 546 713 570 752 q 487 619 522 674 q 350 373 415 500 q 237 139 285 246 q 221 102 228 119 q 209 68 215 85 q 197 29 204 50 q 183 -20 191 7 l 183 -19 l 183 -19 z "},"+":{"ha":722,"x_min":20,"x_max":704,"o":"m 241 365 q 190 363 219 365 q 139 359 161 361 l 130 359 q 84 356 98 356 q 59 359 70 356 q 28 391 35 370 q 33 431 20 411 l 33 428 q 46 444 37 437 q 67 454 56 450 l 65 454 q 94 461 72 456 q 143 472 115 467 q 199 482 170 478 q 250 491 228 487 q 263 492 259 491 q 270 493 267 493 q 276 494 274 493 q 274 506 274 498 q 270 526 274 513 q 269 570 269 550 q 269 609 269 591 q 270 663 269 641 q 280 698 272 685 l 280 696 q 316 748 293 733 q 367 748 339 763 q 409 695 398 733 q 415 583 420 657 l 415 585 q 413 531 413 552 q 413 504 413 511 q 439 505 417 504 q 496 506 461 506 q 551 505 530 506 q 584 503 572 504 q 605 500 596 502 q 622 494 613 498 l 622 496 q 691 452 676 480 l 689 452 q 701 425 698 437 q 696 398 704 413 q 667 367 687 376 q 598 357 646 357 l 535 357 q 470 362 494 359 q 433 366 446 365 q 417 369 420 367 q 413 372 413 370 q 414 351 413 370 q 418 304 415 331 q 423 245 420 276 q 430 193 426 215 q 437 118 439 139 q 420 85 435 96 q 395 72 407 70 q 365 85 383 74 q 339 126 352 96 q 318 203 330 150 q 296 313 306 256 q 292 341 293 326 q 289 367 291 356 l 241 365 z "},"-":{"ha":731,"x_min":24,"x_max":707,"o":"m 537 359 q 444 365 500 363 q 328 367 389 367 q 216 365 269 367 q 135 359 163 363 q 128 358 131 359 q 120 357 124 357 q 82 355 93 354 q 59 361 72 356 l 61 361 q 31 391 39 370 q 37 431 24 411 l 35 430 q 67 454 44 444 q 141 472 89 463 q 232 488 191 481 q 314 498 274 494 q 395 503 354 502 q 489 504 437 504 l 546 504 q 599 502 585 504 q 626 496 613 500 q 668 477 648 487 q 694 452 687 467 l 693 452 q 705 425 702 437 q 700 398 707 413 l 700 400 q 639 357 689 365 q 604 356 624 356 q 537 359 583 356 z "},"":{"ha":722,"x_min":20,"x_max":704,"o":"m 269 709 q 296 748 278 735 q 335 761 315 761 q 394 737 367 761 q 422 670 420 713 q 392 596 422 622 q 320 585 361 570 q 269 636 285 600 q 269 709 254 672 m 317 269 q 378 291 344 296 q 443 213 437 281 q 436 167 444 187 q 414 134 428 146 q 381 119 400 122 q 341 126 361 115 q 309 147 320 135 q 293 185 298 159 q 317 269 281 233 m 531 363 q 438 369 494 367 q 322 370 381 370 q 210 369 263 370 q 131 363 157 367 q 126 362 128 363 q 122 361 124 361 l 124 361 q 77 358 85 357 q 56 365 69 359 l 59 365 q 27 394 33 374 q 33 435 20 415 l 31 433 q 135 474 46 457 q 307 500 230 493 q 485 507 385 507 q 544 507 522 507 q 579 506 565 507 q 601 504 593 506 q 620 498 609 502 l 620 500 q 691 456 676 483 l 689 456 q 701 429 698 441 q 696 402 704 417 q 676 375 689 385 q 637 359 663 365 q 600 358 620 357 q 531 363 580 359 z "},"#":{"ha":898,"x_min":31,"x_max":874,"o":"m 804 531 q 767 535 787 535 q 739 533 746 535 l 726 485 q 703 410 713 446 q 689 357 693 374 q 701 366 693 365 q 719 367 709 367 q 800 356 774 367 q 848 319 826 346 q 864 260 867 291 q 841 211 861 230 q 756 206 813 191 q 708 213 741 209 q 657 219 676 217 q 654 200 656 209 q 652 183 652 191 q 640 97 643 135 q 641 37 637 59 l 644 24 q 661 15 652 20 q 674 0 670 9 l 672 6 q 685 -15 685 -9 q 678 -33 685 -20 l 678 -31 q 656 -53 674 -41 q 624 -65 637 -65 q 593 -56 611 -65 q 526 63 537 -30 q 519 135 520 94 q 520 211 519 176 l 520 213 q 522 226 520 222 q 489 224 513 226 q 436 219 465 222 q 378 213 407 217 q 328 206 348 209 l 311 202 l 306 178 q 296 100 298 137 q 298 43 294 63 l 300 26 q 316 19 307 22 q 330 6 324 15 q 338 -15 339 -9 q 331 -31 337 -20 q 319 -43 328 -35 q 302 -54 311 -50 q 283 -59 293 -57 q 261 -57 274 -61 l 261 -59 q 187 35 204 -43 l 187 33 q 179 77 181 54 q 176 148 176 100 q 174 167 174 165 q 174 170 174 169 q 167 169 170 170 q 105 164 126 159 q 72 193 83 169 q 64 213 65 207 q 67 231 63 219 q 169 289 80 263 q 176 292 170 291 q 185 294 181 293 l 193 337 l 193 335 l 202 396 l 209 441 l 215 469 l 189 461 l 191 461 q 131 446 148 446 q 93 456 113 446 q 41 516 50 474 q 67 589 31 557 q 120 618 81 607 q 241 633 159 628 l 252 635 l 256 652 q 288 769 274 724 q 315 843 302 815 q 342 882 328 870 q 372 900 356 894 q 442 881 409 909 q 472 809 474 854 q 467 758 472 785 q 446 687 461 731 l 444 687 q 428 648 435 659 l 513 648 l 602 652 l 620 719 l 620 717 q 635 774 630 752 q 646 810 641 796 q 657 833 652 824 q 670 854 663 843 q 769 889 709 919 q 815 830 804 870 l 813 831 q 813 772 820 811 q 791 683 806 733 l 774 631 l 800 626 q 821 620 809 624 q 839 613 833 617 q 867 581 859 602 q 863 544 874 559 q 802 531 843 520 l 804 531 m 574 528 q 564 527 570 528 q 554 526 557 526 q 477 520 522 524 q 400 511 431 517 l 387 509 q 378 481 380 491 q 366 446 372 469 q 353 401 359 424 q 341 356 346 378 q 333 324 335 335 q 342 326 337 326 q 356 328 346 326 l 385 331 q 444 341 411 335 q 500 350 476 346 q 526 354 515 352 q 539 356 537 356 l 557 448 l 574 528 m 541 356 l 539 356 l 539 354 l 541 356 z "},"&":{"ha":902,"x_min":17,"x_max":883,"o":"m 817 557 q 863 532 843 554 q 883 481 883 511 q 861 430 883 450 q 802 396 839 409 q 740 381 781 389 q 670 374 698 374 q 720 248 720 320 q 689 135 720 193 q 669 102 681 120 q 641 66 656 83 q 609 32 626 48 q 580 6 593 17 q 313 -83 454 -94 q 170 -27 237 -74 q 67 93 104 20 q 41 160 48 128 q 28 237 33 193 q 65 450 17 354 q 104 506 80 476 q 152 557 128 537 q 227 605 181 581 q 324 643 272 628 q 288 709 298 674 q 278 780 278 744 q 308 892 278 839 q 396 976 339 944 q 493 1002 444 1002 q 561 985 530 1002 q 617 944 594 970 q 644 885 639 917 q 635 820 648 861 q 604 756 622 780 q 565 733 585 733 q 526 798 515 733 q 524 833 526 813 q 520 857 522 854 q 511 854 520 854 q 448 817 476 850 q 424 759 424 787 q 459 693 424 724 q 494 671 480 676 q 539 667 507 667 q 600 661 578 667 q 637 646 622 656 q 656 617 652 635 q 650 583 659 598 q 624 570 643 576 q 581 560 606 565 q 532 555 557 556 q 489 556 507 554 q 476 556 483 556 q 465 559 469 557 q 454 561 459 561 q 446 561 448 561 q 416 557 435 563 q 374 542 396 552 q 330 519 352 531 q 291 493 307 506 l 293 493 q 249 446 272 474 q 217 398 226 419 q 196 343 202 372 q 191 281 191 313 q 193 244 191 261 q 198 213 194 228 q 348 72 235 81 q 415 81 380 69 q 482 118 450 94 q 542 172 515 141 q 583 241 569 204 q 593 276 591 257 q 591 306 594 294 l 593 306 q 546 335 583 335 q 502 324 526 335 l 504 324 q 461 286 481 311 q 424 230 441 261 q 381 169 402 181 q 337 180 361 156 q 313 220 319 196 q 311 274 307 244 q 323 315 313 294 q 350 356 333 335 q 387 390 367 374 q 437 419 407 406 q 509 447 467 433 q 615 480 552 461 q 703 509 680 500 q 741 530 726 519 q 780 554 765 548 q 817 557 794 559 m 665 380 l 661 385 q 665 380 665 381 m 648 374 q 644 373 644 374 q 641 372 643 372 q 648 374 646 372 z "},"(":{"ha":330,"x_min":20,"x_max":309,"o":"m 259 863 q 309 831 304 869 q 303 810 309 826 q 285 780 296 794 q 219 655 243 719 q 183 509 194 591 q 174 438 178 474 q 170 367 170 402 q 173 306 170 337 q 180 244 176 276 q 194 144 185 187 q 219 59 204 102 q 239 6 230 28 q 263 -31 248 -17 q 283 -102 294 -74 q 260 -116 274 -111 q 237 -117 246 -120 q 173 -79 207 -107 q 113 -11 139 -50 q 74 60 94 17 q 44 137 54 104 q 26 241 31 181 q 20 361 20 300 q 23 439 20 400 q 30 509 26 478 q 80 660 48 591 q 159 789 111 730 q 259 863 222 861 z "},")":{"ha":333,"x_min":20,"x_max":313,"o":"m 150 209 q 161 357 161 281 q 159 416 161 385 q 154 478 157 446 q 137 576 146 533 q 113 661 128 619 q 92 716 102 694 q 67 754 81 737 q 43 817 35 793 q 91 837 50 841 q 118 826 102 835 q 151 802 133 817 q 186 769 169 787 q 219 731 204 750 q 257 661 237 706 q 285 585 278 617 q 306 480 300 539 q 313 359 313 420 q 309 282 313 322 q 300 211 306 243 q 251 63 285 135 q 170 -67 217 -9 q 74 -143 117 -137 q 51 -142 59 -143 q 31 -133 43 -141 l 20 -113 q 29 -89 20 -104 q 48 -59 37 -74 q 114 65 89 0 q 150 209 139 130 z "},"[":{"ha":439,"x_min":22,"x_max":419,"o":"m 198 -137 q 140 -144 165 -144 q 93 -133 115 -143 q 41 -82 56 -115 q 22 11 26 -50 q 24 93 22 37 q 31 215 26 148 q 44 354 37 281 q 57 485 50 426 l 78 661 q 94 780 87 746 q 109 833 100 813 q 156 879 124 865 q 250 893 187 893 q 290 891 267 893 q 335 885 313 889 q 375 877 357 881 q 398 869 393 872 l 398 870 q 416 845 413 861 q 409 817 419 830 q 393 809 406 815 q 361 798 380 804 q 324 787 343 793 q 293 778 306 781 q 250 765 265 772 q 246 763 246 763 q 246 755 246 763 q 244 725 246 746 q 237 659 243 704 l 230 609 q 208 429 219 519 q 192 257 198 339 q 182 107 185 176 q 181 -7 180 39 l 181 -15 q 206 -17 191 -15 q 239 -22 222 -19 q 326 -40 302 -28 q 350 -74 350 -52 q 320 -103 346 -89 q 252 -126 294 -117 l 198 -137 z "},"]":{"ha":441,"x_min":22,"x_max":419,"o":"m 348 854 q 400 805 385 837 q 417 711 415 772 q 416 629 419 683 q 408 506 413 574 q 396 368 404 439 q 381 237 389 296 q 376 184 380 215 q 369 126 372 154 q 364 92 365 107 q 361 61 363 76 q 353 -14 357 22 q 348 -63 348 -50 q 318 -135 339 -111 q 261 -167 296 -159 q 209 -172 243 -170 q 159 -172 176 -174 q 127 -168 146 -170 q 90 -161 107 -165 q 57 -154 72 -157 q 37 -148 43 -150 q 24 -123 26 -141 q 31 -94 22 -106 q 47 -88 33 -93 q 79 -78 61 -83 q 116 -67 96 -72 q 150 -57 135 -61 l 191 -44 q 195 -42 194 -43 q 197 -28 196 -41 q 201 17 198 -15 q 211 111 204 48 q 231 289 222 198 q 247 462 241 380 q 256 614 254 544 q 257 728 259 683 l 256 735 q 248 737 252 737 q 237 739 244 737 q 219 741 228 739 q 202 743 209 743 q 119 761 143 746 q 93 796 94 776 q 121 824 98 811 q 187 846 144 837 l 185 844 q 206 850 193 848 q 230 854 219 852 l 228 854 l 243 857 q 303 866 280 867 q 348 854 326 865 z "},"{":{"ha":467,"x_min":19,"x_max":444,"o":"m 411 930 q 392 909 400 924 q 374 867 383 894 q 354 795 365 839 q 330 689 343 752 q 305 580 315 622 q 287 509 294 537 q 272 464 280 481 q 256 428 265 446 q 228 386 244 407 q 189 350 211 365 q 214 312 202 335 q 233 267 226 289 l 231 267 q 247 185 243 237 q 250 63 252 133 q 250 19 250 37 q 251 -16 250 0 q 253 -46 252 -31 q 257 -81 254 -61 l 257 -80 q 272 -148 267 -128 q 293 -189 278 -169 q 311 -204 302 -200 l 309 -202 q 313 -274 394 -230 q 279 -282 304 -280 q 235 -280 254 -285 l 237 -280 q 208 -269 220 -276 q 178 -246 196 -261 q 148 -206 163 -230 q 124 -156 133 -183 l 124 -157 q 115 -127 119 -143 q 107 -80 111 -111 q 106 -72 107 -76 q 106 -65 106 -69 q 100 19 100 -24 q 103 80 100 46 q 109 161 106 113 q 115 237 115 207 q 106 280 115 265 q 97 287 102 285 q 72 296 93 289 l 78 296 q 75 297 76 296 q 72 298 74 298 q 38 319 54 304 q 20 354 22 333 q 31 387 19 369 q 65 409 44 406 q 91 421 83 413 q 109 463 98 430 q 120 497 113 470 q 138 562 128 524 q 159 646 148 600 q 181 741 170 693 q 218 856 198 806 q 261 937 237 906 q 299 970 276 954 q 339 996 322 987 q 390 1006 365 1009 q 430 985 415 1004 q 442 956 444 967 q 411 930 439 944 z "},"|":{"ha":430,"x_min":39,"x_max":281,"o":"m 261 994 q 277 966 272 980 q 281 926 281 952 q 279 874 281 906 q 269 798 276 843 q 251 683 257 733 q 235 574 244 633 q 232 544 233 559 q 228 513 231 528 l 228 515 q 217 356 220 428 q 213 202 213 285 q 214 147 213 176 q 215 87 215 119 q 219 -67 219 2 q 219 -178 219 -135 q 214 -284 219 -254 q 200 -330 209 -315 q 161 -356 185 -350 q 117 -357 137 -363 l 119 -357 q 57 -313 81 -350 q 46 -290 48 -300 q 43 -254 44 -280 q 47 -102 39 -217 q 70 180 56 13 q 81 283 76 237 q 88 372 85 330 q 94 460 91 415 q 98 563 96 506 q 106 773 102 693 q 113 900 109 854 q 121 967 117 946 q 135 998 126 987 q 162 1018 146 1011 q 196 1023 178 1024 q 231 1015 215 1022 q 261 993 248 1007 l 261 994 z "},"}":{"ha":526,"x_min":35,"x_max":465,"o":"m 419 311 q 390 299 398 307 q 372 257 381 291 q 361 222 369 248 q 344 159 354 196 q 323 76 335 122 q 300 -19 311 30 q 246 -168 274 -113 q 180 -254 219 -222 q 80 -283 122 -298 q 46 -261 57 -278 q 44 -230 35 -244 l 44 -231 q 70 -206 50 -220 q 108 -145 91 -196 q 156 31 126 -94 q 180 141 170 98 q 196 211 189 183 q 211 256 204 239 q 228 293 219 274 l 228 291 q 293 370 248 335 q 246 454 261 402 q 230 659 230 509 q 230 738 231 711 q 222 802 228 765 q 209 868 215 846 q 189 909 204 889 q 179 918 185 913 q 169 924 172 922 q 165 994 93 956 l 165 993 q 210 1003 180 1002 q 261 994 241 1004 l 259 994 q 318 948 289 983 q 365 865 346 913 q 370 840 369 856 q 376 787 372 824 q 379 744 378 765 q 380 702 380 722 q 378 642 380 674 q 372 561 376 609 q 367 489 367 513 q 387 431 367 441 q 446 402 433 419 q 463 367 463 385 q 450 331 465 348 q 420 311 435 315 l 419 311 z "},"*":{"ha":333,"x_min":19,"x_max":300,"o":"m 263 854 q 257 853 259 854 q 252 852 256 852 q 281 826 272 837 q 293 802 289 815 q 294 766 300 781 q 276 742 289 750 q 244 734 263 733 q 207 750 226 735 q 172 791 183 767 q 124 759 157 759 q 88 772 102 759 q 70 804 74 785 q 78 839 67 824 q 59 846 70 841 q 30 868 41 854 q 22 896 19 881 q 31 919 24 909 q 48 939 39 930 q 78 947 59 944 q 113 946 96 950 q 156 1026 91 1026 q 177 1024 170 1026 q 194 1013 183 1022 q 217 946 222 985 q 250 952 231 956 q 281 933 269 948 q 292 889 296 913 q 265 854 287 865 l 263 854 m 135 937 q 139 935 137 935 l 141 935 l 135 937 z "},"":{"ha":322,"x_min":7,"x_max":302,"o":"m 44 902 l 44 904 q 56 1002 7 1002 q 83 987 69 1002 q 104 957 98 972 l 131 883 q 144 909 139 896 q 156 937 150 922 q 189 996 176 980 q 222 1017 202 1013 q 271 1002 248 1020 q 298 956 294 983 q 280 883 302 930 q 220 796 257 837 q 197 775 211 787 q 176 757 183 763 q 139 750 159 750 q 102 759 119 750 l 104 759 q 75 787 83 769 q 57 844 67 806 l 44 902 m 130 878 l 124 870 q 130 878 131 878 z "},"~":{"ha":704,"x_min":7,"x_max":691,"o":"m 637 359 q 568 321 600 333 q 498 309 535 309 q 463 312 478 309 q 428 319 448 315 q 343 352 381 330 q 239 422 304 374 q 178 450 198 452 q 143 435 163 446 q 104 409 122 424 l 104 411 q 70 383 83 387 q 43 393 57 380 q 83 511 7 422 q 169 577 126 561 q 263 578 211 593 q 320 550 293 569 q 394 493 348 531 l 393 493 q 437 457 415 474 q 465 437 459 441 q 552 411 517 411 q 604 430 585 411 q 645 451 626 452 q 674 426 665 450 l 674 428 q 637 359 691 396 z "},"@":{"ha":1041,"x_min":20,"x_max":1019,"o":"m 570 780 q 598 782 585 781 q 626 783 611 783 q 840 721 746 783 q 981 557 933 659 q 1010 451 1002 509 q 1015 333 1019 393 q 994 216 1011 280 q 952 100 978 152 l 937 72 q 931 57 935 67 q 924 44 926 48 q 907 18 920 35 q 880 -15 894 0 q 844 -51 857 -39 q 811 -78 831 -63 q 786 -87 794 -85 q 759 -89 778 -89 q 687 -63 720 -89 q 635 9 654 -37 q 621 70 626 31 q 619 146 617 109 q 543 60 581 98 q 478 7 504 22 q 380 4 426 -19 q 309 87 333 26 l 309 85 q 294 181 294 122 q 306 286 294 230 q 341 391 319 343 q 383 469 357 428 q 430 537 409 511 l 430 535 q 598 635 511 635 q 631 633 615 635 q 663 622 646 631 q 714 586 689 609 q 758 532 739 563 q 793 467 778 502 q 813 396 807 431 q 769 293 824 313 q 764 273 765 283 q 761 254 763 263 q 752 187 756 219 q 748 130 748 156 q 753 68 748 93 q 767 31 757 43 q 778 33 770 31 q 798 44 785 35 q 839 85 819 56 q 876 156 859 115 q 905 248 893 198 q 920 348 917 298 q 909 478 924 415 q 863 580 894 541 l 863 578 q 823 617 846 598 q 780 644 800 635 q 724 662 752 657 q 656 665 696 667 q 560 648 606 661 q 461 607 515 635 q 275 448 346 546 q 189 231 204 350 q 186 191 185 206 q 193 135 187 176 q 196 103 194 115 q 200 82 198 91 q 205 68 202 74 q 211 52 207 61 q 343 -50 254 -30 q 406 -56 378 -59 q 467 -37 435 -52 q 526 -21 498 -26 q 574 -24 554 -17 q 618 -59 607 -33 q 613 -113 628 -85 l 613 -111 q 588 -140 606 -126 q 546 -167 570 -154 q 495 -188 522 -180 q 444 -198 469 -196 q 431 -199 437 -198 q 422 -200 426 -200 q 392 -203 407 -202 q 359 -200 376 -204 q 223 -163 289 -194 q 115 -83 157 -131 q 20 193 20 31 q 39 341 20 272 q 86 458 57 404 q 159 565 115 513 l 159 563 q 343 711 237 656 q 570 780 448 767 m 633 187 q 622 198 626 189 l 622 185 q 633 187 624 187 m 665 348 l 661 359 q 648 384 654 369 q 639 409 643 400 q 621 443 630 426 q 607 465 613 459 q 589 458 602 467 q 561 434 576 450 q 531 397 546 419 q 502 354 515 376 q 449 252 472 309 q 419 152 426 194 q 412 111 413 130 q 415 89 411 93 q 431 89 420 83 q 502 144 454 94 q 598 263 550 193 q 626 300 611 280 q 650 331 641 320 l 650 330 l 665 348 z "},"$":{"ha":615,"x_min":19,"x_max":594,"o":"m 457 476 q 447 500 448 487 q 456 567 446 513 q 456 606 457 587 q 446 633 454 626 q 389 654 433 654 q 360 652 374 654 q 337 646 346 650 q 247 596 285 633 q 207 522 209 559 q 226 490 206 507 q 281 456 246 472 l 324 437 l 378 413 q 498 344 457 374 q 567 272 539 315 q 583 242 580 252 q 591 202 587 231 q 594 178 593 187 q 594 162 594 169 q 592 148 594 156 q 585 130 589 141 l 585 131 q 556 79 580 106 q 506 31 533 52 l 507 31 q 423 -14 472 6 q 326 -43 374 -33 l 309 -44 l 315 -83 q 316 -150 319 -131 q 294 -185 313 -169 q 263 -195 281 -194 q 230 -191 244 -196 q 200 -167 213 -181 q 185 -119 185 -146 q 202 -46 185 -93 l 204 -41 q 202 -44 204 -43 l 196 -44 q 118 -17 154 -35 q 57 31 81 2 q 33 73 41 54 q 22 122 26 93 q 27 182 19 157 q 61 239 35 207 q 96 273 85 265 q 131 281 107 281 q 167 267 152 281 q 181 251 178 257 q 185 230 185 244 q 176 180 189 211 q 166 137 165 148 q 181 117 167 126 q 206 106 191 109 q 243 104 222 104 q 344 123 291 104 q 428 174 398 143 q 441 200 443 189 q 419 230 439 211 q 397 245 407 239 q 373 259 387 252 q 338 276 359 267 q 285 300 317 285 q 188 344 220 326 q 130 385 156 363 q 59 528 59 450 q 101 644 59 589 q 222 735 143 700 q 260 747 237 741 q 302 757 283 754 l 298 787 q 298 848 294 830 q 315 881 302 867 q 331 897 324 893 q 357 902 339 902 q 407 885 387 904 q 433 831 428 867 q 431 805 435 819 q 420 770 428 791 q 419 759 419 765 q 417 754 419 756 l 428 750 l 428 752 q 511 707 480 739 q 554 600 554 665 q 537 520 554 565 q 499 461 520 472 q 457 476 478 450 z "},"%":{"ha":848,"x_min":22,"x_max":826,"o":"m 48 509 q 37 538 43 520 q 28 577 31 556 q 23 619 24 598 q 22 656 22 639 q 61 806 30 744 q 144 900 93 869 q 175 912 165 909 q 209 915 185 915 q 259 907 239 915 q 320 852 296 887 l 319 854 q 331 828 328 839 q 339 793 335 817 q 341 764 341 778 q 339 733 341 750 q 333 693 337 717 q 324 635 330 669 q 265 515 296 517 q 270 507 272 513 q 224 433 252 456 q 183 419 207 422 q 141 420 159 415 q 91 454 115 430 q 48 509 67 478 m 163 700 q 161 656 159 680 q 167 611 163 633 q 176 570 170 589 q 187 541 181 552 l 187 543 q 187 546 185 544 q 203 574 194 554 q 217 620 211 594 q 226 675 222 646 q 230 730 230 704 q 224 776 230 754 q 211 800 219 798 l 211 798 q 189 784 202 800 q 172 748 176 769 q 168 729 170 743 q 163 700 165 715 m 685 950 q 715 926 700 941 q 733 893 730 911 l 731 894 q 740 850 741 872 q 726 796 739 828 l 726 798 q 712 758 720 778 q 688 712 704 739 q 649 646 672 685 q 591 552 626 607 q 453 306 519 433 q 339 74 387 180 q 312 2 322 33 q 285 -85 302 -30 l 285 -83 q 271 -137 280 -113 q 257 -170 263 -161 q 225 -199 246 -191 q 181 -198 204 -207 q 135 -157 152 -187 q 119 -87 119 -128 q 137 0 119 -44 l 137 -2 q 157 50 144 20 q 192 121 170 80 q 244 221 213 163 q 317 363 274 280 q 416 553 374 472 q 486 693 457 633 q 533 794 515 752 q 563 870 552 837 l 561 870 q 584 923 574 909 q 609 948 594 937 q 644 956 620 956 q 683 950 669 957 l 685 950 m 743 337 q 807 276 780 317 q 816 257 813 267 q 822 224 819 248 q 822 169 826 198 q 809 87 819 139 q 806 77 807 83 q 806 67 806 70 q 781 -24 793 6 q 748 -56 769 -54 q 752 -63 756 -56 l 754 -61 q 732 -107 746 -87 q 702 -137 719 -128 l 704 -137 q 666 -150 689 -146 q 624 -148 643 -154 q 572 -116 596 -139 q 530 -61 548 -93 q 519 -31 524 -50 q 509 7 513 -13 q 505 48 506 28 q 504 83 504 69 q 541 236 509 172 q 626 330 572 300 q 659 344 650 343 q 691 346 669 346 q 720 344 711 346 q 743 337 730 343 m 713 159 q 706 206 713 185 q 693 231 700 228 l 694 230 q 673 216 685 233 q 654 180 661 198 q 646 131 646 161 q 644 88 643 111 q 648 43 644 65 q 657 2 652 20 q 670 -28 663 -17 q 670 -24 670 -28 q 686 4 678 -17 q 700 50 694 24 q 709 105 706 76 q 713 159 713 133 z "},"":{"ha":1178,"x_min":22,"x_max":1157,"o":"m 143 415 q 92 445 115 422 q 48 502 69 469 q 38 531 43 513 q 30 569 33 548 q 24 611 26 591 q 22 648 22 631 q 61 801 30 739 q 144 893 93 863 q 176 907 167 906 q 209 909 185 909 q 261 900 244 909 q 293 876 276 891 q 319 844 309 861 l 317 846 q 337 787 331 820 q 339 757 339 772 q 338 725 339 743 q 332 685 337 707 q 322 630 328 663 q 265 507 300 509 q 269 500 270 502 q 246 456 259 476 q 219 426 233 435 q 181 414 204 417 q 141 417 157 411 l 143 415 m 161 693 q 160 651 159 674 q 165 606 161 628 q 175 565 169 583 q 189 535 181 546 q 199 524 198 524 q 191 533 200 524 q 189 539 189 535 q 204 569 196 548 q 217 617 211 591 q 226 670 222 643 q 230 722 230 698 q 223 769 230 746 q 209 794 217 791 l 209 793 q 192 777 204 794 q 172 743 180 759 q 168 728 170 737 q 165 711 165 719 q 161 694 161 700 l 161 693 m 1080 328 q 1137 274 1115 307 l 1135 276 q 1147 251 1144 261 q 1154 217 1150 241 q 1156 155 1157 185 q 1139 59 1154 124 q 1081 -63 1117 -57 q 1085 -70 1089 -63 q 1066 -113 1078 -93 q 1039 -143 1054 -133 q 999 -157 1024 -154 q 959 -156 974 -161 q 906 -123 930 -146 q 863 -69 881 -100 q 844 0 854 -46 q 839 81 835 46 l 839 80 q 876 228 843 165 q 963 322 909 291 q 993 336 978 331 q 1033 341 1007 341 q 1059 338 1050 339 q 1080 328 1069 337 m 1048 152 q 1042 199 1048 178 q 1026 224 1035 220 q 1008 210 1020 228 q 989 172 996 193 q 984 157 987 167 q 981 141 981 148 q 978 124 978 133 q 977 81 976 104 q 981 35 978 57 q 992 -6 985 13 q 1006 -35 998 -26 q 1006 -30 1002 -33 q 1020 -4 1013 -24 q 1033 43 1028 17 q 1044 97 1039 69 q 1048 152 1048 126 m 683 943 q 733 885 719 924 l 733 887 q 728 791 748 850 q 712 753 720 772 q 688 706 704 733 q 649 641 672 680 q 589 544 626 602 q 449 299 511 419 q 339 67 387 180 q 322 27 330 44 q 309 -7 315 9 q 299 -44 304 -24 q 287 -91 294 -63 q 270 -144 281 -115 q 256 -181 259 -172 q 224 -206 246 -198 q 183 -206 202 -213 q 137 -165 154 -194 q 120 -96 120 -135 q 125 -54 120 -76 q 139 -7 130 -31 q 160 45 146 15 q 194 119 174 76 q 244 221 215 163 q 315 357 274 280 q 563 863 515 735 q 584 916 576 900 q 607 941 593 931 q 645 949 622 948 q 683 943 669 950 m 746 328 q 806 269 781 306 q 814 250 811 259 q 820 217 817 241 q 821 155 824 185 q 806 59 819 124 q 750 -63 783 -54 q 756 -61 754 -63 q 733 -110 748 -87 q 704 -143 719 -133 q 666 -157 691 -154 q 626 -156 641 -161 q 572 -123 596 -146 q 531 -67 548 -100 l 531 -69 q 508 0 517 -46 q 504 81 500 46 l 504 80 q 541 231 507 169 q 628 322 574 293 q 659 338 650 335 q 693 341 669 341 l 700 341 q 724 338 715 339 q 746 328 733 337 m 713 152 q 706 199 713 178 q 693 224 700 220 q 673 212 685 228 q 654 176 661 196 q 650 159 654 174 l 652 163 l 644 124 q 644 83 643 106 q 647 39 644 61 q 656 -2 650 17 q 669 -31 661 -20 l 670 -30 q 686 -3 678 -22 q 700 43 694 17 q 709 97 706 69 q 713 152 713 126 z "},"":{"ha":583,"x_min":22,"x_max":561,"o":"m 483 322 q 543 380 524 380 q 561 341 561 380 q 550 311 561 326 q 506 252 539 296 q 356 85 426 146 q 226 9 285 24 l 222 9 q 226 -40 222 -17 q 230 -78 230 -63 q 219 -125 230 -106 q 178 -144 209 -144 q 132 -121 146 -144 q 119 -67 119 -98 q 119 -44 119 -57 q 123 -19 120 -31 q 129 1 126 -7 q 137 9 131 9 q 131 22 131 15 q 133 30 131 28 q 128 20 128 26 q 130 17 128 17 q 49 94 76 39 q 22 250 22 150 q 42 361 22 304 q 94 469 61 419 q 169 560 128 520 q 256 620 211 600 l 261 622 q 269 666 269 650 q 270 693 270 681 q 273 712 270 704 q 285 730 276 720 l 285 728 q 333 754 306 754 q 371 739 354 754 q 389 693 389 724 q 382 658 389 678 q 376 630 376 639 q 383 619 376 620 l 381 619 q 438 567 419 600 q 457 493 457 533 q 444 422 457 457 q 412 359 431 387 q 369 314 393 331 q 324 296 344 296 q 270 317 293 296 q 248 369 248 337 q 254 400 248 383 q 274 446 259 417 q 286 471 280 456 q 296 502 293 487 q 230 456 263 491 q 170 378 196 422 q 129 285 144 333 q 113 196 113 237 q 134 107 113 137 q 189 78 156 78 q 250 96 215 78 q 324 148 285 115 q 404 226 363 181 q 483 322 444 270 z "},"":{"ha":739,"x_min":30,"x_max":696,"o":"m 511 576 q 501 586 504 581 q 498 600 498 591 q 502 649 498 626 q 506 687 506 672 q 492 742 506 715 q 457 769 478 769 q 406 730 431 769 q 357 636 380 691 q 319 520 335 581 q 296 415 302 459 q 300 416 300 415 q 304 417 300 417 l 302 417 q 331 421 311 419 q 372 427 350 424 q 416 431 394 430 q 448 431 437 431 q 540 406 502 431 q 578 344 578 380 q 559 300 578 317 q 496 283 541 283 q 421 289 467 283 q 326 294 376 294 q 299 294 311 294 q 280 293 287 294 l 269 250 q 246 136 259 194 q 226 52 233 78 q 381 107 293 87 q 548 128 470 128 q 659 100 622 128 q 696 31 696 72 q 659 -24 696 -6 l 661 -24 q 642 -31 652 -28 q 617 -33 631 -33 q 564 -29 596 -33 q 491 -24 531 -24 q 419 -28 456 -24 q 350 -41 381 -31 q 244 -79 287 -57 q 173 -119 202 -100 q 127 -150 144 -137 q 96 -163 109 -163 q 47 -142 65 -163 q 30 -98 30 -120 q 48 -54 30 -72 q 89 -22 67 -35 l 89 -24 q 110 10 100 -17 q 129 76 120 37 q 143 162 137 115 q 148 259 148 209 q 138 282 148 276 q 117 292 128 289 q 95 299 106 294 q 85 319 85 304 q 96 344 85 333 q 133 369 107 356 l 146 376 l 146 383 q 168 596 146 500 q 227 760 189 693 q 317 865 265 828 q 431 902 369 902 q 487 891 461 902 l 485 891 q 571 818 539 870 q 604 689 604 765 q 581 601 598 639 q 541 563 563 563 q 513 574 524 563 l 511 576 z "},"":{"ha":731,"x_min":26,"x_max":713,"o":"m 591 872 q 694 874 654 917 q 706 859 704 865 q 711 839 709 854 q 710 810 713 826 q 702 785 707 794 q 687 757 696 774 q 672 731 678 741 q 608 641 644 698 q 535 517 572 583 l 478 417 q 511 413 496 413 q 597 404 567 411 q 644 380 628 396 q 667 348 665 361 q 654 317 669 335 l 648 307 q 635 304 644 304 l 591 306 q 547 307 576 307 q 487 307 519 307 q 424 307 452 307 q 398 309 396 307 q 396 297 396 309 q 397 271 396 285 q 399 244 398 257 q 400 224 400 230 q 417 228 400 224 q 439 230 430 228 l 494 235 q 553 239 535 239 q 585 230 570 239 q 637 169 628 209 q 572 109 646 107 q 550 111 563 109 q 526 117 537 113 l 528 115 q 496 120 515 119 q 448 122 478 122 l 404 122 q 406 85 402 113 q 413 20 409 57 q 419 -49 417 -22 q 420 -93 420 -76 q 418 -119 420 -109 q 409 -139 415 -130 q 371 -172 396 -165 q 322 -165 346 -180 q 284 -129 296 -150 q 265 -50 272 -107 q 260 -5 261 -26 q 259 39 259 17 l 259 61 q 261 101 261 81 q 261 124 261 120 q 251 107 257 109 q 213 98 244 106 l 191 94 l 163 89 q 114 82 124 83 q 93 89 104 81 q 67 130 67 104 q 96 170 67 156 q 156 189 113 180 q 239 206 200 198 q 270 213 267 213 q 274 237 272 222 q 278 266 276 252 q 281 291 280 280 q 281 302 281 302 l 278 306 q 253 294 280 302 q 189 276 226 285 q 97 263 126 261 q 48 285 69 265 q 30 337 26 307 q 61 385 33 367 q 128 404 80 396 q 230 413 176 411 q 168 526 196 459 q 124 670 139 593 q 111 775 109 733 q 131 828 113 817 q 161 834 144 835 q 189 824 178 833 q 215 788 204 813 q 241 709 226 763 q 337 485 285 543 l 341 491 q 372 540 352 507 q 441 656 393 572 q 529 798 489 741 q 591 872 569 856 z "},"":{"ha":765,"x_min":17,"x_max":744,"o":"m 602 889 q 669 869 641 885 q 722 819 698 854 q 734 794 731 804 q 741 757 737 783 q 744 718 744 731 q 741 689 744 704 q 710 606 731 641 q 669 570 689 570 q 631 588 637 570 q 637 639 624 606 q 655 683 648 663 q 661 724 661 704 q 631 778 661 759 l 633 778 q 587 776 619 785 q 490 697 539 761 q 398 535 441 633 q 396 530 398 531 q 393 522 393 522 q 394 523 394 522 q 396 524 394 524 q 437 526 409 524 q 485 528 465 528 q 537 530 519 531 q 570 524 556 528 q 644 459 635 506 q 617 406 648 424 q 531 398 585 389 l 533 398 q 500 403 520 400 q 457 407 480 406 q 414 410 435 409 q 376 411 393 411 l 354 411 q 353 407 352 407 q 354 406 354 407 q 346 381 350 396 q 339 353 343 367 q 331 328 335 339 q 328 315 328 317 q 358 314 333 315 q 420 311 383 313 q 493 309 465 311 q 537 305 520 307 q 563 297 554 302 q 581 283 572 293 q 597 255 598 267 q 585 228 596 243 q 548 209 574 213 q 457 206 522 206 q 395 205 415 206 q 356 200 376 204 l 357 202 q 341 196 346 196 q 322 193 330 193 q 323 177 320 189 q 330 148 326 165 q 340 114 333 131 q 352 81 346 96 q 448 -20 380 9 q 485 -26 459 -26 q 531 -20 511 -26 q 592 6 569 -11 q 630 50 615 24 l 630 48 q 693 107 661 113 q 719 86 713 104 q 715 41 726 69 l 715 43 q 701 17 711 33 q 679 -18 691 0 q 655 -51 667 -35 q 633 -76 643 -67 q 526 -134 589 -117 q 406 -137 463 -152 q 284 -67 337 -117 q 202 59 231 -17 l 202 57 q 190 94 196 72 q 180 135 183 117 q 181 165 174 161 l 144 157 q 88 151 107 148 q 50 169 69 154 q 20 239 17 196 q 60 284 28 269 q 161 307 93 300 l 170 307 l 174 333 q 178 368 176 350 q 183 394 180 385 q 185 406 185 402 q 185 413 185 411 q 178 402 185 407 q 161 394 170 396 q 115 391 124 391 q 93 400 106 391 q 76 425 78 409 q 83 456 74 441 q 202 494 96 474 l 209 494 l 213 502 q 219 517 215 506 q 279 647 246 589 q 357 756 311 706 l 356 756 q 600 889 472 894 l 602 889 z "},"":{"ha":985,"x_min":20,"x_max":965,"o":"m 643 744 q 738 705 696 730 q 820 643 780 680 q 919 510 883 583 q 961 343 956 437 q 946 206 965 278 q 891 74 928 133 l 893 74 q 847 13 878 48 q 793 -43 817 -22 q 667 -130 735 -93 q 528 -183 598 -167 q 481 -189 513 -187 q 417 -191 450 -191 q 378 -190 396 -191 q 350 -187 359 -189 q 235 -150 289 -174 q 143 -91 181 -126 q 119 -67 126 -76 q 104 -43 111 -57 q 94 -19 94 -26 q 96 4 93 -11 q 96 15 98 11 q 89 28 94 19 q 53 100 70 59 q 26 176 35 141 q 21 212 22 191 q 20 257 20 233 q 24 326 20 289 q 33 389 28 363 q 71 486 44 435 q 130 576 98 537 q 230 669 172 628 q 357 735 287 709 q 426 754 394 748 q 496 761 457 759 q 643 744 574 763 m 798 287 q 806 354 806 317 q 793 444 806 400 q 752 524 780 489 q 644 614 707 583 q 506 644 580 644 q 363 617 431 644 q 220 515 283 585 q 130 363 157 444 q 115 308 120 337 q 109 256 109 280 q 119 169 107 217 q 152 80 131 122 l 163 54 l 170 54 q 276 13 206 48 q 339 -13 307 -2 q 402 -24 370 -24 q 465 -17 433 -24 q 577 23 522 -6 q 677 94 631 52 q 755 184 722 135 q 798 287 787 233 m 680 320 q 733 376 717 370 q 754 344 750 381 q 746 317 756 333 q 702 248 737 300 q 552 81 620 141 q 419 6 483 22 q 379 0 402 0 q 343 4 356 0 q 279 45 307 15 q 235 122 250 76 l 235 120 q 225 154 230 133 q 218 196 220 174 q 215 240 215 219 q 217 278 215 261 q 256 408 228 344 q 328 524 283 472 q 376 569 352 550 q 431 606 400 589 l 430 606 q 479 626 457 620 q 526 630 500 631 q 620 580 585 626 q 650 469 656 533 q 636 420 646 446 q 613 371 626 394 q 584 330 600 348 q 556 304 569 311 q 485 300 519 283 q 444 357 452 317 q 463 433 439 383 q 478 466 470 448 q 489 496 485 483 q 437 463 467 487 q 387 413 407 439 q 356 360 370 389 q 331 302 343 331 q 314 244 320 272 q 307 193 307 215 q 310 156 307 174 q 319 126 313 139 q 383 74 337 74 q 407 78 396 74 q 433 87 419 81 q 550 175 485 113 q 680 320 615 237 m 506 502 q 502 500 504 502 q 506 502 502 500 z "},"":{"ha":989,"x_min":20,"x_max":967,"o":"m 644 726 q 739 685 698 709 q 822 624 780 661 q 922 488 887 561 q 963 322 957 415 q 950 185 967 256 q 896 54 933 115 q 849 -8 880 28 q 796 -65 819 -44 q 671 -151 741 -115 q 528 -202 602 -187 q 481 -207 513 -206 q 415 -209 448 -209 q 377 -209 394 -209 q 350 -206 359 -209 q 238 -172 291 -196 q 146 -113 185 -148 q 119 -87 126 -94 q 106 -70 111 -80 q 95 -40 96 -46 q 98 -19 94 -33 l 98 -20 q 99 -9 100 -13 q 91 4 98 -6 q 55 76 72 31 q 28 157 37 120 q 22 193 24 172 q 20 239 20 213 q 24 306 20 270 q 35 374 28 343 q 73 466 50 417 q 130 556 96 515 q 359 715 215 665 q 428 735 400 730 q 498 743 456 741 q 577 741 546 744 q 644 726 607 737 m 798 267 q 806 335 806 298 q 794 427 806 381 q 756 504 781 472 q 644 592 709 559 q 506 624 578 624 q 435 617 472 624 q 365 596 398 609 q 219 494 283 563 q 128 344 156 426 l 130 344 q 109 235 113 287 q 121 146 109 196 q 154 52 133 96 l 163 33 q 167 32 165 33 q 170 31 169 31 q 278 -9 207 30 q 341 -34 309 -24 q 404 -44 372 -44 q 432 -43 417 -44 q 465 -37 448 -41 q 578 4 522 -26 q 679 75 633 33 q 756 166 724 117 q 798 267 787 215 m 587 572 q 628 548 607 563 q 657 519 648 533 q 674 468 670 500 q 672 413 678 435 q 627 333 663 372 q 522 250 591 294 l 537 248 q 609 222 585 233 q 648 200 633 211 q 685 153 674 180 q 687 102 696 126 l 687 104 q 631 69 676 69 q 594 77 615 69 q 539 107 574 85 q 486 141 517 122 q 427 175 456 159 q 377 202 398 191 q 352 213 356 213 q 357 156 356 209 q 358 142 357 148 q 359 130 359 135 q 358 67 361 93 q 346 28 356 41 q 265 17 309 -6 q 223 56 239 26 q 206 124 207 87 q 220 229 204 161 q 265 376 237 296 q 301 472 285 431 q 330 530 317 513 q 395 572 348 556 q 494 589 443 589 q 543 585 519 589 q 587 572 567 581 m 530 431 q 553 459 544 446 q 557 480 561 472 q 542 498 554 489 q 515 511 530 507 q 493 516 506 515 q 467 517 480 517 q 443 515 457 517 q 419 511 428 513 q 403 504 409 507 q 394 496 396 500 l 389 480 q 388 469 391 485 q 383 443 385 454 q 373 402 378 426 q 365 357 369 378 l 369 357 q 391 368 376 361 q 420 378 406 374 q 484 402 452 387 q 530 430 517 417 l 530 431 m 344 344 l 330 333 l 359 320 q 361 330 359 326 q 362 341 361 333 q 365 357 363 348 l 354 352 l 344 344 z "},"":{"ha":517,"x_min":24,"x_max":496,"o":"m 431 737 q 494 681 485 737 q 487 645 496 661 q 448 609 478 630 q 441 604 452 613 q 422 589 430 594 q 419 587 420 587 q 417 585 419 587 l 413 581 l 411 580 l 419 563 l 419 565 q 465 294 472 461 q 458 211 461 244 q 451 156 456 178 q 441 120 446 133 q 428 98 435 107 q 406 86 419 89 q 383 83 394 83 l 411 54 l 409 54 q 456 4 439 22 q 479 -28 472 -15 q 485 -51 485 -41 q 481 -76 485 -61 q 447 -112 472 -104 q 393 -106 422 -120 q 335 -24 365 -91 q 330 6 330 -13 q 324 -6 330 0 q 305 -21 315 -15 q 285 -30 294 -28 q 225 -33 259 -39 q 165 -7 191 -28 q 155 -12 161 -4 q 139 -35 148 -20 q 78 -87 109 -87 q 55 -83 61 -87 q 39 -69 48 -80 q 33 -20 24 -46 q 76 46 43 6 l 102 74 l 96 83 q 63 183 76 124 q 48 296 50 243 q 52 364 48 328 q 62 434 56 400 q 79 501 69 469 q 102 557 89 533 q 106 568 106 563 q 109 574 107 572 q 103 584 107 576 q 91 603 98 593 q 77 621 83 613 q 65 635 70 630 q 38 669 44 656 q 28 696 31 681 q 34 733 24 717 q 61 763 44 750 q 113 763 89 776 q 149 736 135 754 q 178 676 163 719 l 178 678 q 181 669 180 674 q 183 661 183 665 q 185 654 183 657 q 192 636 189 643 q 194 631 194 630 l 193 637 q 189 648 189 646 q 193 652 189 650 l 206 656 l 196 654 q 223 668 215 665 q 263 670 231 670 q 298 668 289 670 q 330 654 307 665 l 330 631 q 349 667 333 643 q 374 700 365 691 q 431 737 396 737 m 367 89 q 381 83 380 81 l 367 89 m 348 219 q 363 287 357 250 q 369 361 369 324 q 364 432 369 400 q 352 485 359 465 q 280 563 326 563 q 231 533 256 563 q 206 484 217 515 q 191 424 194 454 q 195 294 185 370 q 230 144 206 217 q 252 91 243 107 q 272 70 261 74 q 291 80 280 70 q 310 105 300 87 q 330 144 320 122 q 337 170 331 154 q 337 176 343 187 l 335 172 q 339 181 337 178 q 341 183 341 185 q 343 193 341 187 q 345 203 344 196 q 350 219 346 209 l 348 219 z "},"":{"ha":224,"x_min":15,"x_max":202,"o":"m 28 804 q 52 839 33 828 q 93 850 70 850 q 161 820 133 850 q 198 739 193 789 q 194 665 202 702 q 161 593 187 628 l 161 594 q 91 557 128 541 q 67 588 70 565 q 78 635 63 611 l 78 633 q 85 658 81 643 q 87 689 89 674 q 82 701 85 698 q 67 711 80 704 l 69 711 q 33 744 44 724 q 26 804 15 772 l 28 804 z "},",":{"ha":172,"x_min":-6,"x_max":157,"o":"m 93 144 q 140 105 122 133 q 154 44 157 76 q 145 9 152 30 q 129 -31 139 -11 q 106 -67 119 -50 q 83 -89 94 -83 l 85 -89 q 64 -100 72 -100 q 46 -94 56 -100 q 19 -63 24 -85 q 22 -46 19 -56 q 30 -30 26 -37 q 42 -8 39 -20 q 46 17 44 4 l 31 28 q 2 64 9 48 q 0 104 -6 80 q 35 145 9 133 q 93 144 61 157 z "},".":{"ha":154,"x_min":-6,"x_max":143,"o":"m 96 131 q 127 104 119 117 q 139 67 135 91 q 137 26 143 39 q 111 0 131 13 l 113 0 q 83 -11 102 -9 q 50 -7 65 -13 l 52 -7 q 25 12 39 -4 q 4 37 11 28 q -4 68 -6 52 q 6 98 -2 83 l 4 96 q 56 139 11 137 q 78 138 70 139 q 98 130 85 137 l 96 131 z "},";":{"ha":224,"x_min":22,"x_max":206,"o":"m 139 133 q 188 93 170 120 q 202 30 206 65 q 193 -6 200 15 q 175 -46 185 -26 q 152 -83 165 -67 q 126 -107 139 -100 q 112 -116 115 -115 q 89 -107 109 -117 q 72 -94 80 -104 q 65 -74 65 -83 q 68 -63 65 -70 q 76 -46 70 -56 q 88 -25 85 -35 q 94 0 91 -15 q 91 2 93 0 q 78 13 87 4 q 49 50 56 33 q 48 89 43 67 q 81 133 54 120 q 139 133 109 146 m 81 357 q 101 356 93 357 q 119 350 109 356 q 151 322 143 335 q 163 285 159 309 q 160 244 165 257 q 137 219 156 231 q 104 207 122 209 q 72 211 85 206 l 74 211 q 49 230 63 215 q 31 254 35 244 l 31 252 q 23 284 24 267 q 30 317 22 302 l 28 315 q 46 345 35 337 q 78 357 57 354 l 81 357 z "},"\"":{"ha":378,"x_min":22,"x_max":370,"o":"m 241 920 q 293 923 269 933 q 335 891 317 913 q 311 787 370 831 l 315 789 l 274 744 l 274 746 q 248 719 257 726 q 228 711 239 711 q 198 722 213 711 q 185 809 176 750 q 243 920 194 904 l 241 920 m 113 924 q 157 909 139 924 q 181 869 176 894 q 109 735 187 831 l 111 737 q 89 720 102 722 q 61 722 76 719 q 31 767 41 730 q 30 837 22 804 q 113 924 46 924 z "},"":{"ha":400,"x_min":13,"x_max":394,"o":"m 128 906 q 202 933 161 933 q 294 896 248 933 l 293 896 q 354 744 394 809 q 265 730 324 704 q 213 772 241 741 q 187 804 193 798 q 178 809 181 809 q 144 795 169 809 q 106 767 120 781 q 70 739 81 744 q 44 737 59 733 q 33 798 13 748 q 52 823 39 807 q 79 855 65 839 q 106 884 93 870 q 128 906 119 898 z "},"":{"ha":409,"x_min":17,"x_max":389,"o":"m 289 833 q 322 839 307 828 q 356 857 337 859 q 383 837 376 856 l 383 839 q 381 799 389 824 q 361 763 374 774 q 307 739 341 746 q 243 741 274 731 q 135 804 193 752 q 110 828 115 824 q 100 830 106 831 q 80 820 93 830 q 42 806 54 804 q 22 835 30 809 q 50 900 17 863 q 87 929 70 920 q 130 937 104 937 q 176 925 154 937 q 230 881 198 913 q 269 845 259 854 q 289 833 280 837 z "},"":{"ha":276,"x_min":24,"x_max":256,"o":"m 213 919 q 244 886 233 906 q 256 848 256 867 q 232 792 256 819 q 176 746 209 765 l 165 743 q 134 719 157 726 q 91 720 111 711 l 93 720 q 60 742 74 726 q 37 776 46 757 q 31 838 24 806 q 59 893 37 870 q 134 931 91 924 q 211 919 178 939 l 213 919 m 156 848 q 136 852 146 854 q 119 843 126 850 q 113 813 107 831 q 126 800 117 804 q 144 806 137 794 l 146 807 q 167 831 167 817 q 156 848 167 841 z "},"`":{"ha":317,"x_min":20,"x_max":298,"o":"m 293 743 q 259 719 280 719 q 214 724 243 717 q 155 744 185 731 q 95 770 124 756 q 52 798 67 785 q 30 832 39 813 q 20 867 20 852 q 46 927 20 904 q 117 937 72 950 l 115 937 q 185 881 154 926 q 214 844 198 861 q 256 807 230 828 q 281 785 269 798 q 294 765 293 772 q 296 753 298 757 q 293 743 294 748 z "},"":{"ha":304,"x_min":22,"x_max":281,"o":"m 267 817 q 241 787 259 804 q 200 754 222 770 q 153 722 178 737 q 106 700 128 707 l 107 700 q 59 692 76 689 q 31 707 43 694 q 25 737 22 724 q 48 770 28 750 q 92 824 76 796 q 115 883 107 852 q 174 950 128 941 l 172 948 q 203 948 183 952 q 237 935 222 944 q 272 882 263 915 q 267 819 281 850 l 267 817 z "},"'":{"ha":224,"x_min":15,"x_max":202,"o":"m 28 804 q 52 839 33 828 q 93 850 70 850 q 161 820 133 850 q 198 739 193 789 q 194 665 202 702 q 161 593 187 628 l 161 594 q 91 557 128 541 q 67 588 70 565 q 78 635 63 611 l 78 633 q 85 658 81 643 q 87 689 89 674 q 82 701 85 698 q 67 711 80 704 l 69 711 q 33 744 44 724 q 26 804 15 772 l 28 804 z "},"/":{"ha":657,"x_min":19,"x_max":639,"o":"m 183 -19 q 168 -69 176 -44 q 154 -102 159 -93 q 121 -132 143 -124 q 80 -133 100 -141 q 33 -93 48 -122 q 19 -22 19 -63 q 22 21 19 0 q 31 65 26 43 q 52 111 39 83 q 85 181 65 139 q 137 282 106 222 q 213 430 169 343 q 311 618 270 537 q 381 758 352 698 q 430 861 411 819 q 461 937 448 904 q 480 986 470 969 q 507 1013 489 1004 q 544 1021 520 1020 q 578 1017 567 1022 q 610 992 596 1007 q 631 959 624 976 q 637 916 639 937 q 626 863 635 894 q 609 825 619 844 q 585 779 600 806 q 546 713 570 752 q 487 619 522 674 q 350 373 415 500 q 237 139 285 246 q 221 102 228 119 q 209 68 215 85 q 197 29 204 50 q 183 -20 191 7 l 183 -19 l 183 -19 z "},"":{"ha":846,"x_min":-98,"x_max":828,"o":"m 465 344 q 439 319 465 330 q 376 299 413 307 q 297 286 339 291 q 222 281 256 281 l 193 135 q 169 -11 178 70 q 150 -181 159 -93 q 128 -314 144 -269 q 70 -359 111 -359 q 11 -327 33 -359 q -20 -237 -11 -294 q -8 -69 -28 -183 q 61 213 11 44 l 83 281 l 83 285 q 85 289 83 287 l 59 289 q -55 309 -19 293 q -94 361 -91 326 q -76 411 -98 387 q 13 435 -54 435 q 72 426 44 435 q 124 394 100 417 q 234 655 178 537 q 348 856 291 772 q 464 985 406 939 q 578 1031 522 1031 q 651 1004 620 1031 q 685 939 681 976 q 682 899 687 920 q 669 860 678 878 q 651 831 661 843 q 631 819 641 819 q 611 827 617 819 q 602 846 606 835 q 602 862 602 852 q 604 881 602 872 q 604 917 607 906 q 596 933 600 933 q 513 884 557 933 q 423 755 469 835 q 333 571 378 674 q 250 363 289 469 q 263 365 256 365 q 344 370 302 365 q 381 373 359 372 q 402 376 404 374 q 453 366 441 376 q 465 344 465 356 m 20 369 l 19 370 q 14 371 15 372 q 11 370 13 370 q -12 355 -19 365 q 16 335 -6 344 q 61 319 37 326 q 91 313 85 313 q 97 329 98 322 q 93 337 96 335 q 62 353 87 341 q 24 369 37 365 l 20 369 m 591 348 q 500 148 528 220 q 469 50 472 76 q 709 256 539 63 q 774 326 754 307 q 811 341 794 344 q 826 326 826 337 q 808 284 828 317 q 758 210 789 252 q 689 123 728 169 q 615 41 650 78 q 515 -48 554 -24 q 433 -72 476 -72 q 363 -38 389 -72 q 328 48 337 -4 q 443 433 315 170 q 493 534 472 496 q 528 593 513 572 q 556 620 543 613 q 585 628 569 628 q 638 608 617 628 q 665 557 659 589 q 659 500 667 530 q 642 454 656 483 q 591 348 628 424 m 785 789 q 785 769 787 778 q 764 731 781 748 q 720 696 746 715 q 694 673 702 683 q 681 656 685 663 q 670 640 676 644 q 646 635 665 635 q 614 657 628 635 q 596 704 600 680 q 602 758 593 731 q 628 806 611 785 q 666 840 644 828 q 707 852 687 852 q 760 831 739 852 q 785 789 781 811 z "},"":{"ha":830,"x_min":-98,"x_max":881,"o":"m 465 344 q 439 319 465 330 q 376 299 413 307 q 297 286 339 291 q 222 281 256 281 l 193 135 q 169 -11 178 70 q 150 -181 159 -93 q 128 -314 144 -269 q 70 -359 111 -359 q 11 -327 33 -359 q -20 -237 -11 -294 q -8 -69 -28 -183 q 61 213 11 44 l 83 281 l 83 285 q 85 289 83 287 l 59 289 q -55 309 -19 293 q -94 361 -91 326 q -76 411 -98 387 q 13 435 -54 435 q 72 426 44 435 q 124 394 100 417 q 234 655 178 537 q 348 856 291 772 q 464 985 406 939 q 578 1031 522 1031 q 651 1004 620 1031 q 685 939 681 976 q 682 899 687 920 q 669 860 678 878 q 651 831 661 843 q 631 819 641 819 q 611 827 617 819 q 602 846 606 835 q 602 862 602 852 q 604 881 602 872 q 604 917 607 906 q 596 933 600 933 q 513 884 557 933 q 423 755 469 835 q 333 571 378 674 q 250 363 289 469 q 263 365 256 365 q 344 370 302 365 q 381 373 359 372 q 402 376 404 374 q 453 366 441 376 q 465 344 465 356 m 20 369 l 19 370 q 14 371 15 372 q 11 370 13 370 q -12 355 -19 365 q 16 335 -6 344 q 61 319 37 326 q 91 313 85 313 q 97 329 98 322 q 93 337 96 335 q 62 353 87 341 q 24 369 37 365 l 20 369 m 524 180 q 506 98 513 137 q 494 29 498 59 q 489 -20 491 -2 q 485 -41 487 -39 q 525 -7 498 -39 q 583 68 552 24 q 650 162 615 111 q 717 256 685 213 q 772 329 748 300 q 807 357 796 357 q 817 346 817 357 q 806 306 817 331 q 776 239 796 281 q 705 102 744 170 q 623 -21 665 33 q 544 -110 581 -76 q 476 -144 506 -144 q 434 -133 446 -144 q 404 -98 422 -122 q 386 -59 393 -81 q 376 -16 380 -37 q 371 23 372 6 q 370 48 370 41 q 394 253 370 135 q 462 499 419 370 q 567 756 506 628 q 702 994 628 885 q 750 1054 731 1039 q 798 1069 769 1069 q 856 1041 830 1069 q 881 980 881 1013 q 870 943 881 963 q 828 874 859 922 l 830 874 q 723 683 769 772 q 642 511 678 594 q 578 346 606 428 q 524 178 550 265 l 524 180 z "},"":{"ha":867,"x_min":59,"x_max":835,"o":"m 104 -98 q 71 -42 83 -72 q 59 57 59 -11 q 98 301 59 163 q 196 578 137 439 q 269 727 226 644 q 358 881 313 809 q 444 1003 404 954 q 507 1052 485 1052 q 557 1030 539 1052 q 576 976 576 1007 q 568 922 578 950 q 526 841 557 894 l 483 757 q 313 416 383 561 q 213 167 243 270 l 213 169 q 195 88 202 124 q 189 26 189 52 q 213 -28 189 -28 q 229 -26 219 -28 q 254 -20 239 -24 q 281 -12 267 -17 q 318 1 296 -7 q 371 22 339 9 q 456 56 404 35 q 610 112 550 94 q 713 130 670 130 q 801 100 769 130 q 835 28 833 70 q 813 -19 833 -4 q 756 -33 793 -33 q 738 -32 746 -33 q 720 -30 730 -31 q 694 -27 707 -28 q 667 -26 681 -26 q 607 -30 637 -26 q 544 -42 578 -33 q 468 -63 509 -50 q 374 -94 426 -76 l 343 -106 q 255 -134 283 -126 q 194 -143 226 -143 q 145 -131 165 -143 q 106 -100 126 -120 l 104 -98 m 458 222 q 387 227 430 226 q 296 229 344 229 q 210 227 250 229 q 147 222 169 226 q 142 221 144 222 q 136 221 139 221 q 106 218 114 217 q 88 224 99 219 l 90 224 q 67 252 73 233 q 71 290 61 271 l 70 288 q 94 311 77 302 q 152 328 111 320 q 223 343 190 337 q 286 353 255 349 q 349 357 316 356 q 421 358 381 358 l 466 358 q 506 356 496 358 q 527 351 517 354 q 559 333 544 342 q 580 309 574 323 l 579 309 q 588 284 586 295 q 585 259 590 273 l 585 261 q 537 221 576 227 q 510 219 526 219 q 458 222 494 219 z "},"":{"ha":444,"x_min":-102,"x_max":496,"o":"m 139 180 q 120 98 128 137 q 109 29 113 59 q 104 -20 106 -2 q 100 -41 102 -39 q 140 -7 113 -39 q 198 68 167 24 q 265 162 230 111 q 331 256 300 213 q 387 329 363 300 q 422 357 411 357 q 431 346 431 357 q 421 306 431 331 q 391 239 411 281 q 319 102 359 170 q 238 -21 280 33 q 158 -110 196 -76 q 91 -144 120 -144 q 49 -133 61 -144 q 19 -98 37 -122 q 1 -59 7 -81 q -9 -16 -6 -37 q -14 23 -13 6 q -15 48 -15 41 q 9 253 -15 135 q 77 499 33 370 q 181 756 120 628 q 317 994 243 885 q 365 1054 346 1039 q 413 1069 383 1069 q 470 1041 444 1069 q 496 980 496 1013 q 485 943 496 963 q 443 874 474 922 l 444 874 q 338 683 383 772 q 256 511 293 594 q 193 346 220 428 q 139 178 165 265 l 139 180 m 286 378 q 216 383 258 381 q 128 384 174 384 q 44 383 84 384 q -17 378 4 381 q -22 377 -20 378 q -28 376 -25 376 q -56 374 -49 373 q -74 379 -64 375 l -73 379 q -95 405 -89 388 q -91 441 -100 423 l -92 440 q -68 461 -85 453 q -13 477 -52 469 q 56 491 25 485 q 118 500 88 496 q 179 504 148 503 q 249 504 210 504 l 293 504 q 332 503 322 504 q 353 498 343 501 q 384 481 369 490 q 404 459 399 472 l 403 459 q 412 435 410 446 q 408 412 414 425 l 408 414 q 362 376 400 383 q 336 375 351 375 q 286 378 321 375 z "},"":{"ha":774,"x_min":-30,"x_max":980,"o":"m 39 241 q 110 316 67 272 q 231 430 154 359 l 274 469 l 259 469 q 221 465 239 467 q 198 463 204 463 q 167 474 174 463 q 159 494 159 485 q 330 554 159 539 l 344 554 q 363 556 356 554 q 379 562 370 557 q 398 577 387 567 q 430 606 409 587 l 470 644 q 567 736 520 691 q 649 818 613 781 q 706 877 685 854 q 728 904 728 900 q 714 907 728 906 q 677 910 700 909 q 625 912 654 911 q 569 913 596 913 q 383 893 470 913 q 232 841 296 872 q 131 771 169 809 q 93 696 93 733 q 97 680 93 691 q 109 656 102 669 q 123 634 117 644 q 135 619 130 624 l 137 615 q 141 596 144 607 q 130 580 137 581 q 115 578 122 578 q 84 590 102 578 q 50 622 67 602 q 21 669 33 643 q 9 724 9 696 q 61 837 15 780 q 192 942 107 894 q 395 1019 276 989 q 665 1048 515 1048 q 820 1018 774 1048 q 867 909 867 987 q 854 852 867 881 q 812 784 841 822 q 736 699 783 746 q 620 589 689 652 l 600 570 l 602 570 l 585 554 q 645 523 628 544 q 661 476 663 502 q 619 424 659 424 q 591 435 606 424 q 562 448 581 441 q 491 461 543 456 q 481 463 483 461 l 441 426 q 367 356 407 394 q 290 281 326 317 q 227 217 254 244 q 191 178 200 189 q 247 175 215 178 q 314 167 280 172 q 381 151 348 161 q 439 128 413 141 q 471 106 454 119 q 512 79 489 94 q 566 41 535 63 q 639 -13 596 19 q 765 -93 717 -67 q 859 -119 813 -119 l 893 -119 q 902 -110 896 -115 q 913 -102 907 -106 q 937 -87 924 -93 q 954 -81 950 -81 q 974 -92 970 -81 q 980 -124 978 -102 q 966 -167 980 -146 q 930 -202 952 -187 q 878 -225 907 -217 q 819 -233 848 -233 q 720 -221 767 -233 q 626 -186 674 -209 q 526 -128 578 -163 q 413 -44 474 -93 q 321 20 357 -4 q 261 56 285 44 q 219 71 237 69 q 181 74 202 74 l 157 74 q 126 62 144 74 q 94 41 107 50 q 61 19 80 30 q 24 7 43 7 q -9 33 9 7 q -30 96 -28 59 q -11 163 -28 122 q 39 241 6 204 m 526 1248 l 526 1250 q 537 1348 489 1348 q 565 1333 550 1348 q 585 1304 580 1319 l 613 1230 q 626 1256 620 1243 q 637 1283 631 1269 q 670 1343 657 1326 q 704 1363 683 1359 q 753 1348 730 1367 q 780 1302 776 1330 q 761 1230 783 1276 q 702 1143 739 1183 q 679 1121 693 1133 q 657 1104 665 1109 q 620 1096 641 1096 q 583 1106 600 1096 l 585 1106 q 556 1133 565 1115 q 539 1191 548 1152 l 526 1248 m 611 1224 l 606 1217 q 611 1224 613 1224 z "},"":{"ha":574,"x_min":-346,"x_max":556,"o":"m 254 -169 q 206 -339 244 -254 q 110 -493 167 -424 q -14 -605 54 -561 q -148 -648 -81 -648 q -219 -635 -187 -648 q -277 -600 -252 -622 q -318 -548 -302 -578 q -339 -485 -333 -519 q -323 -374 -346 -433 q -248 -253 -300 -315 q -116 -129 -196 -191 q 72 -11 -35 -67 q 120 11 119 13 q 74 62 117 39 q -28 85 31 85 q -44 84 -37 85 q -59 83 -52 83 l -76 83 q -116 96 -102 83 q -133 128 -130 109 q -131 151 -135 141 q -111 177 -128 161 q -62 218 -94 193 q 26 285 -30 243 q 170 397 109 344 q 246 470 231 450 q 205 465 231 469 q 148 457 178 461 q 93 447 120 452 q 48 443 65 443 q -8 463 13 443 q -33 511 -30 483 q -19 557 -37 539 q 31 589 -2 576 q 110 607 65 602 q 209 613 156 613 q 326 584 283 613 q 378 511 369 556 q 369 461 380 487 q 325 401 357 435 q 236 320 293 367 q 91 209 180 274 q 50 180 67 193 q 24 159 33 167 q 125 124 78 150 q 198 61 172 98 l 198 56 l 313 124 q 376 172 341 143 q 437 230 411 202 q 467 275 452 246 q 493 324 481 304 q 510 357 502 344 q 528 370 519 370 q 548 364 544 370 q 552 348 552 357 q 536 279 556 320 q 479 189 517 237 q 386 93 441 141 q 265 6 331 44 q 235 -9 246 -9 q 244 -43 241 -24 q 252 -76 248 -61 q 256 -122 256 -100 q 254 -169 256 -144 m -135 -498 q -41 -427 -89 -480 q 47 -308 7 -374 q 111 -175 87 -243 q 131 -57 135 -107 q 77 -94 115 -69 q 11 -137 39 -120 q -81 -207 -39 -169 q -155 -289 -124 -246 q -200 -376 -185 -331 q -209 -461 -215 -420 q -172 -506 -204 -506 q -155 -504 -163 -506 q -135 -498 -146 -502 m 107 828 l 107 830 q 119 928 70 928 q 146 913 131 928 q 167 883 161 898 l 194 809 q 207 835 202 822 q 219 863 213 848 q 252 922 239 906 q 285 943 265 939 q 334 928 311 946 q 361 881 357 909 q 343 809 365 856 q 283 722 320 763 q 260 701 274 713 q 239 683 246 689 q 202 676 222 676 q 165 685 181 676 l 167 685 q 138 713 146 694 q 120 770 130 731 l 107 828 m 193 804 l 187 796 q 193 804 194 804 z "},"<":{"ha":506,"x_min":20,"x_max":480,"o":"m 139 550 q 192 563 167 556 q 231 576 217 570 q 330 603 298 602 q 370 578 361 604 l 370 580 q 362 544 378 565 q 320 515 346 524 q 230 480 269 494 q 187 459 191 465 q 207 469 213 469 q 253 457 222 465 q 315 444 283 450 q 418 414 387 426 q 461 380 448 402 l 461 381 q 459 320 480 350 q 396 281 439 291 q 347 282 378 278 q 280 296 317 287 q 203 320 243 306 q 124 356 163 335 l 126 356 l 107 363 q 74 381 89 370 q 50 400 59 391 q 27 442 33 417 q 26 483 20 467 q 58 521 33 509 q 137 550 83 533 l 139 550 m 206 469 l 204 470 l 206 469 z "},">":{"ha":472,"x_min":24,"x_max":450,"o":"m 307 550 q 396 521 370 533 q 435 489 422 509 q 448 444 450 472 q 435 400 446 415 q 418 381 430 389 q 391 365 406 374 l 393 367 l 372 356 q 303 320 339 335 q 231 296 267 306 q 166 282 196 287 q 117 281 135 278 q 49 319 74 291 q 35 378 24 346 l 33 376 q 64 413 37 400 q 161 444 91 426 q 214 457 187 450 q 256 469 241 465 q 201 487 235 476 q 126 513 167 498 q 81 542 102 522 q 65 576 61 561 q 100 601 67 602 q 207 576 133 600 q 251 564 222 570 q 307 550 280 557 m 281 459 q 273 462 280 459 q 257 469 267 465 q 281 459 257 467 m 263 470 q 261 469 261 470 q 259 469 261 469 q 263 470 261 469 z "},":":{"ha":219,"x_min":22,"x_max":198,"o":"m 83 369 q 103 368 94 369 q 120 359 111 367 q 153 332 144 344 q 165 296 161 320 q 163 256 169 269 q 139 230 157 243 q 74 222 109 209 l 76 222 q 53 240 65 226 q 35 263 41 254 q 25 294 28 278 q 31 328 22 311 l 31 326 q 50 356 41 348 q 80 369 59 365 l 83 369 m 115 150 q 135 149 128 150 q 154 139 143 148 l 152 141 q 182 114 174 126 q 194 78 191 102 q 192 37 198 50 q 169 11 185 24 q 140 0 159 2 q 106 4 120 -2 l 107 4 q 82 20 96 7 q 63 44 69 33 q 55 76 57 59 q 59 109 52 93 l 59 107 q 80 138 69 130 q 113 150 91 146 l 115 150 z "},"":{"ha":461,"x_min":-4,"x_max":443,"o":"m 98 131 q 131 104 122 117 q 141 67 139 91 q 139 26 144 39 q 113 0 133 13 l 115 0 q 85 -11 104 -9 q 52 -7 67 -13 l 54 -7 q 28 12 41 -4 q 6 37 15 28 q -2 68 -4 52 q 7 98 0 83 l 6 96 q 57 139 17 137 q 80 138 72 139 q 100 130 87 137 l 98 131 m 248 131 q 279 104 270 117 q 291 67 287 91 q 288 26 294 39 q 261 0 281 13 l 263 0 q 233 -11 252 -9 q 200 -7 215 -13 l 202 -7 q 177 12 191 -4 q 154 37 163 28 q 146 68 144 52 q 156 98 148 83 l 154 96 q 206 139 165 137 q 229 138 220 139 q 248 130 237 137 l 248 131 m 396 131 q 427 104 419 117 q 439 67 435 91 q 437 26 443 39 q 411 0 431 13 l 413 0 q 383 -11 402 -9 q 350 -7 365 -13 l 352 -7 q 325 12 339 -4 q 304 37 311 28 q 296 68 294 52 q 304 98 298 83 l 304 96 q 356 139 311 137 q 378 138 370 139 q 398 130 385 137 l 396 131 z "},"":{"ha":772,"x_min":-24,"x_max":961,"o":"m 85 770 q 225 881 141 828 q 402 977 309 935 q 588 1043 494 1019 q 757 1067 681 1067 q 911 1027 861 1067 q 946 922 961 987 q 931 882 943 904 q 904 842 919 861 q 873 809 889 822 q 846 796 857 796 q 817 830 817 796 q 823 846 817 835 q 839 870 830 857 l 837 870 q 854 897 846 885 q 861 913 861 909 q 809 948 867 948 q 708 931 770 948 q 578 888 646 915 q 439 826 509 861 q 310 752 369 791 q 213 673 252 713 q 169 600 174 633 q 168 559 163 580 q 197 513 172 539 q 274 454 222 487 q 415 374 326 420 q 513 317 472 343 q 578 264 554 291 q 610 207 602 237 q 611 141 619 178 q 557 39 600 91 q 452 -56 515 -13 q 313 -125 389 -98 q 163 -152 237 -152 q 35 -112 80 -152 q 2 0 -9 -72 q 19 45 6 19 q 52 96 33 72 q 90 138 70 120 q 122 156 109 156 q 157 128 163 156 q 148 104 154 113 q 137 85 143 94 q 119 57 128 74 q 106 26 109 41 q 123 0 106 11 q 178 -11 141 -11 q 281 5 226 -11 q 385 45 337 20 q 469 101 433 70 q 513 161 504 131 q 459 228 513 193 q 287 304 406 263 q 56 426 135 356 q -7 606 -24 496 q 23 689 2 650 q 85 770 44 728 m 606 1272 l 606 1274 q 617 1372 569 1372 q 644 1357 630 1372 q 665 1328 659 1343 l 693 1254 q 706 1280 700 1267 q 717 1307 711 1293 q 750 1367 737 1350 q 783 1387 763 1383 q 832 1372 809 1391 q 859 1326 856 1354 q 841 1254 863 1300 q 781 1167 819 1207 q 758 1145 772 1157 q 737 1128 744 1133 q 700 1120 720 1120 q 663 1130 680 1120 l 665 1130 q 636 1157 644 1139 q 619 1215 628 1176 l 606 1272 m 691 1248 l 685 1241 q 691 1248 693 1248 z "},"":{"ha":1426,"x_min":-22,"x_max":1402,"o":"m 763 -257 q 668 -240 709 -257 q 594 -193 626 -222 q 543 -123 563 -163 q 513 -41 522 -83 q 406 -110 461 -83 q 302 -137 350 -137 q 164 -69 211 -137 q 120 122 117 0 q 143 259 122 183 q 194 412 163 335 q 267 562 226 489 q 351 692 307 635 q 437 782 394 748 q 517 817 480 817 q 567 796 548 817 q 585 752 585 776 q 564 706 585 735 q 507 643 543 678 q 394 506 444 578 q 308 367 344 435 q 252 234 272 298 q 230 119 231 170 q 237 33 226 65 q 272 2 248 2 q 352 37 307 2 q 443 130 396 72 q 535 263 489 187 q 620 419 581 339 q 689 581 659 500 q 733 730 719 661 q 735 752 733 743 q 741 770 737 761 q 742 784 741 778 q 743 798 743 791 q 717 915 748 881 q 615 948 685 948 q 439 911 533 948 q 261 817 344 874 q 119 690 178 759 q 52 556 61 620 q 75 504 54 528 q 130 474 96 480 q 153 467 146 470 q 163 448 159 463 q 150 427 159 439 q 102 415 141 415 q 12 456 44 415 q -22 561 -20 498 q 17 669 -17 613 q 103 780 50 726 q 222 882 156 833 q 363 969 289 931 q 513 1027 437 1006 q 659 1048 589 1048 q 779 1019 728 1048 q 861 937 830 989 q 1001 1016 920 983 q 1165 1048 1081 1048 q 1312 1007 1257 1048 q 1369 906 1367 967 q 1356 853 1369 881 q 1327 800 1344 824 q 1291 759 1309 776 q 1259 743 1272 743 q 1236 753 1246 743 q 1226 780 1226 763 q 1236 800 1228 785 q 1252 831 1244 815 q 1265 864 1259 848 q 1270 887 1270 880 q 1235 900 1270 900 q 1144 884 1198 900 q 1040 844 1091 869 q 949 784 989 819 q 898 715 909 750 q 897 702 898 707 q 896 691 896 696 q 919 653 898 670 q 969 623 939 635 q 1040 604 1000 611 q 1120 596 1080 596 q 1197 583 1174 596 q 1222 544 1220 570 q 1178 502 1228 513 q 983 415 1076 474 q 820 284 891 356 q 709 138 750 213 q 672 0 669 63 q 717 -94 674 -63 q 813 -126 759 -126 q 1074 -9 946 -126 q 1319 319 1202 107 l 1319 317 l 1335 350 q 1351 377 1344 369 q 1369 385 1357 385 q 1390 375 1380 385 q 1396 350 1400 365 q 1398 337 1396 339 q 1401 324 1402 330 q 1389 298 1400 319 q 1382 285 1385 294 q 1376 269 1380 276 l 1376 270 q 1246 56 1320 154 q 1090 -110 1172 -41 q 923 -219 1007 -180 q 763 -257 839 -257 m 819 496 l 841 474 l 856 519 l 837 509 q 820 499 830 506 q 819 496 811 493 m 876 528 l 863 535 l 856 519 l 870 524 l 876 528 z "},"":{"ha":544,"x_min":-72,"x_max":539,"o":"m 537 350 q 525 309 539 335 q 486 251 511 283 q 428 183 461 219 q 359 117 394 148 l 354 111 q 394 31 389 70 q 383 -24 398 0 q 340 -66 369 -48 q 271 -93 311 -83 q 187 -102 231 -102 q 119 -94 154 -102 q 55 -69 83 -85 q 6 -34 26 -54 q -15 7 -13 -15 q -2 56 -17 30 q 41 74 11 67 q 104 89 70 81 q 138 96 124 93 q 165 100 152 100 q 53 160 94 133 q -14 213 11 187 q -49 266 -39 239 q -65 326 -59 293 q -38 443 -72 381 q 58 554 -4 504 q 203 636 120 604 q 372 669 285 669 q 449 650 426 669 q 476 591 472 631 q 466 539 480 565 q 417 513 452 513 q 380 524 402 513 l 381 522 q 360 527 372 524 q 352 531 348 530 q 257 506 307 530 q 166 453 207 483 q 98 392 124 422 q 76 344 72 361 q 202 230 78 313 l 261 187 q 286 172 276 178 q 293 165 296 167 q 349 194 313 167 q 420 255 385 222 q 481 314 456 287 q 507 341 507 341 l 537 350 m 244 -13 q 304 15 302 6 q 288 34 300 19 q 270 50 276 50 q 240 44 269 50 q 182 26 211 37 q 138 2 154 15 q 148 -22 122 -11 q 167 -19 156 -19 q 187 -19 178 -19 q 246 -13 220 -19 l 244 -13 m 143 -28 l 148 -22 q 143 -28 143 -26 m 246 902 l 246 904 q 257 1002 209 1002 q 285 987 270 1002 q 306 957 300 972 l 333 883 q 346 909 341 896 q 357 937 352 922 q 391 996 378 980 q 424 1017 404 1013 q 473 1002 450 1020 q 500 956 496 983 q 481 883 504 930 q 422 796 459 837 q 399 775 413 787 q 378 757 385 763 q 341 750 361 750 q 304 759 320 750 l 306 759 q 277 787 285 769 q 259 844 269 806 l 246 902 m 331 878 l 326 870 q 331 878 333 878 z "},"":{"ha":711,"x_min":-72,"x_max":731,"o":"m 335 239 q 331 241 331 239 l 331 226 q 327 193 331 217 q 323 144 322 169 q 334 100 324 119 q 376 81 344 81 q 485 130 420 81 q 548 180 509 146 q 625 246 587 213 q 690 305 663 280 q 717 330 717 330 l 722 331 q 727 313 722 319 q 720 291 731 307 q 630 165 676 220 q 538 69 583 109 q 452 6 493 28 q 380 -15 411 -15 q 290 22 326 -15 q 239 113 254 59 q 204 75 222 93 q 167 46 185 57 l 169 46 q 118 23 146 31 q 63 15 89 15 q -36 65 0 15 q -72 178 -72 115 q -68 227 -72 193 q -55 296 -63 261 q -33 358 -46 331 q -6 385 -20 385 q -4 383 -4 385 q 22 465 -2 419 q 85 552 46 511 q 170 620 124 593 q 263 648 217 648 q 343 623 311 648 q 389 556 374 598 q 480 621 433 598 q 557 644 526 644 q 637 612 602 644 q 672 524 672 580 q 650 428 672 481 q 593 327 628 374 q 511 247 557 280 q 419 215 465 215 q 373 219 389 215 q 337 239 357 224 l 335 239 m 78 430 q 65 376 65 396 q 69 361 65 367 l 76 331 q 112 288 81 309 q 169 267 143 267 q 167 269 167 267 q 174 285 167 270 q 206 354 191 319 q 231 421 220 389 q 249 481 243 454 q 256 526 256 509 q 230 556 256 556 q 184 545 207 556 q 141 519 161 535 q 104 479 120 502 q 78 431 87 456 l 78 430 m 404 346 q 433 365 413 346 q 475 410 454 383 q 513 468 496 437 q 533 522 530 498 q 457 472 498 511 q 389 381 417 433 l 383 359 l 387 356 q 404 346 400 346 m 30 124 l 31 124 q 33 122 31 122 q 55 132 39 122 q 88 156 70 143 q 119 185 106 170 q 131 209 131 200 l 135 209 q 87 223 115 213 q 39 254 59 233 q 19 181 19 222 q 19 162 19 176 q 22 143 20 148 l 30 124 z "},"":{"ha":369,"x_min":20,"x_max":346,"o":"m 344 787 q 346 765 346 772 q 337 748 346 757 q 276 715 315 715 q 237 721 250 715 q 207 746 224 728 l 207 744 q 193 776 196 756 q 193 809 189 796 q 209 834 196 822 q 235 850 222 846 l 233 850 q 263 854 244 854 q 296 846 281 854 q 329 823 319 835 q 344 791 339 811 l 344 787 m 174 822 q 170 787 181 800 q 144 758 156 767 q 109 750 133 750 q 69 756 83 750 q 41 783 56 763 l 41 781 q 25 812 30 793 q 24 846 20 831 q 41 869 28 857 q 67 885 54 881 l 65 885 q 94 891 76 891 q 130 881 113 891 q 159 858 150 870 q 174 826 169 846 l 174 822 z "},"":{"ha":578,"x_min":-91,"x_max":796,"o":"m 122 -219 q 102 -141 107 -187 q 98 -108 98 -126 q 98 -74 98 -91 q 106 34 98 -22 q 135 150 115 91 l 135 148 l 146 191 l 139 198 q 117 270 122 226 q 112 320 113 291 q 107 383 111 350 q 100 472 104 426 q 93 561 96 519 q 45 767 72 689 q -2 848 19 844 q -5 842 0 846 q -13 833 -9 837 q -30 812 -20 822 q -54 802 -39 802 q -73 809 -63 802 q -87 831 -83 817 q -83 869 -91 850 q -63 903 -76 887 q -33 929 -50 919 q 0 939 -17 939 q 76 905 39 939 q 146 809 113 870 q 206 662 180 748 q 250 472 233 576 l 252 456 q 354 648 294 546 q 471 839 413 750 q 580 993 530 928 q 656 1072 630 1057 q 702 1081 674 1081 q 763 1057 737 1081 q 793 1006 789 1033 q 794 1000 793 1002 q 794 994 794 998 l 794 998 q 796 982 796 989 q 791 966 796 976 q 772 938 785 956 q 735 889 759 920 l 711 857 q 506 561 602 715 q 342 265 411 407 q 236 2 272 122 q 207 -193 200 -119 q 222 -221 209 -209 q 256 -233 235 -233 q 269 -231 263 -233 q 276 -231 272 -231 q 283 -230 280 -230 q 309 -239 300 -230 q 319 -257 319 -248 l 319 -254 q 304 -288 322 -269 q 243 -307 285 -307 q 171 -284 202 -307 q 122 -219 141 -261 m 652 1089 q 654 1067 654 1074 q 644 1050 654 1059 q 583 1017 622 1017 q 544 1023 557 1017 q 515 1048 531 1030 l 515 1046 q 500 1078 504 1057 q 500 1111 496 1098 q 517 1136 504 1124 q 543 1152 530 1148 l 541 1152 q 570 1156 552 1156 q 604 1148 589 1156 q 636 1125 626 1137 q 652 1093 646 1113 l 652 1089 m 481 1124 q 478 1089 489 1102 q 452 1060 463 1069 q 417 1052 441 1052 q 377 1058 391 1052 q 348 1085 363 1065 l 348 1083 q 332 1114 337 1094 q 331 1148 328 1133 q 348 1171 335 1159 q 374 1187 361 1183 l 372 1187 q 402 1193 383 1193 q 437 1183 420 1193 q 467 1160 457 1172 q 481 1128 476 1148 l 481 1124 z "},"":{"ha":731,"x_min":24,"x_max":707,"o":"m 537 359 q 444 365 500 363 q 328 367 389 367 q 216 365 269 367 q 135 359 163 363 q 128 358 131 359 q 120 357 124 357 q 82 355 93 354 q 59 361 72 356 l 61 361 q 31 391 39 370 q 37 431 24 411 l 35 430 q 67 454 44 444 q 141 472 89 463 q 232 488 191 481 q 314 498 274 494 q 395 503 354 502 q 489 504 437 504 l 546 504 q 599 502 585 504 q 626 496 613 500 q 668 477 648 487 q 694 452 687 467 l 693 452 q 705 425 702 437 q 700 398 707 413 l 700 400 q 639 357 689 365 q 604 356 624 356 q 537 359 583 356 z "},"":{"ha":139,"x_min":-226,"x_max":200,"o":"m 6 83 q -23 113 -11 98 q -31 135 -35 128 q 3 137 -26 143 q 98 106 31 131 q 156 -8 133 39 q 188 -92 178 -56 q 199 -157 198 -128 q 193 -217 200 -187 q 128 -310 180 -276 q 9 -344 76 -344 q -88 -327 -39 -344 q -180 -274 -137 -309 q -219 -220 -211 -246 q -219 -163 -226 -194 q -192 -122 -213 -137 q -144 -131 -170 -107 l -128 -156 q -121 -165 -124 -159 q -119 -172 -119 -170 q -69 -194 -96 -187 q -17 -202 -43 -202 q 53 -192 22 -202 q 87 -167 83 -181 q 81 -114 91 -150 q 44 -13 70 -78 q 15 65 22 46 q 6 85 7 83 l 6 83 z "},"":{"ha":844,"x_min":-94,"x_max":881,"o":"m 44 -6 q 30 33 35 15 q 21 72 24 52 q 17 117 19 93 q 13 172 15 141 q 39 355 11 256 q 116 554 67 454 q 229 748 165 654 q 363 915 293 843 q 505 1031 433 987 q 639 1074 576 1074 q 728 1044 691 1074 q 769 959 765 1013 q 756 909 769 941 q 728 847 744 878 q 694 794 711 817 q 665 772 676 772 q 640 782 650 772 q 633 809 630 793 l 633 807 q 639 831 633 813 q 656 870 644 850 l 656 869 q 674 908 665 889 q 683 937 683 928 l 683 952 q 633 931 663 948 q 567 885 604 913 q 421 728 491 824 q 300 524 352 631 q 219 310 248 417 q 191 124 189 204 q 225 -17 194 28 q 304 -61 256 -61 q 405 -31 346 -61 q 528 56 463 -2 q 658 194 593 113 q 781 378 724 274 q 819 445 807 430 q 850 461 830 461 q 869 452 859 461 q 881 430 878 443 q 873 406 878 420 q 863 380 869 391 q 731 162 807 263 q 573 -12 656 61 q 409 -127 491 -85 q 261 -169 328 -169 q 133 -123 191 -169 q 44 -6 76 -78 m 137 -70 q 108 -41 120 -56 q 101 -19 96 -26 q 134 -17 106 -11 q 230 -48 163 -22 q 287 -162 265 -115 q 319 -245 309 -209 q 331 -311 330 -281 q 324 -370 331 -341 q 259 -464 311 -430 q 141 -498 207 -498 q 44 -481 93 -498 q -48 -428 -6 -463 q -87 -374 -80 -400 q -87 -317 -94 -348 q -60 -276 -81 -291 q -13 -285 -39 -261 l 4 -309 q 10 -319 7 -313 q 13 -326 13 -324 q 62 -348 35 -341 q 115 -356 89 -356 q 184 -345 154 -356 q 219 -320 215 -335 q 212 -268 222 -304 q 176 -167 202 -231 q 146 -89 154 -107 q 137 -69 139 -70 l 137 -70 z "},"":{"ha":1119,"x_min":-20,"x_max":1248,"o":"m 889 43 q 909 35 904 43 q 919 17 915 28 q 891 -41 919 -7 q 831 -103 857 -85 q 772 -120 804 -120 q 686 -81 720 -120 q 648 31 652 -41 q 668 184 644 93 q 739 393 691 276 l 750 417 q 693 414 728 417 q 623 408 657 411 q 564 402 589 406 q 537 396 539 398 q 503 344 524 378 q 457 269 481 309 q 409 188 433 230 q 367 115 385 146 q 294 -25 331 52 q 228 -163 257 -102 q 188 -256 202 -220 q 154 -293 174 -293 q 124 -261 130 -293 q 126 -239 124 -252 q 135 -207 128 -226 l 133 -207 q 181 -78 152 -148 q 247 69 209 -7 q 328 223 285 144 q 417 376 370 302 l 335 352 q 181 279 237 319 q 122 202 124 239 l 135 159 l 133 161 q 138 146 135 154 q 143 133 141 139 q 146 119 144 126 q 126 72 146 93 q 80 52 106 52 q 16 82 46 52 q -19 181 -15 113 l -20 224 l -7 259 q 86 366 19 320 q 256 439 154 411 q 328 454 281 446 q 415 469 374 461 q 464 477 444 474 q 483 469 483 480 q 500 498 485 476 q 536 548 515 520 q 580 606 557 576 q 620 659 602 635 q 870 932 763 841 q 1043 1024 978 1024 q 1110 992 1085 1024 q 1137 917 1135 959 q 1131 874 1137 902 q 1107 800 1124 846 q 1061 688 1091 754 q 987 530 1031 622 l 963 481 q 993 485 967 485 q 1044 483 1019 485 q 1076 459 1069 481 q 1074 437 1076 444 q 1059 426 1072 430 q 1020 421 1046 422 q 944 420 994 420 l 933 420 q 918 384 924 402 q 902 348 911 367 q 819 138 848 231 q 794 2 791 44 q 795 -11 794 -7 q 796 -19 796 -15 l 796 -22 q 807 -20 802 -22 q 822 -8 809 -19 q 848 13 835 2 q 874 33 859 24 q 889 43 881 39 m 781 498 l 811 563 q 865 675 839 620 q 911 772 891 730 q 944 842 931 815 q 957 870 957 869 q 894 819 931 854 q 811 738 856 785 q 720 635 767 691 q 630 522 674 580 l 613 500 l 606 493 l 713 498 l 781 498 m 593 491 q 588 490 589 491 q 585 489 587 489 q 591 478 591 487 q 606 493 591 476 q 599 492 602 493 q 593 491 596 491 m 1243 1094 q 1209 1070 1230 1070 q 1164 1076 1193 1069 q 1105 1095 1135 1083 q 1045 1122 1074 1107 q 1002 1150 1017 1137 q 980 1184 989 1165 q 970 1219 970 1204 q 996 1279 970 1256 q 1067 1289 1022 1302 l 1065 1289 q 1135 1233 1104 1278 q 1164 1196 1148 1213 q 1206 1159 1180 1180 q 1231 1137 1219 1150 q 1244 1117 1243 1124 q 1246 1105 1248 1109 q 1243 1094 1244 1100 z "},"":{"ha":1119,"x_min":-20,"x_max":1163,"o":"m 889 43 q 909 35 904 43 q 919 17 915 28 q 891 -41 919 -7 q 831 -103 857 -85 q 772 -120 804 -120 q 686 -81 720 -120 q 648 31 652 -41 q 668 184 644 93 q 739 393 691 276 l 750 417 q 693 414 728 417 q 623 408 657 411 q 564 402 589 406 q 537 396 539 398 q 503 344 524 378 q 457 269 481 309 q 409 188 433 230 q 367 115 385 146 q 294 -25 331 52 q 228 -163 257 -102 q 188 -256 202 -220 q 154 -293 174 -293 q 124 -261 130 -293 q 126 -239 124 -252 q 135 -207 128 -226 l 133 -207 q 181 -78 152 -148 q 247 69 209 -7 q 328 223 285 144 q 417 376 370 302 l 335 352 q 181 279 237 319 q 122 202 124 239 l 135 159 l 133 161 q 138 146 135 154 q 143 133 141 139 q 146 119 144 126 q 126 72 146 93 q 80 52 106 52 q 16 82 46 52 q -19 181 -15 113 l -20 224 l -7 259 q 86 366 19 320 q 256 439 154 411 q 328 454 281 446 q 415 469 374 461 q 464 477 444 474 q 483 469 483 480 q 500 498 485 476 q 536 548 515 520 q 580 606 557 576 q 620 659 602 635 q 870 932 763 841 q 1043 1024 978 1024 q 1110 992 1085 1024 q 1137 917 1135 959 q 1131 874 1137 902 q 1107 800 1124 846 q 1061 688 1091 754 q 987 530 1031 622 l 963 481 q 993 485 967 485 q 1044 483 1019 485 q 1076 459 1069 481 q 1074 437 1076 444 q 1059 426 1072 430 q 1020 421 1046 422 q 944 420 994 420 l 933 420 q 918 384 924 402 q 902 348 911 367 q 819 138 848 231 q 794 2 791 44 q 795 -11 794 -7 q 796 -19 796 -15 l 796 -22 q 807 -20 802 -22 q 822 -8 809 -19 q 848 13 835 2 q 874 33 859 24 q 889 43 881 39 m 781 498 l 811 563 q 865 675 839 620 q 911 772 891 730 q 944 842 931 815 q 957 870 957 869 q 894 819 931 854 q 811 738 856 785 q 720 635 767 691 q 630 522 674 580 l 613 500 l 606 493 l 713 498 l 781 498 m 593 491 q 588 490 589 491 q 585 489 587 489 q 591 478 591 487 q 606 493 591 476 q 599 492 602 493 q 593 491 596 491 m 1148 1187 q 1122 1157 1141 1174 q 1081 1124 1104 1141 q 1034 1093 1059 1107 q 987 1070 1009 1078 l 989 1070 q 941 1062 957 1059 q 913 1078 924 1065 q 906 1107 904 1094 q 930 1141 909 1120 q 973 1194 957 1167 q 996 1254 989 1222 q 1056 1320 1009 1311 l 1054 1319 q 1084 1319 1065 1322 q 1119 1306 1104 1315 q 1154 1253 1144 1285 q 1148 1189 1163 1220 l 1148 1187 z "},"":{"ha":1119,"x_min":-20,"x_max":1261,"o":"m 889 43 q 909 35 904 43 q 919 17 915 28 q 891 -41 919 -7 q 831 -103 857 -85 q 772 -120 804 -120 q 686 -81 720 -120 q 648 31 652 -41 q 668 184 644 93 q 739 393 691 276 l 750 417 q 693 414 728 417 q 623 408 657 411 q 564 402 589 406 q 537 396 539 398 q 503 344 524 378 q 457 269 481 309 q 409 188 433 230 q 367 115 385 146 q 294 -25 331 52 q 228 -163 257 -102 q 188 -256 202 -220 q 154 -293 174 -293 q 124 -261 130 -293 q 126 -239 124 -252 q 135 -207 128 -226 l 133 -207 q 181 -78 152 -148 q 247 69 209 -7 q 328 223 285 144 q 417 376 370 302 l 335 352 q 181 279 237 319 q 122 202 124 239 l 135 159 l 133 161 q 138 146 135 154 q 143 133 141 139 q 146 119 144 126 q 126 72 146 93 q 80 52 106 52 q 16 82 46 52 q -19 181 -15 113 l -20 224 l -7 259 q 86 366 19 320 q 256 439 154 411 q 328 454 281 446 q 415 469 374 461 q 464 477 444 474 q 483 469 483 480 q 500 498 485 476 q 536 548 515 520 q 580 606 557 576 q 620 659 602 635 q 870 932 763 841 q 1043 1024 978 1024 q 1110 992 1085 1024 q 1137 917 1135 959 q 1131 874 1137 902 q 1107 800 1124 846 q 1061 688 1091 754 q 987 530 1031 622 l 963 481 q 993 485 967 485 q 1044 483 1019 485 q 1076 459 1069 481 q 1074 437 1076 444 q 1059 426 1072 430 q 1020 421 1046 422 q 944 420 994 420 l 933 420 q 918 384 924 402 q 902 348 911 367 q 819 138 848 231 q 794 2 791 44 q 795 -11 794 -7 q 796 -19 796 -15 l 796 -22 q 807 -20 802 -22 q 822 -8 809 -19 q 848 13 835 2 q 874 33 859 24 q 889 43 881 39 m 781 498 l 811 563 q 865 675 839 620 q 911 772 891 730 q 944 842 931 815 q 957 870 957 869 q 894 819 931 854 q 811 738 856 785 q 720 635 767 691 q 630 522 674 580 l 613 500 l 606 493 l 713 498 l 781 498 m 593 491 q 588 490 589 491 q 585 489 587 489 q 591 478 591 487 q 606 493 591 476 q 599 492 602 493 q 593 491 596 491 m 994 1276 q 1069 1304 1028 1304 q 1161 1267 1115 1304 l 1159 1267 q 1220 1115 1261 1180 q 1131 1100 1191 1074 q 1080 1143 1107 1111 q 1054 1174 1059 1169 q 1044 1180 1048 1180 q 1011 1166 1035 1180 q 972 1137 987 1152 q 937 1109 948 1115 q 911 1107 926 1104 q 900 1169 880 1119 q 919 1194 906 1178 q 945 1225 931 1209 q 972 1255 959 1241 q 994 1276 985 1269 z "},"":{"ha":1119,"x_min":-20,"x_max":1220,"o":"m 889 43 q 909 35 904 43 q 919 17 915 28 q 891 -41 919 -7 q 831 -103 857 -85 q 772 -120 804 -120 q 686 -81 720 -120 q 648 31 652 -41 q 668 184 644 93 q 739 393 691 276 l 750 417 q 693 414 728 417 q 623 408 657 411 q 564 402 589 406 q 537 396 539 398 q 503 344 524 378 q 457 269 481 309 q 409 188 433 230 q 367 115 385 146 q 294 -25 331 52 q 228 -163 257 -102 q 188 -256 202 -220 q 154 -293 174 -293 q 124 -261 130 -293 q 126 -239 124 -252 q 135 -207 128 -226 l 133 -207 q 181 -78 152 -148 q 247 69 209 -7 q 328 223 285 144 q 417 376 370 302 l 335 352 q 181 279 237 319 q 122 202 124 239 l 135 159 l 133 161 q 138 146 135 154 q 143 133 141 139 q 146 119 144 126 q 126 72 146 93 q 80 52 106 52 q 16 82 46 52 q -19 181 -15 113 l -20 224 l -7 259 q 86 366 19 320 q 256 439 154 411 q 328 454 281 446 q 415 469 374 461 q 464 477 444 474 q 483 469 483 480 q 500 498 485 476 q 536 548 515 520 q 580 606 557 576 q 620 659 602 635 q 870 932 763 841 q 1043 1024 978 1024 q 1110 992 1085 1024 q 1137 917 1135 959 q 1131 874 1137 902 q 1107 800 1124 846 q 1061 688 1091 754 q 987 530 1031 622 l 963 481 q 993 485 967 485 q 1044 483 1019 485 q 1076 459 1069 481 q 1074 437 1076 444 q 1059 426 1072 430 q 1020 421 1046 422 q 944 420 994 420 l 933 420 q 918 384 924 402 q 902 348 911 367 q 819 138 848 231 q 794 2 791 44 q 795 -11 794 -7 q 796 -19 796 -15 l 796 -22 q 807 -20 802 -22 q 822 -8 809 -19 q 848 13 835 2 q 874 33 859 24 q 889 43 881 39 m 781 498 l 811 563 q 865 675 839 620 q 911 772 891 730 q 944 842 931 815 q 957 870 957 869 q 894 819 931 854 q 811 738 856 785 q 720 635 767 691 q 630 522 674 580 l 613 500 l 606 493 l 713 498 l 781 498 m 593 491 q 588 490 589 491 q 585 489 587 489 q 591 478 591 487 q 606 493 591 476 q 599 492 602 493 q 593 491 596 491 m 1120 1204 q 1154 1209 1139 1198 q 1188 1228 1169 1230 q 1215 1207 1207 1226 l 1215 1209 q 1213 1169 1220 1194 q 1193 1133 1206 1144 q 1139 1109 1172 1117 q 1074 1111 1106 1102 q 967 1174 1024 1122 q 942 1198 946 1194 q 931 1200 937 1202 q 911 1191 924 1200 q 873 1177 885 1174 q 854 1206 861 1180 q 881 1270 848 1233 q 919 1299 902 1291 q 961 1307 935 1307 q 1007 1295 985 1307 q 1061 1252 1030 1283 q 1101 1216 1091 1224 q 1120 1204 1111 1207 z "},"":{"ha":1119,"x_min":-20,"x_max":1224,"o":"m 889 43 q 909 35 904 43 q 919 17 915 28 q 891 -41 919 -7 q 831 -103 857 -85 q 772 -120 804 -120 q 686 -81 720 -120 q 648 31 652 -41 q 668 184 644 93 q 739 393 691 276 l 750 417 q 693 414 728 417 q 623 408 657 411 q 564 402 589 406 q 537 396 539 398 q 503 344 524 378 q 457 269 481 309 q 409 188 433 230 q 367 115 385 146 q 294 -25 331 52 q 228 -163 257 -102 q 188 -256 202 -220 q 154 -293 174 -293 q 124 -261 130 -293 q 126 -239 124 -252 q 135 -207 128 -226 l 133 -207 q 181 -78 152 -148 q 247 69 209 -7 q 328 223 285 144 q 417 376 370 302 l 335 352 q 181 279 237 319 q 122 202 124 239 l 135 159 l 133 161 q 138 146 135 154 q 143 133 141 139 q 146 119 144 126 q 126 72 146 93 q 80 52 106 52 q 16 82 46 52 q -19 181 -15 113 l -20 224 l -7 259 q 86 366 19 320 q 256 439 154 411 q 328 454 281 446 q 415 469 374 461 q 464 477 444 474 q 483 469 483 480 q 500 498 485 476 q 536 548 515 520 q 580 606 557 576 q 620 659 602 635 q 870 932 763 841 q 1043 1024 978 1024 q 1110 992 1085 1024 q 1137 917 1135 959 q 1131 874 1137 902 q 1107 800 1124 846 q 1061 688 1091 754 q 987 530 1031 622 l 963 481 q 993 485 967 485 q 1044 483 1019 485 q 1076 459 1069 481 q 1074 437 1076 444 q 1059 426 1072 430 q 1020 421 1046 422 q 944 420 994 420 l 933 420 q 918 384 924 402 q 902 348 911 367 q 819 138 848 231 q 794 2 791 44 q 795 -11 794 -7 q 796 -19 796 -15 l 796 -22 q 807 -20 802 -22 q 822 -8 809 -19 q 848 13 835 2 q 874 33 859 24 q 889 43 881 39 m 781 498 l 811 563 q 865 675 839 620 q 911 772 891 730 q 944 842 931 815 q 957 870 957 869 q 894 819 931 854 q 811 738 856 785 q 720 635 767 691 q 630 522 674 580 l 613 500 l 606 493 l 713 498 l 781 498 m 593 491 q 588 490 589 491 q 585 489 587 489 q 591 478 591 487 q 606 493 591 476 q 599 492 602 493 q 593 491 596 491 m 1222 1157 q 1224 1135 1224 1143 q 1215 1119 1224 1128 q 1154 1085 1193 1085 q 1115 1092 1128 1085 q 1085 1117 1102 1098 l 1085 1115 q 1070 1146 1074 1126 q 1070 1180 1067 1167 q 1087 1205 1074 1193 q 1113 1220 1100 1217 l 1111 1220 q 1141 1224 1122 1224 q 1174 1217 1159 1224 q 1206 1194 1196 1206 q 1222 1161 1217 1181 l 1222 1157 m 1052 1193 q 1048 1157 1059 1170 q 1022 1129 1033 1137 q 987 1120 1011 1120 q 947 1127 961 1120 q 919 1154 933 1133 l 919 1152 q 903 1182 907 1163 q 902 1217 898 1202 q 919 1240 906 1228 q 944 1256 931 1252 l 943 1256 q 972 1261 954 1261 q 1007 1252 991 1261 q 1037 1229 1028 1241 q 1052 1196 1046 1217 l 1052 1193 z "},"":{"ha":1119,"x_min":-20,"x_max":1302,"o":"m 889 43 q 909 35 904 43 q 919 17 915 28 q 891 -41 919 -7 q 831 -103 857 -85 q 772 -120 804 -120 q 686 -81 720 -120 q 648 31 652 -41 q 668 184 644 93 q 739 393 691 276 l 750 417 q 693 414 728 417 q 623 408 657 411 q 564 402 589 406 q 537 396 539 398 q 503 344 524 378 q 457 269 481 309 q 409 188 433 230 q 367 115 385 146 q 294 -25 331 52 q 228 -163 257 -102 q 188 -256 202 -220 q 154 -293 174 -293 q 124 -261 130 -293 q 126 -239 124 -252 q 135 -207 128 -226 l 133 -207 q 181 -78 152 -148 q 247 69 209 -7 q 328 223 285 144 q 417 376 370 302 l 335 352 q 181 279 237 319 q 122 202 124 239 l 135 159 l 133 161 q 138 146 135 154 q 143 133 141 139 q 146 119 144 126 q 126 72 146 93 q 80 52 106 52 q 16 82 46 52 q -19 181 -15 113 l -20 224 l -7 259 q 86 366 19 320 q 256 439 154 411 q 328 454 281 446 q 415 469 374 461 q 464 477 444 474 q 483 469 483 480 q 500 498 485 476 q 536 548 515 520 q 580 606 557 576 q 620 659 602 635 q 870 932 763 841 q 1043 1024 978 1024 q 1110 992 1085 1024 q 1137 917 1135 959 q 1131 874 1137 902 q 1107 800 1124 846 q 1061 688 1091 754 q 987 530 1031 622 l 963 481 q 993 485 967 485 q 1044 483 1019 485 q 1076 459 1069 481 q 1074 437 1076 444 q 1059 426 1072 430 q 1020 421 1046 422 q 944 420 994 420 l 933 420 q 918 384 924 402 q 902 348 911 367 q 819 138 848 231 q 794 2 791 44 q 795 -11 794 -7 q 796 -19 796 -15 l 796 -22 q 807 -20 802 -22 q 822 -8 809 -19 q 848 13 835 2 q 874 33 859 24 q 889 43 881 39 m 781 498 l 811 563 q 865 675 839 620 q 911 772 891 730 q 944 842 931 815 q 957 870 957 869 q 894 819 931 854 q 811 738 856 785 q 720 635 767 691 q 630 522 674 580 l 613 500 l 606 493 l 713 498 l 781 498 m 593 491 q 588 490 589 491 q 585 489 587 489 q 591 478 591 487 q 606 493 591 476 q 599 492 602 493 q 593 491 596 491 m 1259 1289 q 1291 1256 1280 1276 q 1302 1219 1302 1237 q 1279 1162 1302 1189 q 1222 1117 1256 1135 l 1211 1113 q 1181 1089 1204 1096 q 1137 1091 1157 1081 l 1139 1091 q 1106 1112 1120 1096 q 1083 1146 1093 1128 q 1077 1208 1070 1176 q 1106 1263 1083 1241 q 1181 1302 1137 1294 q 1257 1289 1224 1309 l 1259 1289 m 1202 1219 q 1182 1222 1193 1224 q 1165 1213 1172 1220 q 1159 1183 1154 1202 q 1172 1170 1163 1174 q 1191 1176 1183 1165 l 1193 1178 q 1213 1202 1213 1187 q 1202 1219 1213 1211 z "},"":{"ha":1628,"x_min":-17,"x_max":1607,"o":"m 1046 1024 q 1092 1010 1072 1024 q 1124 976 1111 996 q 1243 1028 1180 1007 q 1370 1048 1306 1048 q 1518 1007 1463 1048 q 1574 906 1572 967 q 1562 853 1574 881 q 1532 800 1550 824 q 1496 759 1515 776 q 1465 743 1478 743 q 1442 753 1452 743 q 1431 780 1431 763 q 1442 800 1433 785 q 1457 831 1450 815 q 1471 864 1465 848 q 1478 887 1478 880 q 1441 900 1478 900 q 1340 882 1398 900 q 1228 836 1281 865 q 1136 770 1174 807 q 1100 694 1098 733 q 1119 656 1100 674 q 1171 625 1139 639 q 1244 604 1204 611 q 1326 596 1283 596 q 1403 583 1380 596 q 1428 544 1426 570 q 1383 502 1433 513 q 1189 415 1281 474 q 1027 284 1096 356 q 917 138 957 213 q 878 0 876 63 q 922 -94 880 -63 q 1019 -126 965 -126 q 1280 -9 1152 -126 q 1526 319 1407 107 l 1526 317 l 1541 350 q 1556 377 1550 369 q 1576 385 1563 385 q 1595 375 1585 385 q 1602 350 1606 365 q 1604 337 1602 339 q 1606 324 1607 330 q 1594 298 1606 319 q 1589 285 1591 294 q 1583 269 1587 276 l 1583 270 q 1453 56 1528 154 q 1296 -110 1378 -41 q 1130 -219 1215 -180 q 969 -257 1044 -257 q 831 -216 887 -257 q 744 -115 774 -174 q 652 33 657 -91 q 672 185 650 94 q 743 393 694 276 l 754 417 q 696 414 731 417 q 627 408 661 411 q 568 402 593 406 q 541 396 543 398 q 506 344 528 378 q 461 269 485 309 q 413 188 437 230 q 370 115 389 146 q 298 -25 335 52 q 231 -163 261 -102 q 192 -256 206 -220 q 157 -293 178 -293 q 128 -261 133 -293 q 130 -239 128 -252 q 139 -207 131 -226 l 137 -207 q 184 -78 156 -148 q 251 69 213 -7 q 331 223 289 144 q 420 376 374 302 l 339 352 q 185 279 243 319 q 126 202 128 239 l 139 159 l 137 161 q 146 133 141 146 q 152 119 150 126 q 131 72 152 93 q 83 52 109 52 q 20 82 50 52 q -13 181 -9 113 l -17 224 l -4 259 q 90 366 22 320 q 261 439 157 411 q 332 454 287 446 q 419 469 378 461 q 468 477 448 474 q 487 469 487 480 q 504 498 489 476 q 540 548 519 520 q 583 606 561 576 q 624 659 606 635 q 875 932 769 841 q 1046 1024 981 1024 m 785 498 l 817 563 q 869 675 843 620 q 915 772 894 730 q 948 842 935 815 q 961 870 961 869 q 897 819 935 854 q 815 738 859 785 q 724 635 770 691 q 633 522 678 580 l 617 500 l 609 493 l 717 498 l 785 498 m 596 491 q 592 490 593 491 q 589 489 591 489 q 596 478 596 487 q 599 479 596 474 q 609 493 602 483 q 603 492 606 493 q 596 491 600 491 m 1085 530 q 1044 550 1061 539 q 1013 572 1028 561 l 991 530 q 969 478 967 481 q 980 484 970 483 q 1002 485 989 485 l 1009 485 l 1020 493 l 1019 493 q 1039 505 1031 500 q 1076 524 1046 509 l 1085 530 m 939 420 l 970 420 l 957 454 q 924 424 941 439 q 885 385 907 409 l 915 365 l 939 420 z "},"":{"ha":885,"x_min":-13,"x_max":894,"o":"m 352 524 l 359 530 q 251 611 283 563 q 215 720 219 659 q 249 831 213 774 q 345 937 285 889 q 484 1017 406 985 q 646 1048 563 1048 q 794 1007 739 1048 q 850 906 848 967 q 838 853 850 881 q 808 800 826 824 q 772 759 791 776 q 741 743 754 743 q 718 753 728 743 q 707 780 707 763 q 718 800 709 785 q 733 831 726 815 q 746 864 741 848 q 752 887 752 880 q 744 897 752 894 q 717 900 737 900 q 616 882 674 900 q 504 836 557 865 q 412 770 450 807 q 376 694 374 733 q 395 656 376 674 q 447 625 415 639 q 519 604 480 611 q 602 596 559 596 q 679 583 656 596 q 704 544 702 570 q 659 502 709 513 q 465 415 557 474 q 302 284 372 356 q 191 138 231 213 q 154 0 150 63 q 198 -94 156 -63 q 294 -126 241 -126 q 556 -9 428 -126 q 800 319 683 107 l 800 317 l 817 350 q 832 377 826 369 q 852 385 839 385 q 871 375 861 385 q 878 350 881 365 q 880 337 878 339 q 882 324 883 330 q 870 298 881 319 q 864 285 867 294 q 857 269 861 276 l 857 270 q 728 56 802 154 q 571 -110 654 -41 q 405 -219 489 -180 q 244 -257 320 -257 q 137 -235 183 -257 q 58 -176 91 -213 q 8 -92 26 -139 q -11 6 -9 -44 q 11 147 -13 74 q 82 290 35 220 q 197 419 130 359 q 350 524 265 480 l 352 524 m 889 1113 q 856 1089 876 1089 q 810 1094 839 1087 q 751 1114 781 1102 q 692 1141 720 1126 q 648 1169 663 1156 q 626 1203 635 1183 q 617 1237 617 1222 q 643 1297 617 1274 q 713 1307 669 1320 l 711 1307 q 781 1252 750 1296 q 810 1215 794 1231 q 852 1178 826 1198 q 877 1156 865 1169 q 891 1135 889 1143 q 893 1123 894 1128 q 889 1113 891 1119 z "},"":{"ha":885,"x_min":-13,"x_max":894,"o":"m 352 524 l 359 530 q 251 611 283 563 q 215 720 219 659 q 249 831 213 774 q 345 937 285 889 q 484 1017 406 985 q 646 1048 563 1048 q 794 1007 739 1048 q 850 906 848 967 q 838 853 850 881 q 808 800 826 824 q 772 759 791 776 q 741 743 754 743 q 718 753 728 743 q 707 780 707 763 q 718 800 709 785 q 733 831 726 815 q 746 864 741 848 q 752 887 752 880 q 744 897 752 894 q 717 900 737 900 q 616 882 674 900 q 504 836 557 865 q 412 770 450 807 q 376 694 374 733 q 395 656 376 674 q 447 625 415 639 q 519 604 480 611 q 602 596 559 596 q 679 583 656 596 q 704 544 702 570 q 659 502 709 513 q 465 415 557 474 q 302 284 372 356 q 191 138 231 213 q 154 0 150 63 q 198 -94 156 -63 q 294 -126 241 -126 q 556 -9 428 -126 q 800 319 683 107 l 800 317 l 817 350 q 832 377 826 369 q 852 385 839 385 q 871 375 861 385 q 878 350 881 365 q 880 337 878 339 q 882 324 883 330 q 870 298 881 319 q 864 285 867 294 q 857 269 861 276 l 857 270 q 728 56 802 154 q 571 -110 654 -41 q 405 -219 489 -180 q 244 -257 320 -257 q 137 -235 183 -257 q 58 -176 91 -213 q 8 -92 26 -139 q -11 6 -9 -44 q 11 147 -13 74 q 82 290 35 220 q 197 419 130 359 q 350 524 265 480 l 352 524 m 880 1187 q 854 1157 872 1174 q 813 1124 835 1141 q 766 1093 791 1107 q 719 1070 741 1078 l 720 1070 q 672 1062 689 1059 q 644 1078 656 1065 q 638 1107 635 1094 q 661 1141 641 1120 q 705 1194 689 1167 q 728 1254 720 1222 q 787 1320 741 1311 l 785 1319 q 816 1319 796 1322 q 850 1306 835 1315 q 885 1253 876 1285 q 880 1189 894 1220 l 880 1187 z "},"":{"ha":885,"x_min":-13,"x_max":967,"o":"m 352 524 l 359 530 q 251 611 283 563 q 215 720 219 659 q 249 831 213 774 q 345 937 285 889 q 484 1017 406 985 q 646 1048 563 1048 q 794 1007 739 1048 q 850 906 848 967 q 838 853 850 881 q 808 800 826 824 q 772 759 791 776 q 741 743 754 743 q 718 753 728 743 q 707 780 707 763 q 718 800 709 785 q 733 831 726 815 q 746 864 741 848 q 752 887 752 880 q 744 897 752 894 q 717 900 737 900 q 616 882 674 900 q 504 836 557 865 q 412 770 450 807 q 376 694 374 733 q 395 656 376 674 q 447 625 415 639 q 519 604 480 611 q 602 596 559 596 q 679 583 656 596 q 704 544 702 570 q 659 502 709 513 q 465 415 557 474 q 302 284 372 356 q 191 138 231 213 q 154 0 150 63 q 198 -94 156 -63 q 294 -126 241 -126 q 556 -9 428 -126 q 800 319 683 107 l 800 317 l 817 350 q 832 377 826 369 q 852 385 839 385 q 871 375 861 385 q 878 350 881 365 q 880 337 878 339 q 882 324 883 330 q 870 298 881 319 q 864 285 867 294 q 857 269 861 276 l 857 270 q 728 56 802 154 q 571 -110 654 -41 q 405 -219 489 -180 q 244 -257 320 -257 q 137 -235 183 -257 q 58 -176 91 -213 q 8 -92 26 -139 q -11 6 -9 -44 q 11 147 -13 74 q 82 290 35 220 q 197 419 130 359 q 350 524 265 480 l 352 524 m 700 1276 q 774 1304 733 1304 q 867 1267 820 1304 l 865 1267 q 926 1115 967 1180 q 837 1100 896 1074 q 785 1143 813 1111 q 759 1174 765 1169 q 750 1180 754 1180 q 717 1166 741 1180 q 678 1137 693 1152 q 643 1109 654 1115 q 617 1107 631 1104 q 606 1169 585 1119 q 624 1194 611 1178 q 651 1225 637 1209 q 678 1255 665 1241 q 700 1276 691 1269 z "},"":{"ha":885,"x_min":-13,"x_max":894,"o":"m 352 524 l 359 530 q 251 611 283 563 q 215 720 219 659 q 249 831 213 774 q 345 937 285 889 q 484 1017 406 985 q 646 1048 563 1048 q 794 1007 739 1048 q 850 906 848 967 q 838 853 850 881 q 808 800 826 824 q 772 759 791 776 q 741 743 754 743 q 718 753 728 743 q 707 780 707 763 q 718 800 709 785 q 733 831 726 815 q 746 864 741 848 q 752 887 752 880 q 744 897 752 894 q 717 900 737 900 q 616 882 674 900 q 504 836 557 865 q 412 770 450 807 q 376 694 374 733 q 395 656 376 674 q 447 625 415 639 q 519 604 480 611 q 602 596 559 596 q 679 583 656 596 q 704 544 702 570 q 659 502 709 513 q 465 415 557 474 q 302 284 372 356 q 191 138 231 213 q 154 0 150 63 q 198 -94 156 -63 q 294 -126 241 -126 q 556 -9 428 -126 q 800 319 683 107 l 800 317 l 817 350 q 832 377 826 369 q 852 385 839 385 q 871 375 861 385 q 878 350 881 365 q 880 337 878 339 q 882 324 883 330 q 870 298 881 319 q 864 285 867 294 q 857 269 861 276 l 857 270 q 728 56 802 154 q 571 -110 654 -41 q 405 -219 489 -180 q 244 -257 320 -257 q 137 -235 183 -257 q 58 -176 91 -213 q 8 -92 26 -139 q -11 6 -9 -44 q 11 147 -13 74 q 82 290 35 220 q 197 419 130 359 q 350 524 265 480 l 352 524 m 893 1157 q 894 1135 894 1143 q 885 1119 894 1128 q 824 1085 863 1085 q 785 1092 798 1085 q 756 1117 772 1098 l 756 1115 q 741 1146 744 1126 q 741 1180 737 1167 q 757 1205 744 1193 q 783 1220 770 1217 l 781 1220 q 811 1224 793 1224 q 844 1217 830 1224 q 877 1194 867 1206 q 893 1161 887 1181 l 893 1157 m 722 1193 q 719 1157 730 1170 q 693 1129 704 1137 q 657 1120 681 1120 q 618 1127 631 1120 q 589 1154 604 1133 l 589 1152 q 573 1182 578 1163 q 572 1217 569 1202 q 589 1240 576 1228 q 615 1256 602 1252 l 613 1256 q 643 1261 624 1261 q 678 1252 661 1261 q 707 1229 698 1241 q 722 1196 717 1217 l 722 1193 z "},"":{"ha":609,"x_min":33,"x_max":820,"o":"m 165 -2 q 196 -2 187 -2 q 209 -6 206 -2 q 206 4 206 2 q 194 31 196 17 q 194 39 194 35 q 193 46 193 43 q 188 100 189 76 q 193 156 187 124 l 193 154 q 204 219 198 189 q 221 292 209 250 q 252 392 233 333 q 300 539 270 450 l 298 539 q 322 613 309 576 q 345 681 335 650 q 364 736 356 713 q 376 769 372 759 l 374 769 q 395 841 387 807 q 407 894 404 874 q 345 888 381 891 q 300 885 309 885 q 256 899 274 885 q 235 930 237 913 q 242 960 231 954 q 294 972 252 967 l 381 987 q 429 997 419 996 q 439 996 439 998 q 471 1035 456 1024 q 506 1046 487 1046 q 556 1024 533 1046 l 559 1022 q 567 1023 563 1024 q 574 1024 570 1022 q 611 1027 583 1026 q 667 1028 639 1028 q 740 1021 711 1028 q 784 1004 769 1015 q 806 978 800 993 q 817 946 813 963 q 806 900 820 922 q 761 878 793 878 q 725 881 741 878 q 689 889 709 885 q 647 899 669 894 q 609 904 626 904 l 585 904 q 584 901 583 900 q 585 898 585 902 q 564 815 581 876 q 509 656 546 754 q 413 383 452 494 q 352 200 374 272 q 321 87 330 128 q 315 24 313 46 q 330 11 322 17 q 341 0 337 6 q 350 -11 346 -7 q 358 -13 354 -13 q 369 -15 363 -13 q 406 -26 385 -20 q 445 -39 426 -31 q 478 -56 465 -46 q 493 -74 491 -65 q 487 -96 493 -91 q 461 -102 481 -102 q 444 -101 452 -102 q 424 -98 435 -100 q 391 -94 409 -96 q 356 -93 372 -93 q 238 -106 291 -93 q 152 -130 185 -119 q 132 -136 137 -133 q 106 -139 128 -139 q 62 -122 80 -139 q 41 -80 44 -106 q 46 -41 33 -59 l 46 -39 q 52 -26 48 -31 q 67 -15 56 -20 q 100 -6 78 -9 q 165 -2 122 -4 m 315 24 l 309 28 q 315 24 313 28 m 317 19 q 316 21 317 20 q 315 24 315 22 q 317 19 317 22 m 665 1113 q 631 1089 652 1089 q 586 1094 615 1087 q 527 1114 557 1102 q 468 1141 496 1126 q 424 1169 439 1156 q 402 1203 411 1183 q 393 1237 393 1222 q 419 1297 393 1274 q 489 1307 444 1320 l 487 1307 q 557 1252 526 1296 q 586 1215 570 1231 q 628 1178 602 1198 q 653 1156 641 1169 q 667 1135 665 1143 q 669 1123 670 1128 q 665 1113 667 1119 z "},"":{"ha":609,"x_min":33,"x_max":820,"o":"m 165 -2 q 196 -2 187 -2 q 209 -6 206 -2 q 206 4 206 2 q 194 31 196 17 q 194 39 194 35 q 193 46 193 43 q 188 100 189 76 q 193 156 187 124 l 193 154 q 204 219 198 189 q 221 292 209 250 q 252 392 233 333 q 300 539 270 450 l 298 539 q 322 613 309 576 q 345 681 335 650 q 364 736 356 713 q 376 769 372 759 l 374 769 q 395 841 387 807 q 407 894 404 874 q 345 888 381 891 q 300 885 309 885 q 256 899 274 885 q 235 930 237 913 q 242 960 231 954 q 294 972 252 967 l 381 987 q 429 997 419 996 q 439 996 439 998 q 471 1035 456 1024 q 506 1046 487 1046 q 556 1024 533 1046 l 559 1022 q 567 1023 563 1024 q 574 1024 570 1022 q 611 1027 583 1026 q 667 1028 639 1028 q 740 1021 711 1028 q 784 1004 769 1015 q 806 978 800 993 q 817 946 813 963 q 806 900 820 922 q 761 878 793 878 q 725 881 741 878 q 689 889 709 885 q 647 899 669 894 q 609 904 626 904 l 585 904 q 584 901 583 900 q 585 898 585 902 q 564 815 581 876 q 509 656 546 754 q 413 383 452 494 q 352 200 374 272 q 321 87 330 128 q 315 24 313 46 q 330 11 322 17 q 341 0 337 6 q 350 -11 346 -7 q 358 -13 354 -13 q 369 -15 363 -13 q 406 -26 385 -20 q 445 -39 426 -31 q 478 -56 465 -46 q 493 -74 491 -65 q 487 -96 493 -91 q 461 -102 481 -102 q 444 -101 452 -102 q 424 -98 435 -100 q 391 -94 409 -96 q 356 -93 372 -93 q 238 -106 291 -93 q 152 -130 185 -119 q 132 -136 137 -133 q 106 -139 128 -139 q 62 -122 80 -139 q 41 -80 44 -106 q 46 -41 33 -59 l 46 -39 q 52 -26 48 -31 q 67 -15 56 -20 q 100 -6 78 -9 q 165 -2 122 -4 m 315 24 l 309 28 q 315 24 313 28 m 317 19 q 316 21 317 20 q 315 24 315 22 q 317 19 317 22 m 630 1187 q 604 1157 622 1174 q 563 1124 585 1141 q 516 1093 541 1107 q 469 1070 491 1078 l 470 1070 q 422 1062 439 1059 q 394 1078 406 1065 q 388 1107 385 1094 q 411 1141 391 1120 q 455 1194 439 1167 q 478 1254 470 1222 q 537 1320 491 1311 l 535 1319 q 566 1319 546 1322 q 600 1306 585 1315 q 635 1253 626 1285 q 630 1189 644 1220 l 630 1187 z "},"":{"ha":609,"x_min":33,"x_max":820,"o":"m 165 -2 q 196 -2 187 -2 q 209 -6 206 -2 q 206 4 206 2 q 194 31 196 17 q 194 39 194 35 q 193 46 193 43 q 188 100 189 76 q 193 156 187 124 l 193 154 q 204 219 198 189 q 221 292 209 250 q 252 392 233 333 q 300 539 270 450 l 298 539 q 322 613 309 576 q 345 681 335 650 q 364 736 356 713 q 376 769 372 759 l 374 769 q 395 841 387 807 q 407 894 404 874 q 345 888 381 891 q 300 885 309 885 q 256 899 274 885 q 235 930 237 913 q 242 960 231 954 q 294 972 252 967 l 381 987 q 429 997 419 996 q 439 996 439 998 q 471 1035 456 1024 q 506 1046 487 1046 q 556 1024 533 1046 l 559 1022 q 567 1023 563 1024 q 574 1024 570 1022 q 611 1027 583 1026 q 667 1028 639 1028 q 740 1021 711 1028 q 784 1004 769 1015 q 806 978 800 993 q 817 946 813 963 q 806 900 820 922 q 761 878 793 878 q 725 881 741 878 q 689 889 709 885 q 647 899 669 894 q 609 904 626 904 l 585 904 q 584 901 583 900 q 585 898 585 902 q 564 815 581 876 q 509 656 546 754 q 413 383 452 494 q 352 200 374 272 q 321 87 330 128 q 315 24 313 46 q 330 11 322 17 q 341 0 337 6 q 350 -11 346 -7 q 358 -13 354 -13 q 369 -15 363 -13 q 406 -26 385 -20 q 445 -39 426 -31 q 478 -56 465 -46 q 493 -74 491 -65 q 487 -96 493 -91 q 461 -102 481 -102 q 444 -101 452 -102 q 424 -98 435 -100 q 391 -94 409 -96 q 356 -93 372 -93 q 238 -106 291 -93 q 152 -130 185 -119 q 132 -136 137 -133 q 106 -139 128 -139 q 62 -122 80 -139 q 41 -80 44 -106 q 46 -41 33 -59 l 46 -39 q 52 -26 48 -31 q 67 -15 56 -20 q 100 -6 78 -9 q 165 -2 122 -4 m 315 24 l 309 28 q 315 24 313 28 m 317 19 q 316 21 317 20 q 315 24 315 22 q 317 19 317 22 m 456 1276 q 530 1304 489 1304 q 622 1267 576 1304 l 620 1267 q 681 1115 722 1180 q 593 1100 652 1074 q 541 1143 569 1111 q 515 1174 520 1169 q 506 1180 509 1180 q 472 1166 496 1180 q 433 1137 448 1152 q 398 1109 409 1115 q 372 1107 387 1104 q 361 1169 341 1119 q 380 1194 367 1178 q 406 1225 393 1209 q 433 1255 420 1241 q 456 1276 446 1269 z "},"":{"ha":609,"x_min":33,"x_max":820,"o":"m 165 -2 q 196 -2 187 -2 q 209 -6 206 -2 q 206 4 206 2 q 194 31 196 17 q 194 39 194 35 q 193 46 193 43 q 188 100 189 76 q 193 156 187 124 l 193 154 q 204 219 198 189 q 221 292 209 250 q 252 392 233 333 q 300 539 270 450 l 298 539 q 322 613 309 576 q 345 681 335 650 q 364 736 356 713 q 376 769 372 759 l 374 769 q 395 841 387 807 q 407 894 404 874 q 345 888 381 891 q 300 885 309 885 q 256 899 274 885 q 235 930 237 913 q 242 960 231 954 q 294 972 252 967 l 381 987 q 429 997 419 996 q 439 996 439 998 q 471 1035 456 1024 q 506 1046 487 1046 q 556 1024 533 1046 l 559 1022 q 567 1023 563 1024 q 574 1024 570 1022 q 611 1027 583 1026 q 667 1028 639 1028 q 740 1021 711 1028 q 784 1004 769 1015 q 806 978 800 993 q 817 946 813 963 q 806 900 820 922 q 761 878 793 878 q 725 881 741 878 q 689 889 709 885 q 647 899 669 894 q 609 904 626 904 l 585 904 q 584 901 583 900 q 585 898 585 902 q 564 815 581 876 q 509 656 546 754 q 413 383 452 494 q 352 200 374 272 q 321 87 330 128 q 315 24 313 46 q 330 11 322 17 q 341 0 337 6 q 350 -11 346 -7 q 358 -13 354 -13 q 369 -15 363 -13 q 406 -26 385 -20 q 445 -39 426 -31 q 478 -56 465 -46 q 493 -74 491 -65 q 487 -96 493 -91 q 461 -102 481 -102 q 444 -101 452 -102 q 424 -98 435 -100 q 391 -94 409 -96 q 356 -93 372 -93 q 238 -106 291 -93 q 152 -130 185 -119 q 132 -136 137 -133 q 106 -139 128 -139 q 62 -122 80 -139 q 41 -80 44 -106 q 46 -41 33 -59 l 46 -39 q 52 -26 48 -31 q 67 -15 56 -20 q 100 -6 78 -9 q 165 -2 122 -4 m 315 24 l 309 28 q 315 24 313 28 m 317 19 q 316 21 317 20 q 315 24 315 22 q 317 19 317 22 m 704 1157 q 706 1135 706 1143 q 696 1119 706 1128 q 635 1085 674 1085 q 596 1092 609 1085 q 567 1117 583 1098 l 567 1115 q 552 1146 556 1126 q 552 1180 548 1167 q 569 1205 556 1193 q 594 1220 581 1217 l 593 1220 q 622 1224 604 1224 q 656 1217 641 1224 q 688 1194 678 1206 q 704 1161 698 1181 l 704 1157 m 533 1193 q 530 1157 541 1170 q 504 1129 515 1137 q 469 1120 493 1120 q 429 1127 443 1120 q 400 1154 415 1133 l 400 1152 q 384 1182 389 1163 q 383 1217 380 1202 q 400 1240 387 1228 q 426 1256 413 1252 l 424 1256 q 454 1261 435 1261 q 489 1252 472 1261 q 519 1229 509 1241 q 533 1196 528 1217 l 533 1193 z "},"":{"ha":1028,"x_min":-22,"x_max":972,"o":"m 554 683 q 444 474 487 561 q 377 320 400 387 q 346 203 354 254 q 343 104 339 152 q 346 80 343 89 q 354 63 350 70 q 361 41 361 50 q 283 -2 361 -2 q 262 1 274 -2 q 238 15 250 4 q 217 46 226 26 q 206 100 207 67 l 206 98 q 228 273 202 167 q 317 531 254 380 q 358 631 333 574 q 408 738 383 687 q 453 828 433 789 q 481 876 472 867 q 506 895 491 889 q 537 902 522 902 q 590 878 569 902 q 613 822 611 854 q 611 801 613 811 q 604 777 609 791 q 586 741 598 763 q 554 683 574 719 m 820 254 q 674 69 754 152 q 510 -71 594 -13 q 342 -161 426 -130 q 181 -193 257 -193 q 56 -154 98 -193 q 11 -72 15 -115 q 31 -13 11 -39 q 87 13 50 13 q 107 8 100 13 q 122 -2 115 4 q 134 -7 126 -6 q 157 -9 143 -9 q 316 28 233 -9 q 481 135 398 65 l 480 135 q 626 286 563 207 q 731 444 689 365 q 791 596 772 522 q 806 735 809 670 q 752 878 802 833 q 598 922 702 922 q 404 884 500 922 q 232 791 307 846 q 111 670 157 735 q 67 552 65 606 q 69 535 69 543 q 74 524 70 528 q 117 480 85 498 q 170 450 148 461 q 194 439 185 444 q 202 422 202 433 q 191 400 202 413 q 154 387 180 387 q 83 401 115 387 q 30 438 52 415 q -5 492 7 461 q -19 554 -17 522 q 6 662 -22 606 q 84 774 35 719 q 200 879 133 830 q 340 966 267 928 q 489 1026 413 1004 q 633 1048 565 1048 q 869 961 783 1048 q 969 715 956 874 q 935 483 972 600 q 820 252 898 367 l 820 254 m 500 252 q 406 257 463 256 q 289 259 350 259 q 177 257 230 259 q 98 252 124 256 q 91 251 94 252 q 83 250 87 250 q 44 247 54 246 q 20 254 35 248 l 24 254 q -6 286 0 263 q -2 330 -11 309 q 28 347 4 339 q 104 365 52 356 q 194 381 154 374 q 275 391 235 387 q 356 395 315 394 q 450 396 398 396 l 507 396 q 561 394 548 396 q 589 389 574 393 q 656 344 637 372 q 666 319 665 330 q 663 293 667 307 q 602 250 652 257 q 566 248 587 248 q 500 252 544 248 z "},"":{"ha":822,"x_min":-22,"x_max":1000,"o":"m 31 17 q 25 10 28 13 q 19 6 22 7 q 13 2 15 2 q -10 10 0 2 q -22 37 -20 19 q -15 91 -22 52 q 6 183 -7 130 q 38 301 20 237 q 74 431 56 365 q 127 620 102 531 q 163 757 152 709 q 185 849 176 815 q 206 902 194 883 q 231 925 217 920 q 269 930 246 930 q 308 924 291 930 q 341 894 326 919 q 368 819 356 869 q 391 680 380 769 q 416 507 402 593 q 444 351 430 422 q 469 228 457 280 q 485 156 480 176 q 489 189 483 167 q 589 540 537 381 q 694 811 641 698 q 804 986 748 924 q 915 1048 859 1048 q 972 1022 950 1048 q 996 952 994 996 q 990 919 1000 931 q 965 907 980 907 q 942 918 946 907 q 933 946 937 928 q 928 965 930 965 q 913 953 924 965 q 891 922 902 941 q 806 756 846 852 q 734 553 767 661 q 677 327 702 444 q 635 96 652 209 q 612 -25 624 20 q 586 -95 600 -70 q 556 -129 572 -120 q 520 -137 539 -137 q 488 -130 498 -137 q 469 -111 478 -122 l 446 -91 l 448 -93 q 401 -43 422 -78 q 360 58 380 -7 q 322 228 341 124 q 283 483 304 331 q 269 572 276 530 q 256 649 263 615 q 246 705 250 683 q 241 728 243 726 l 239 733 q 234 691 241 726 q 216 606 228 656 q 187 494 204 556 q 152 372 170 433 q 103 214 122 278 q 69 109 83 150 q 48 48 56 69 q 35 20 41 28 l 31 17 m 637 1204 q 670 1209 656 1198 q 705 1228 685 1230 q 731 1207 724 1226 l 731 1209 q 730 1169 737 1194 q 709 1133 722 1144 q 656 1109 689 1117 q 591 1111 622 1102 q 483 1174 541 1122 q 458 1198 463 1194 q 448 1200 454 1202 q 428 1191 441 1200 q 390 1177 402 1174 q 370 1206 378 1180 q 398 1270 365 1233 q 435 1299 419 1291 q 478 1307 452 1307 q 524 1295 502 1307 q 578 1252 546 1283 q 618 1216 607 1224 q 637 1204 628 1207 z "},"":{"ha":952,"x_min":-28,"x_max":896,"o":"m 894 759 l 894 756 q 895 752 894 754 q 896 748 896 750 l 896 741 q 858 534 893 648 q 763 302 824 420 q 652 128 711 207 q 531 -11 593 48 q 410 -104 470 -70 q 298 -137 350 -137 q 160 -69 207 -137 q 117 122 113 0 q 139 259 119 183 q 191 412 159 335 q 263 562 222 489 q 346 692 304 635 q 432 782 389 748 q 513 817 476 817 q 562 796 544 817 q 580 752 580 776 q 559 706 580 735 q 504 643 539 678 q 391 506 441 578 q 305 367 341 435 q 248 234 269 298 q 226 119 228 170 q 233 33 222 65 q 269 2 244 2 q 357 43 307 2 q 458 151 407 83 q 559 304 509 219 q 648 478 609 389 q 712 650 687 567 q 739 798 737 733 q 712 915 743 881 q 611 948 681 948 q 435 911 530 948 q 257 817 341 874 q 116 690 174 759 q 48 556 57 620 q 71 504 50 528 q 126 474 93 480 q 148 467 141 470 q 159 448 156 463 q 145 427 156 439 q 98 415 135 415 q 7 456 41 415 q -28 561 -26 498 q 12 669 -22 613 q 98 780 46 726 q 218 882 150 833 q 359 969 285 931 q 509 1027 433 1006 q 656 1048 585 1048 q 832 973 769 1048 q 896 765 896 898 l 894 759 m 846 1113 q 813 1089 833 1089 q 768 1094 796 1087 q 708 1114 739 1102 q 649 1141 678 1126 q 606 1169 620 1156 q 583 1203 593 1183 q 574 1237 574 1222 q 600 1297 574 1274 q 670 1307 626 1320 l 669 1307 q 739 1252 707 1296 q 768 1215 752 1231 q 809 1178 783 1198 q 834 1156 822 1169 q 848 1135 846 1143 q 850 1123 852 1128 q 846 1113 848 1119 z "},"":{"ha":952,"x_min":-28,"x_max":904,"o":"m 894 759 l 894 756 q 895 752 894 754 q 896 748 896 750 l 896 741 q 858 534 893 648 q 763 302 824 420 q 652 128 711 207 q 531 -11 593 48 q 410 -104 470 -70 q 298 -137 350 -137 q 160 -69 207 -137 q 117 122 113 0 q 139 259 119 183 q 191 412 159 335 q 263 562 222 489 q 346 692 304 635 q 432 782 389 748 q 513 817 476 817 q 562 796 544 817 q 580 752 580 776 q 559 706 580 735 q 504 643 539 678 q 391 506 441 578 q 305 367 341 435 q 248 234 269 298 q 226 119 228 170 q 233 33 222 65 q 269 2 244 2 q 357 43 307 2 q 458 151 407 83 q 559 304 509 219 q 648 478 609 389 q 712 650 687 567 q 739 798 737 733 q 712 915 743 881 q 611 948 681 948 q 435 911 530 948 q 257 817 341 874 q 116 690 174 759 q 48 556 57 620 q 71 504 50 528 q 126 474 93 480 q 148 467 141 470 q 159 448 156 463 q 145 427 156 439 q 98 415 135 415 q 7 456 41 415 q -28 561 -26 498 q 12 669 -22 613 q 98 780 46 726 q 218 882 150 833 q 359 969 285 931 q 509 1027 433 1006 q 656 1048 585 1048 q 832 973 769 1048 q 896 765 896 898 l 894 759 m 889 1187 q 863 1157 881 1174 q 822 1124 844 1141 q 775 1093 800 1107 q 728 1070 750 1078 l 730 1070 q 681 1062 698 1059 q 654 1078 665 1065 q 647 1107 644 1094 q 670 1141 650 1120 q 714 1194 698 1167 q 737 1254 730 1222 q 796 1320 750 1311 l 794 1319 q 825 1319 806 1322 q 859 1306 844 1315 q 894 1253 885 1285 q 889 1189 904 1220 l 889 1187 z "},"":{"ha":952,"x_min":-28,"x_max":898,"o":"m 894 759 l 894 756 q 895 752 894 754 q 896 748 896 750 l 896 741 q 858 534 893 648 q 763 302 824 420 q 652 128 711 207 q 531 -11 593 48 q 410 -104 470 -70 q 298 -137 350 -137 q 160 -69 207 -137 q 117 122 113 0 q 139 259 119 183 q 191 412 159 335 q 263 562 222 489 q 346 692 304 635 q 432 782 389 748 q 513 817 476 817 q 562 796 544 817 q 580 752 580 776 q 559 706 580 735 q 504 643 539 678 q 391 506 441 578 q 305 367 341 435 q 248 234 269 298 q 226 119 228 170 q 233 33 222 65 q 269 2 244 2 q 357 43 307 2 q 458 151 407 83 q 559 304 509 219 q 648 478 609 389 q 712 650 687 567 q 739 798 737 733 q 712 915 743 881 q 611 948 681 948 q 435 911 530 948 q 257 817 341 874 q 116 690 174 759 q 48 556 57 620 q 71 504 50 528 q 126 474 93 480 q 148 467 141 470 q 159 448 156 463 q 145 427 156 439 q 98 415 135 415 q 7 456 41 415 q -28 561 -26 498 q 12 669 -22 613 q 98 780 46 726 q 218 882 150 833 q 359 969 285 931 q 509 1027 433 1006 q 656 1048 585 1048 q 832 973 769 1048 q 896 765 896 898 l 894 759 m 631 1276 q 706 1304 665 1304 q 798 1267 752 1304 l 796 1267 q 857 1115 898 1180 q 769 1100 828 1074 q 717 1143 744 1111 q 691 1174 696 1169 q 681 1180 685 1180 q 648 1166 672 1180 q 609 1137 624 1152 q 574 1109 585 1115 q 548 1107 563 1104 q 537 1169 517 1119 q 556 1194 543 1178 q 582 1225 569 1209 q 609 1255 596 1241 q 631 1276 622 1269 z "},"":{"ha":952,"x_min":-28,"x_max":896,"o":"m 894 759 l 894 756 q 895 752 894 754 q 896 748 896 750 l 896 741 q 858 534 893 648 q 763 302 824 420 q 652 128 711 207 q 531 -11 593 48 q 410 -104 470 -70 q 298 -137 350 -137 q 160 -69 207 -137 q 117 122 113 0 q 139 259 119 183 q 191 412 159 335 q 263 562 222 489 q 346 692 304 635 q 432 782 389 748 q 513 817 476 817 q 562 796 544 817 q 580 752 580 776 q 559 706 580 735 q 504 643 539 678 q 391 506 441 578 q 305 367 341 435 q 248 234 269 298 q 226 119 228 170 q 233 33 222 65 q 269 2 244 2 q 357 43 307 2 q 458 151 407 83 q 559 304 509 219 q 648 478 609 389 q 712 650 687 567 q 739 798 737 733 q 712 915 743 881 q 611 948 681 948 q 435 911 530 948 q 257 817 341 874 q 116 690 174 759 q 48 556 57 620 q 71 504 50 528 q 126 474 93 480 q 148 467 141 470 q 159 448 156 463 q 145 427 156 439 q 98 415 135 415 q 7 456 41 415 q -28 561 -26 498 q 12 669 -22 613 q 98 780 46 726 q 218 882 150 833 q 359 969 285 931 q 509 1027 433 1006 q 656 1048 585 1048 q 832 973 769 1048 q 896 765 896 898 l 894 759 m 761 1204 q 794 1209 780 1198 q 829 1228 809 1230 q 856 1207 848 1226 l 856 1209 q 854 1169 861 1194 q 833 1133 846 1144 q 780 1109 813 1117 q 715 1111 746 1102 q 607 1174 665 1122 q 582 1198 587 1194 q 572 1200 578 1202 q 552 1191 565 1200 q 514 1177 526 1174 q 494 1206 502 1180 q 522 1270 489 1233 q 559 1299 543 1291 q 602 1307 576 1307 q 648 1295 626 1307 q 702 1252 670 1283 q 742 1216 731 1224 q 761 1204 752 1207 z "},"":{"ha":952,"x_min":-28,"x_max":913,"o":"m 894 759 l 894 756 q 895 752 894 754 q 896 748 896 750 l 896 741 q 858 534 893 648 q 763 302 824 420 q 652 128 711 207 q 531 -11 593 48 q 410 -104 470 -70 q 298 -137 350 -137 q 160 -69 207 -137 q 117 122 113 0 q 139 259 119 183 q 191 412 159 335 q 263 562 222 489 q 346 692 304 635 q 432 782 389 748 q 513 817 476 817 q 562 796 544 817 q 580 752 580 776 q 559 706 580 735 q 504 643 539 678 q 391 506 441 578 q 305 367 341 435 q 248 234 269 298 q 226 119 228 170 q 233 33 222 65 q 269 2 244 2 q 357 43 307 2 q 458 151 407 83 q 559 304 509 219 q 648 478 609 389 q 712 650 687 567 q 739 798 737 733 q 712 915 743 881 q 611 948 681 948 q 435 911 530 948 q 257 817 341 874 q 116 690 174 759 q 48 556 57 620 q 71 504 50 528 q 126 474 93 480 q 148 467 141 470 q 159 448 156 463 q 145 427 156 439 q 98 415 135 415 q 7 456 41 415 q -28 561 -26 498 q 12 669 -22 613 q 98 780 46 726 q 218 882 150 833 q 359 969 285 931 q 509 1027 433 1006 q 656 1048 585 1048 q 832 973 769 1048 q 896 765 896 898 l 894 759 m 911 1157 q 913 1135 913 1143 q 904 1119 913 1128 q 843 1085 881 1085 q 804 1092 817 1085 q 774 1117 791 1098 l 774 1115 q 759 1146 763 1126 q 759 1180 756 1167 q 776 1205 763 1193 q 802 1220 789 1217 l 800 1220 q 830 1224 811 1224 q 863 1217 848 1224 q 895 1194 885 1206 q 911 1161 906 1181 l 911 1157 m 741 1193 q 737 1157 748 1170 q 711 1129 722 1137 q 676 1120 700 1120 q 636 1127 650 1120 q 607 1154 622 1133 l 607 1152 q 592 1182 596 1163 q 591 1217 587 1202 q 607 1240 594 1228 q 633 1256 620 1252 l 631 1256 q 661 1261 643 1261 q 696 1252 680 1261 q 726 1229 717 1241 q 741 1196 735 1217 l 741 1193 z "},"":{"ha":952,"x_min":-28,"x_max":896,"o":"m 894 759 l 894 756 q 895 752 894 754 q 896 748 896 750 l 896 741 q 858 534 893 648 q 763 302 824 420 q 652 128 711 207 q 531 -11 593 48 q 410 -104 470 -70 q 298 -137 350 -137 q 160 -69 207 -137 q 117 122 113 0 q 139 259 119 183 q 191 412 159 335 q 263 562 222 489 q 346 692 304 635 q 432 782 389 748 q 513 817 476 817 q 562 796 544 817 q 580 752 580 776 q 559 706 580 735 q 504 643 539 678 q 391 506 441 578 q 305 367 341 435 q 248 234 269 298 q 226 119 228 170 q 233 33 222 65 q 269 2 244 2 q 357 43 307 2 q 458 151 407 83 q 559 304 509 219 q 648 478 609 389 q 712 650 687 567 q 739 798 737 733 q 712 915 743 881 q 611 948 681 948 q 435 911 530 948 q 257 817 341 874 q 116 690 174 759 q 48 556 57 620 q 71 504 50 528 q 126 474 93 480 q 148 467 141 470 q 159 448 156 463 q 145 427 156 439 q 98 415 135 415 q 7 456 41 415 q -28 561 -26 498 q 12 669 -22 613 q 98 780 46 726 q 218 882 150 833 q 359 969 285 931 q 509 1027 433 1006 q 656 1048 585 1048 q 832 973 769 1048 q 896 765 896 898 l 894 759 m 361 -19 q 345 -69 354 -44 q 331 -102 337 -93 q 299 -132 320 -124 q 257 -133 278 -141 q 211 -93 226 -122 q 196 -22 196 -63 q 200 21 196 0 q 209 65 204 43 q 230 111 217 83 q 263 181 243 139 q 315 282 283 222 q 391 430 346 343 q 489 618 448 537 q 559 758 530 698 q 607 861 589 819 q 639 937 626 904 q 657 986 648 969 q 685 1013 667 1004 q 721 1021 698 1020 q 756 1017 744 1022 q 788 992 774 1007 q 809 959 802 976 q 815 916 817 937 q 804 863 813 894 q 787 825 796 844 q 763 779 778 806 q 724 713 748 752 q 665 619 700 674 q 528 373 593 500 q 415 139 463 246 q 399 102 406 119 q 387 68 393 85 q 375 29 381 50 q 361 -20 369 7 l 361 -19 l 361 -19 z "},"":{"ha":1159,"x_min":-39,"x_max":1124,"o":"m 546 531 q 474 296 496 385 q 456 143 452 207 l 456 131 q 518 153 481 131 q 593 207 554 174 q 671 283 631 241 q 746 370 711 326 q 786 424 770 402 q 813 465 802 446 q 831 500 824 483 q 844 537 839 517 q 856 581 848 554 q 885 656 865 607 l 885 654 q 935 789 915 737 q 972 870 956 841 q 1006 911 989 900 q 1044 922 1022 922 q 1095 902 1070 922 q 1122 837 1120 881 q 1111 760 1124 807 q 1067 635 1098 713 q 989 421 1024 528 q 927 221 954 315 q 886 54 900 128 q 874 -65 872 -20 q 878 -94 876 -87 q 887 -102 880 -102 q 917 -91 902 -102 q 946 -70 931 -80 q 969 -53 959 -61 q 993 -44 980 -44 q 1024 -74 1019 -44 q 1005 -122 1024 -96 q 957 -169 985 -148 q 903 -203 930 -189 q 863 -217 876 -217 q 770 -165 806 -217 q 730 -20 735 -113 q 759 257 724 104 q 570 51 654 119 q 433 -17 487 -17 q 331 36 369 -17 q 287 172 293 89 q 290 265 285 219 q 310 370 294 311 q 353 506 326 430 q 422 691 380 583 l 422 689 q 481 856 463 804 q 498 930 500 909 q 452 959 498 959 q 364 944 411 959 q 270 901 317 928 q 181 839 224 874 q 106 765 139 804 q 56 687 74 726 q 39 613 37 648 q 50 574 43 589 q 80 539 57 559 q 123 508 87 530 q 189 469 159 487 q 219 451 206 459 q 235 433 233 443 q 236 409 241 413 q 202 406 231 406 q 122 423 163 406 q 47 469 81 441 q -10 535 13 498 q -35 611 -33 572 q 9 755 -39 678 q 131 898 57 831 q 295 1009 206 965 q 469 1054 385 1054 q 589 1010 548 1054 q 633 887 630 967 q 630 829 633 859 q 617 756 626 798 q 590 660 607 715 q 546 531 572 606 m 1037 1113 q 1004 1089 1024 1089 q 958 1094 987 1087 q 899 1114 930 1102 q 840 1141 869 1126 q 796 1169 811 1156 q 774 1203 783 1183 q 765 1237 765 1222 q 791 1297 765 1274 q 861 1307 817 1320 l 859 1307 q 930 1252 898 1296 q 958 1215 943 1231 q 1000 1178 974 1198 q 1025 1156 1013 1169 q 1039 1135 1037 1143 q 1041 1123 1043 1128 q 1037 1113 1039 1119 z "},"":{"ha":1159,"x_min":-39,"x_max":1124,"o":"m 546 531 q 474 296 496 385 q 456 143 452 207 l 456 131 q 518 153 481 131 q 593 207 554 174 q 671 283 631 241 q 746 370 711 326 q 786 424 770 402 q 813 465 802 446 q 831 500 824 483 q 844 537 839 517 q 856 581 848 554 q 885 656 865 607 l 885 654 q 935 789 915 737 q 972 870 956 841 q 1006 911 989 900 q 1044 922 1022 922 q 1095 902 1070 922 q 1122 837 1120 881 q 1111 760 1124 807 q 1067 635 1098 713 q 989 421 1024 528 q 927 221 954 315 q 886 54 900 128 q 874 -65 872 -20 q 878 -94 876 -87 q 887 -102 880 -102 q 917 -91 902 -102 q 946 -70 931 -80 q 969 -53 959 -61 q 993 -44 980 -44 q 1024 -74 1019 -44 q 1005 -122 1024 -96 q 957 -169 985 -148 q 903 -203 930 -189 q 863 -217 876 -217 q 770 -165 806 -217 q 730 -20 735 -113 q 759 257 724 104 q 570 51 654 119 q 433 -17 487 -17 q 331 36 369 -17 q 287 172 293 89 q 290 265 285 219 q 310 370 294 311 q 353 506 326 430 q 422 691 380 583 l 422 689 q 481 856 463 804 q 498 930 500 909 q 452 959 498 959 q 364 944 411 959 q 270 901 317 928 q 181 839 224 874 q 106 765 139 804 q 56 687 74 726 q 39 613 37 648 q 50 574 43 589 q 80 539 57 559 q 123 508 87 530 q 189 469 159 487 q 219 451 206 459 q 235 433 233 443 q 236 409 241 413 q 202 406 231 406 q 122 423 163 406 q 47 469 81 441 q -10 535 13 498 q -35 611 -33 572 q 9 755 -39 678 q 131 898 57 831 q 295 1009 206 965 q 469 1054 385 1054 q 589 1010 548 1054 q 633 887 630 967 q 630 829 633 859 q 617 756 626 798 q 590 660 607 715 q 546 531 572 606 m 1050 1187 q 1024 1157 1043 1174 q 983 1124 1006 1141 q 936 1093 961 1107 q 889 1070 911 1078 l 891 1070 q 843 1062 859 1059 q 815 1078 826 1065 q 808 1107 806 1094 q 831 1141 811 1120 q 875 1194 859 1167 q 898 1254 891 1222 q 957 1320 911 1311 l 956 1319 q 986 1319 967 1322 q 1020 1306 1006 1315 q 1056 1253 1046 1285 q 1050 1189 1065 1220 l 1050 1187 z "},"":{"ha":1159,"x_min":-39,"x_max":1124,"o":"m 546 531 q 474 296 496 385 q 456 143 452 207 l 456 131 q 518 153 481 131 q 593 207 554 174 q 671 283 631 241 q 746 370 711 326 q 786 424 770 402 q 813 465 802 446 q 831 500 824 483 q 844 537 839 517 q 856 581 848 554 q 885 656 865 607 l 885 654 q 935 789 915 737 q 972 870 956 841 q 1006 911 989 900 q 1044 922 1022 922 q 1095 902 1070 922 q 1122 837 1120 881 q 1111 760 1124 807 q 1067 635 1098 713 q 989 421 1024 528 q 927 221 954 315 q 886 54 900 128 q 874 -65 872 -20 q 878 -94 876 -87 q 887 -102 880 -102 q 917 -91 902 -102 q 946 -70 931 -80 q 969 -53 959 -61 q 993 -44 980 -44 q 1024 -74 1019 -44 q 1005 -122 1024 -96 q 957 -169 985 -148 q 903 -203 930 -189 q 863 -217 876 -217 q 770 -165 806 -217 q 730 -20 735 -113 q 759 257 724 104 q 570 51 654 119 q 433 -17 487 -17 q 331 36 369 -17 q 287 172 293 89 q 290 265 285 219 q 310 370 294 311 q 353 506 326 430 q 422 691 380 583 l 422 689 q 481 856 463 804 q 498 930 500 909 q 452 959 498 959 q 364 944 411 959 q 270 901 317 928 q 181 839 224 874 q 106 765 139 804 q 56 687 74 726 q 39 613 37 648 q 50 574 43 589 q 80 539 57 559 q 123 508 87 530 q 189 469 159 487 q 219 451 206 459 q 235 433 233 443 q 236 409 241 413 q 202 406 231 406 q 122 423 163 406 q 47 469 81 441 q -10 535 13 498 q -35 611 -33 572 q 9 755 -39 678 q 131 898 57 831 q 295 1009 206 965 q 469 1054 385 1054 q 589 1010 548 1054 q 633 887 630 967 q 630 829 633 859 q 617 756 626 798 q 590 660 607 715 q 546 531 572 606 m 819 1276 q 893 1304 852 1304 q 985 1267 939 1304 l 983 1267 q 1044 1115 1085 1180 q 956 1100 1015 1074 q 904 1143 931 1111 q 878 1174 883 1169 q 869 1180 872 1180 q 835 1166 859 1180 q 796 1137 811 1152 q 761 1109 772 1115 q 735 1107 750 1104 q 724 1169 704 1119 q 743 1194 730 1178 q 769 1225 756 1209 q 796 1255 783 1241 q 819 1276 809 1269 z "},"":{"ha":1159,"x_min":-39,"x_max":1124,"o":"m 546 531 q 474 296 496 385 q 456 143 452 207 l 456 131 q 518 153 481 131 q 593 207 554 174 q 671 283 631 241 q 746 370 711 326 q 786 424 770 402 q 813 465 802 446 q 831 500 824 483 q 844 537 839 517 q 856 581 848 554 q 885 656 865 607 l 885 654 q 935 789 915 737 q 972 870 956 841 q 1006 911 989 900 q 1044 922 1022 922 q 1095 902 1070 922 q 1122 837 1120 881 q 1111 760 1124 807 q 1067 635 1098 713 q 989 421 1024 528 q 927 221 954 315 q 886 54 900 128 q 874 -65 872 -20 q 878 -94 876 -87 q 887 -102 880 -102 q 917 -91 902 -102 q 946 -70 931 -80 q 969 -53 959 -61 q 993 -44 980 -44 q 1024 -74 1019 -44 q 1005 -122 1024 -96 q 957 -169 985 -148 q 903 -203 930 -189 q 863 -217 876 -217 q 770 -165 806 -217 q 730 -20 735 -113 q 759 257 724 104 q 570 51 654 119 q 433 -17 487 -17 q 331 36 369 -17 q 287 172 293 89 q 290 265 285 219 q 310 370 294 311 q 353 506 326 430 q 422 691 380 583 l 422 689 q 481 856 463 804 q 498 930 500 909 q 452 959 498 959 q 364 944 411 959 q 270 901 317 928 q 181 839 224 874 q 106 765 139 804 q 56 687 74 726 q 39 613 37 648 q 50 574 43 589 q 80 539 57 559 q 123 508 87 530 q 189 469 159 487 q 219 451 206 459 q 235 433 233 443 q 236 409 241 413 q 202 406 231 406 q 122 423 163 406 q 47 469 81 441 q -10 535 13 498 q -35 611 -33 572 q 9 755 -39 678 q 131 898 57 831 q 295 1009 206 965 q 469 1054 385 1054 q 589 1010 548 1054 q 633 887 630 967 q 630 829 633 859 q 617 756 626 798 q 590 660 607 715 q 546 531 572 606 m 1035 1157 q 1037 1135 1037 1143 q 1028 1119 1037 1128 q 967 1085 1006 1085 q 928 1092 941 1085 q 898 1117 915 1098 l 898 1115 q 883 1146 887 1126 q 883 1180 880 1167 q 900 1205 887 1193 q 926 1220 913 1217 l 924 1220 q 954 1224 935 1224 q 987 1217 972 1224 q 1019 1194 1009 1206 q 1035 1161 1030 1181 l 1035 1157 m 865 1193 q 861 1157 872 1170 q 835 1129 846 1137 q 800 1120 824 1120 q 760 1127 774 1120 q 731 1154 746 1133 l 731 1152 q 716 1182 720 1163 q 715 1217 711 1202 q 731 1240 719 1228 q 757 1256 744 1252 l 756 1256 q 785 1261 767 1261 q 820 1252 804 1261 q 850 1229 841 1241 q 865 1196 859 1217 l 865 1193 z "},"":{"ha":578,"x_min":-91,"x_max":796,"o":"m 122 -219 q 102 -141 107 -187 q 98 -108 98 -126 q 98 -74 98 -91 q 106 34 98 -22 q 135 150 115 91 l 135 148 l 146 191 l 139 198 q 117 270 122 226 q 112 320 113 291 q 107 383 111 350 q 100 472 104 426 q 93 561 96 519 q 45 767 72 689 q -2 848 19 844 q -5 842 0 846 q -13 833 -9 837 q -30 812 -20 822 q -54 802 -39 802 q -73 809 -63 802 q -87 831 -83 817 q -83 869 -91 850 q -63 903 -76 887 q -33 929 -50 919 q 0 939 -17 939 q 76 905 39 939 q 146 809 113 870 q 206 662 180 748 q 250 472 233 576 l 252 456 q 354 648 294 546 q 471 839 413 750 q 580 993 530 928 q 656 1072 630 1057 q 702 1081 674 1081 q 763 1057 737 1081 q 793 1006 789 1033 q 794 1000 793 1002 q 794 994 794 998 l 794 998 q 796 982 796 989 q 791 966 796 976 q 772 938 785 956 q 735 889 759 920 l 711 857 q 506 561 602 715 q 342 265 411 407 q 236 2 272 122 q 207 -193 200 -119 q 222 -221 209 -209 q 256 -233 235 -233 q 269 -231 263 -233 q 276 -231 272 -231 q 283 -230 280 -230 q 309 -239 300 -230 q 319 -257 319 -248 l 319 -254 q 304 -288 322 -269 q 243 -307 285 -307 q 171 -284 202 -307 q 122 -219 141 -261 m 489 1187 q 463 1157 481 1174 q 422 1124 444 1141 q 375 1093 400 1107 q 328 1070 350 1078 l 330 1070 q 281 1062 298 1059 q 254 1078 265 1065 q 247 1107 244 1094 q 270 1141 250 1120 q 314 1194 298 1167 q 337 1254 330 1222 q 396 1320 350 1311 l 394 1319 q 425 1319 406 1322 q 459 1306 444 1315 q 494 1253 485 1285 q 489 1189 504 1220 l 489 1187 z "},"":{"ha":674,"x_min":-20,"x_max":746,"o":"m 428 -85 q 411 -83 415 -85 q 339 -35 370 -74 q 300 63 307 4 q 296 91 296 74 q 296 124 296 107 l 296 148 q 192 36 243 74 q 106 -2 141 -2 q 27 34 61 -2 q -17 135 -7 70 q -19 164 -19 150 q -20 193 -20 178 q 10 357 -20 278 q 86 498 41 437 q 183 595 131 559 q 276 631 235 631 q 348 613 313 631 q 412 562 383 594 q 460 486 441 530 q 487 393 480 443 q 481 329 491 352 q 443 293 472 306 l 437 257 q 426 169 430 209 q 426 96 422 128 q 437 37 435 37 q 503 74 461 37 q 587 167 544 111 q 615 215 600 187 q 643 265 630 243 q 685 335 663 304 q 722 367 707 367 q 746 343 739 367 q 739 307 746 333 q 711 243 731 281 q 552 -6 624 74 q 428 -85 480 -85 m 315 313 l 326 330 l 341 348 q 338 356 339 350 q 337 363 337 361 l 328 385 l 330 381 q 305 437 315 413 q 287 461 294 461 q 224 419 257 461 q 162 318 191 376 q 114 199 133 259 q 94 102 94 139 q 100 93 98 93 q 168 142 117 93 q 278 263 219 191 l 315 313 m 554 743 q 520 719 541 719 q 475 724 504 717 q 416 744 446 731 q 356 770 385 756 q 313 798 328 785 q 291 832 300 813 q 281 867 281 852 q 307 927 281 904 q 378 937 333 950 l 376 937 q 446 881 415 926 q 475 844 459 861 q 517 807 491 828 q 542 785 530 798 q 556 765 554 772 q 557 753 559 757 q 554 743 556 748 z "},"":{"ha":659,"x_min":-28,"x_max":739,"o":"m 420 -85 q 404 -83 407 -85 q 331 -35 363 -74 q 293 63 300 4 q 289 91 289 74 q 289 124 289 107 l 289 148 q 184 36 235 74 q 98 -2 133 -2 q 19 34 54 -2 q -24 135 -15 70 q -27 164 -26 150 q -28 193 -28 178 q 3 357 -28 278 q 79 498 33 437 q 176 595 124 559 q 269 631 228 631 q 341 613 306 631 q 405 562 376 594 q 453 486 433 530 q 480 393 472 443 q 474 329 483 352 q 435 293 465 306 l 430 257 q 419 169 422 209 q 419 96 415 128 q 430 37 428 37 q 495 74 454 37 q 580 167 537 111 q 607 215 593 187 q 635 265 622 243 q 678 335 656 304 q 715 367 700 367 q 739 343 731 367 q 731 307 739 333 q 704 243 724 281 q 544 -6 617 74 q 420 -85 472 -85 m 307 313 l 319 330 l 333 348 q 331 356 331 350 q 330 363 330 361 l 320 385 l 322 381 q 297 437 307 413 q 280 461 287 461 q 217 419 250 461 q 155 318 183 376 q 106 199 126 259 q 87 102 87 139 q 93 93 91 93 q 160 142 109 93 q 270 263 211 191 l 307 313 m 507 817 q 481 787 500 804 q 441 754 463 770 q 394 722 419 737 q 346 700 369 707 l 348 700 q 300 692 317 689 q 272 707 283 694 q 266 737 263 724 q 289 770 269 750 q 332 824 317 796 q 356 883 348 852 q 415 950 369 941 l 413 948 q 444 948 424 952 q 478 935 463 944 q 513 882 504 915 q 507 819 522 850 l 507 817 z "},"":{"ha":665,"x_min":-22,"x_max":744,"o":"m 426 -85 q 409 -83 413 -85 q 337 -35 369 -74 q 298 63 306 4 q 294 91 294 74 q 294 124 294 107 l 294 148 q 190 36 241 74 q 104 -2 139 -2 q 25 34 59 -2 q -19 135 -9 70 q -21 164 -20 150 q -22 193 -22 178 q 8 357 -22 278 q 84 498 39 437 q 181 595 130 559 q 274 631 233 631 q 346 613 311 631 q 410 562 381 594 q 458 486 439 530 q 485 393 478 443 q 480 329 489 352 q 441 293 470 306 l 435 257 q 424 169 428 209 q 424 96 420 128 q 435 37 433 37 q 501 74 459 37 q 585 167 543 111 q 613 215 598 187 q 641 265 628 243 q 683 335 661 304 q 720 367 706 367 q 744 343 737 367 q 737 307 744 333 q 709 243 730 281 q 550 -6 622 74 q 426 -85 478 -85 m 313 313 l 324 330 l 339 348 q 336 356 337 350 q 335 363 335 361 l 326 385 l 328 381 q 303 437 313 413 q 285 461 293 461 q 222 419 256 461 q 160 318 189 376 q 112 199 131 259 q 93 102 93 139 q 98 93 96 93 q 166 142 115 93 q 276 263 217 191 l 313 313 m 343 906 q 417 933 376 933 q 509 896 463 933 l 507 896 q 569 744 609 809 q 480 730 539 704 q 428 772 456 741 q 402 804 407 798 q 393 809 396 809 q 359 795 383 809 q 320 767 335 781 q 285 739 296 744 q 259 737 274 733 q 248 798 228 748 q 267 823 254 807 q 294 855 280 839 q 320 884 307 870 q 343 906 333 898 z "},"":{"ha":670,"x_min":-26,"x_max":741,"o":"m 422 -85 q 406 -83 409 -85 q 333 -35 365 -74 q 294 63 302 4 q 291 91 291 74 q 291 124 291 107 l 291 148 q 186 36 237 74 q 100 -2 135 -2 q 21 34 56 -2 q -22 135 -13 70 q -25 164 -24 150 q -26 193 -26 178 q 5 357 -26 278 q 81 498 35 437 q 178 595 126 559 q 270 631 230 631 q 343 613 307 631 q 406 562 378 594 q 455 486 435 530 q 481 393 474 443 q 476 329 485 352 q 437 293 467 306 l 431 257 q 420 169 424 209 q 420 96 417 128 q 431 37 430 37 q 497 74 456 37 q 581 167 539 111 q 609 215 594 187 q 637 265 624 243 q 680 335 657 304 q 717 367 702 367 q 741 343 733 367 q 733 307 741 333 q 706 243 726 281 q 546 -6 619 74 q 422 -85 474 -85 m 309 313 l 320 330 l 335 348 q 332 356 333 350 q 331 363 331 361 l 322 385 l 324 381 q 299 437 309 413 q 281 461 289 461 q 219 419 252 461 q 156 318 185 376 q 108 199 128 259 q 89 102 89 139 q 94 93 93 93 q 162 142 111 93 q 272 263 213 191 l 309 313 m 496 833 q 530 839 515 828 q 564 857 544 859 q 591 837 583 856 l 591 839 q 589 799 596 824 q 569 763 581 774 q 515 739 548 746 q 450 741 481 731 q 343 804 400 752 q 318 828 322 824 q 307 830 313 831 q 287 820 300 830 q 249 806 261 804 q 230 835 237 809 q 257 900 224 863 q 294 929 278 920 q 337 937 311 937 q 383 925 361 937 q 437 881 406 913 q 477 845 467 854 q 496 833 487 837 z "}}}
